<svg width="24" height="25" viewBox="0 0 24 25" fill="none" xmlns="http://www.w3.org/2000/svg">
<path d="M15.5306 19.4693C15.6003 19.539 15.6556 19.6217 15.6933 19.7128C15.731 19.8038 15.7504 19.9014 15.7504 19.9999C15.7504 20.0985 15.731 20.1961 15.6933 20.2871C15.6556 20.3781 15.6003 20.4609 15.5306 20.5306C15.4609 20.6002 15.3782 20.6555 15.2872 20.6932C15.1961 20.7309 15.0985 20.7503 15 20.7503C14.9014 20.7503 14.8039 20.7309 14.7128 20.6932C14.6218 20.6555 14.539 20.6002 14.4694 20.5306L6.96935 13.0306C6.89962 12.9609 6.8443 12.8782 6.80656 12.7871C6.76882 12.6961 6.74939 12.5985 6.74939 12.4999C6.74939 12.4014 6.76882 12.3038 6.80656 12.2127C6.8443 12.1217 6.89962 12.039 6.96935 11.9693L14.4694 4.4693C14.6101 4.32857 14.801 4.24951 15 4.24951C15.199 4.24951 15.3899 4.32857 15.5306 4.4693C15.6713 4.61003 15.7504 4.80091 15.7504 4.99993C15.7504 5.19895 15.6713 5.38982 15.5306 5.53055L8.56029 12.4999L15.5306 19.4693Z" fill="black"/>
</svg>
