<svg width="20" height="20" viewBox="0 0 20 20" fill="none" xmlns="http://www.w3.org/2000/svg">
<mask id="mask0_1376_805" style="mask-type:luminance" maskUnits="userSpaceOnUse" x="0" y="0" width="19" height="20">
<path d="M18.5417 8.3335H10V11.8752H14.9167C14.4583 14.1252 12.5417 15.4168 10 15.4168C7.00001 15.4168 4.58334 13.0002 4.58334 10.0002C4.58334 7.00016 7.00001 4.5835 10 4.5835C11.2917 4.5835 12.4583 5.04183 13.375 5.79183L16.0417 3.12516C14.4167 1.7085 12.3333 0.833496 10 0.833496C4.91668 0.833496 0.833344 4.91683 0.833344 10.0002C0.833344 15.0835 4.91668 19.1668 10 19.1668C14.5833 19.1668 18.75 15.8335 18.75 10.0002C18.75 9.4585 18.6667 8.87516 18.5417 8.3335Z" fill="white"/>
</mask>
<g mask="url(#mask0_1376_805)">
<path d="M0 15.4168V4.5835L7.08333 10.0002L0 15.4168Z" fill="#FBBC05"/>
</g>
<mask id="mask1_1376_805" style="mask-type:luminance" maskUnits="userSpaceOnUse" x="0" y="0" width="19" height="20">
<path d="M18.5417 8.3335H10V11.8752H14.9167C14.4583 14.1252 12.5417 15.4168 10 15.4168C7.00001 15.4168 4.58334 13.0002 4.58334 10.0002C4.58334 7.00016 7.00001 4.5835 10 4.5835C11.2917 4.5835 12.4583 5.04183 13.375 5.79183L16.0417 3.12516C14.4167 1.7085 12.3333 0.833496 10 0.833496C4.91668 0.833496 0.833344 4.91683 0.833344 10.0002C0.833344 15.0835 4.91668 19.1668 10 19.1668C14.5833 19.1668 18.75 15.8335 18.75 10.0002C18.75 9.4585 18.6667 8.87516 18.5417 8.3335Z" fill="white"/>
</mask>
<g mask="url(#mask1_1376_805)">
<path d="M0 4.58333L7.08333 10L10 7.45833L20 5.83333V0H0V4.58333Z" fill="#EA4335"/>
</g>
<mask id="mask2_1376_805" style="mask-type:luminance" maskUnits="userSpaceOnUse" x="0" y="0" width="19" height="20">
<path d="M18.5417 8.3335H10V11.8752H14.9167C14.4583 14.1252 12.5417 15.4168 10 15.4168C7.00001 15.4168 4.58334 13.0002 4.58334 10.0002C4.58334 7.00016 7.00001 4.5835 10 4.5835C11.2917 4.5835 12.4583 5.04183 13.375 5.79183L16.0417 3.12516C14.4167 1.7085 12.3333 0.833496 10 0.833496C4.91668 0.833496 0.833344 4.91683 0.833344 10.0002C0.833344 15.0835 4.91668 19.1668 10 19.1668C14.5833 19.1668 18.75 15.8335 18.75 10.0002C18.75 9.4585 18.6667 8.87516 18.5417 8.3335Z" fill="white"/>
</mask>
<g mask="url(#mask2_1376_805)">
<path d="M0 15.4167L12.5 5.83333L15.7917 6.25L20 0V20H0V15.4167Z" fill="#34A853"/>
</g>
<mask id="mask3_1376_805" style="mask-type:luminance" maskUnits="userSpaceOnUse" x="0" y="0" width="19" height="20">
<path d="M18.5417 8.3335H10V11.8752H14.9167C14.4583 14.1252 12.5417 15.4168 10 15.4168C7.00001 15.4168 4.58334 13.0002 4.58334 10.0002C4.58334 7.00016 7.00001 4.5835 10 4.5835C11.2917 4.5835 12.4583 5.04183 13.375 5.79183L16.0417 3.12516C14.4167 1.7085 12.3333 0.833496 10 0.833496C4.91668 0.833496 0.833344 4.91683 0.833344 10.0002C0.833344 15.0835 4.91668 19.1668 10 19.1668C14.5833 19.1668 18.75 15.8335 18.75 10.0002C18.75 9.4585 18.6667 8.87516 18.5417 8.3335Z" fill="white"/>
</mask>
<g mask="url(#mask3_1376_805)">
<path d="M20 20.0002L7.08335 10.0002L5.41669 8.75016L20 4.5835V20.0002Z" fill="#4285F4"/>
</g>
</svg>
