<svg width="17" height="16" viewBox="0 0 17 16" fill="none" xmlns="http://www.w3.org/2000/svg">
<g clip-path="url(#clip0_1376_824)">
<path fill-rule="evenodd" clip-rule="evenodd" d="M7.48765 0.585951C7.60105 0.236031 7.92722 -0.000488281 8.29442 -0.000488281C8.66162 -0.000488281 8.9867 0.236031 9.1001 0.585951L10.5224 4.96857C10.5646 5.09709 10.6466 5.20941 10.7557 5.28933C10.8659 5.36925 10.9987 5.41246 11.1337 5.41246L15.7421 5.41029C16.1093 5.41029 16.4344 5.6468 16.5478 5.99672C16.6612 6.34556 16.537 6.7279 16.24 6.9439L12.5118 9.65145C12.4017 9.73137 12.3196 9.84368 12.2774 9.9722C12.2353 10.1018 12.2364 10.2411 12.2774 10.3697L13.7031 14.7512C13.8165 15.1011 13.6922 15.4834 13.3952 15.6994C13.0982 15.9154 12.6954 15.9154 12.3984 15.6994L8.67243 12.9897C8.56227 12.9098 8.4305 12.8666 8.29442 12.8666C8.15834 12.8666 8.02657 12.9098 7.91641 12.9897L4.18935 15.6994C3.89235 15.9154 3.49056 15.9154 3.19356 15.6994C2.89548 15.4834 2.77131 15.1011 2.88579 14.7512L4.31031 10.3697C4.35243 10.2411 4.35243 10.1018 4.31031 9.9722C4.26927 9.84368 4.18718 9.73137 4.07702 9.65145L0.34887 6.9439C0.0518707 6.7279 -0.0734209 6.34556 0.0399791 5.99672C0.154459 5.6468 0.479549 5.41029 0.846749 5.41029L5.45402 5.41246C5.5901 5.41246 5.72294 5.36925 5.83202 5.28933C5.94218 5.20941 6.02427 5.09709 6.06531 4.96857L7.48765 0.585951Z" fill="#F6BB06"/>
</g>
<defs>
<clipPath id="clip0_1376_824">
<rect width="17" height="15.9375" fill="white"/>
</clipPath>
</defs>
</svg>
