<svg width="56" height="56" viewBox="0 0 56 56" fill="none" xmlns="http://www.w3.org/2000/svg">
<path d="M39.7577 3.92645C39.5827 4.03583 37.6687 5.89521 35.5249 8.06083C31.7843 11.8124 31.6093 11.9983 31.6093 12.3921C31.6093 12.928 31.9155 13.2343 32.4515 13.2343C32.8452 13.2343 33.0312 13.0593 36.7171 9.38427L40.578 5.52333L47.3921 12.3374L54.1952 19.1405L41.8905 31.4452L29.5858 43.7499L28.1968 42.3608L26.8077 40.9718L27.1358 40.5561C27.3218 40.3265 27.5624 40.1405 27.6718 40.1405C27.7921 40.1405 28.1312 40.0421 28.4374 39.9218C29.1483 39.6374 29.9796 39.6483 30.7343 39.9327C31.6312 40.2718 31.8827 40.1515 33.228 38.7952C34.2124 37.789 34.3437 37.614 34.3437 37.2749C34.3437 36.7827 33.9718 36.4218 33.4796 36.4218C33.1624 36.4218 32.9655 36.564 32.1671 37.3405C31.3577 38.139 31.1937 38.2483 31.0187 38.1499C30.9093 38.0843 30.439 37.9968 29.9796 37.964L29.1483 37.8983L32.8452 34.1577C36.3124 30.6686 36.5968 30.4171 37.1874 30.1983C40.5124 28.9843 41.978 25.0905 40.3374 21.8311C39.8999 20.9561 38.7515 19.8186 37.8655 19.3702C34.453 17.653 30.4171 19.3702 29.3671 23.0124C29.1593 23.7233 29.1046 24.9046 29.2358 25.7796L29.3124 26.3374L28.9077 26.589C28.678 26.7202 27.4968 27.814 26.2937 29.0061C24.1499 31.1061 24.0733 31.1718 23.6468 31.1718C23.2968 31.1718 23.1108 31.0952 22.8046 30.8327L22.4218 30.4936V28.9952V27.5077L30.6577 19.2718L38.8937 11.0358L39.539 11.2108C40.3593 11.4186 40.7968 11.4186 41.6171 11.2108L42.2624 11.0358L45.4671 14.2405L48.6608 17.4452L48.5077 18.1015C48.2999 18.9436 48.2999 19.3811 48.5077 20.1796L48.6827 20.8249L41.9999 27.5077C37.253 32.2546 35.328 34.2561 35.328 34.4202C35.328 35.0546 35.8968 35.5468 36.4437 35.3827C36.739 35.2952 50.1374 21.9624 50.378 21.5249C50.5749 21.1421 50.5749 20.639 50.3562 20.2233C50.0937 19.6983 50.0499 18.9327 50.2577 18.3749C50.5093 17.6968 50.564 17.3358 50.4765 16.9858C50.3999 16.6468 43.4765 9.61396 42.9624 9.34052C42.5796 9.14365 42.0655 9.14365 41.6608 9.3624C41.1358 9.62489 40.3702 9.66864 39.8124 9.46083C39.1452 9.20927 38.7733 9.15458 38.4233 9.23114C38.2155 9.28583 35.6124 11.8124 30.2749 17.1499L22.4218 24.9921V24.3358V23.6796L26.4687 19.6327L30.5155 15.5858V15.1265C30.5155 14.3718 30.3733 14.328 27.2015 14.0327C23.7999 13.7046 23.1983 13.7374 22.2468 14.2296C21.1968 14.7874 13.7593 20.6827 13.103 21.4921C12.3593 22.3999 12.0093 23.1765 11.3749 25.3202C10.653 27.7374 9.84365 30.0999 9.11084 31.9374L8.52022 33.414L6.75928 35.1749L5.00928 36.9468L4.61553 36.6843C4.18896 36.389 3.24834 36.3233 2.81084 36.5421C2.46084 36.7171 0.338965 38.828 0.153027 39.178C-0.0438477 39.5608 -0.0438477 40.5015 0.153027 40.8843C0.240527 41.0483 2.76709 43.6296 5.76396 46.6155C10.5765 51.4171 11.2655 52.0624 11.6812 52.1718C12.5452 52.3905 12.9062 52.2046 14.3499 50.7827C15.4108 49.7218 15.6405 49.4374 15.739 49.0327C15.8812 48.4749 15.7608 47.8733 15.4218 47.4468L15.214 47.1733L15.8374 46.5718C16.1765 46.2436 16.5812 45.9155 16.7233 45.839C16.8655 45.7624 18.3421 45.2374 20.0155 44.6796C23.1108 43.6405 24.0405 43.2468 24.9812 42.5796L25.5062 42.1968L27.1687 43.8374C28.5249 45.1827 28.8968 45.4999 29.2249 45.5546C30.1546 45.7296 29.4655 46.364 43.0171 32.8343C49.9843 25.8671 55.7593 20.0483 55.8468 19.8843C56.0437 19.5015 56.0437 18.7796 55.8468 18.3968C55.6499 18.0358 41.6062 4.01395 41.2671 3.83895C40.8952 3.65302 40.1296 3.69677 39.7577 3.92645ZM25.8562 15.6515C26.7093 15.7171 27.464 15.7936 27.5515 15.8155C27.6608 15.8483 26.4468 17.139 24.1937 19.3921L20.6718 22.9249V26.8515C20.6718 30.5921 20.6827 30.7999 20.9015 31.2374C21.3608 32.1999 22.4765 32.9108 23.5155 32.9218C24.6968 32.9218 24.7843 32.8671 27.2343 30.4827C29.7827 27.989 30.5155 27.4749 32.3968 26.8186C33.6655 26.3811 35.1968 26.228 35.9187 26.4686C36.3015 26.589 36.7499 27.0702 36.7499 27.3655C36.739 27.7374 36.5858 27.7811 36.0937 27.5296C35.4265 27.2015 34.1358 27.1358 33.3483 27.3983C32.889 27.5515 32.5499 27.803 31.7405 28.5905C31.1608 29.1483 30.614 29.7827 30.5046 30.0233C30.1218 30.8546 30.2968 31.7624 30.9858 32.5499L31.4233 33.053L29.8921 34.5952C29.0499 35.4483 27.7265 36.9577 26.9499 37.9421C24.2921 41.3218 24.1499 41.4202 19.3265 43.0608C17.6312 43.6296 16.0233 44.2202 15.7499 44.3843C15.4765 44.5374 14.9624 44.953 14.6015 45.2921L13.9343 45.9265L10.0843 42.0765L6.23428 38.2265L8.0499 36.4218C9.04521 35.4265 9.93115 34.4858 10.0187 34.3218C10.5765 33.2499 12.2608 28.5468 13.0702 25.7577C13.5843 24.0077 13.8468 23.3952 14.4046 22.6952C14.8421 22.1483 22.1483 16.2858 23.0233 15.7827C23.5265 15.4983 23.7452 15.4874 25.8562 15.6515ZM36.8046 20.814C37.6687 21.2186 38.5108 22.0608 38.9046 22.903C39.178 23.4936 39.2108 23.6905 39.2108 24.664C39.2108 25.6483 39.178 25.8233 38.8937 26.3921C38.5655 27.0702 38.489 27.0811 38.2921 26.4686C38.128 25.9546 37.3624 25.178 36.7499 24.8936C35.689 24.4233 33.3812 24.5655 31.653 25.2108L30.964 25.4733L30.8874 25.0905C30.7124 24.1718 31.1937 22.6843 31.9265 21.853C32.353 21.3718 33.2062 20.803 33.8296 20.6061C34.103 20.5186 34.6499 20.464 35.2187 20.4858C35.9733 20.5077 36.2796 20.5733 36.8046 20.814ZM35.2405 29.0827C35.2843 29.1155 34.7374 29.739 34.0155 30.4608L32.703 31.7624L32.3749 31.4452C32.1999 31.2702 32.0468 31.0515 32.0468 30.953C32.0468 30.7015 33.6983 29.1046 34.0812 28.9843C34.4093 28.8858 35.0983 28.9405 35.2405 29.0827ZM8.89209 43.3999L14.1093 48.6171L13.1468 49.5796L12.1952 50.5311L6.94521 45.2811L1.69521 40.0311L2.6249 39.1015C3.12803 38.5874 3.57646 38.1718 3.60928 38.1718C3.64209 38.1718 6.01553 40.5233 8.89209 43.3999Z" fill="#043353"/>
</svg>
