<svg width="56" height="56" viewBox="0 0 56 56" fill="none" xmlns="http://www.w3.org/2000/svg">
<g clip-path="url(#clip0_801_12194)">
<path d="M4.1018 0.153126C2.34087 0.710938 1.10493 2.19844 0.864302 4.025C0.74399 4.99844 0.74399 39.1016 0.87524 40.075C1.00649 41.1031 1.58618 42.2734 2.29711 42.9078C2.89868 43.4547 3.82837 43.9359 4.48462 44.0344L4.91118 44.1L4.94399 49.0766L4.9768 54.0531L5.33774 54.3703C5.82993 54.8078 6.23461 54.7859 7.3393 54.25C7.84243 54.0094 8.31274 53.8125 8.3893 53.8125C8.46587 53.8125 9.02368 54.0312 9.63618 54.3047C10.2596 54.5781 10.9159 54.7969 11.1346 54.7969C11.3534 54.7969 11.9768 54.5891 12.6002 54.3047C13.2018 54.0312 13.7487 53.8125 13.8362 53.8125C13.9127 53.8125 14.4815 54.0422 15.1049 54.3156C16.4721 54.9172 16.7018 54.9172 18.1237 54.25L19.1299 53.7797L20.169 54.2281C21.4268 54.7859 21.8752 54.8188 22.3237 54.3703L22.6409 54.0531V49.0766V44.1L23.1221 44.0344C24.3909 43.8375 25.7471 42.7328 26.3924 41.3766C26.7315 40.6547 26.7424 40.5891 26.7752 38.8391L26.819 37.0453L27.3331 37.9422C27.6174 38.4344 27.9018 38.8828 27.9674 38.9484C28.044 39.025 28.0112 39.3641 27.869 40.0641C27.5081 41.7484 27.7268 42.7328 28.6346 43.5531C29.2471 44.1 29.9143 44.3297 30.7565 44.275C31.1393 44.2531 31.6096 44.1547 31.8065 44.0453C32.1784 43.8703 32.1784 43.8703 32.4409 44.1875C32.8893 44.7125 33.7643 45.0734 34.5846 45.0734C34.9674 45.0734 35.4159 45.0188 35.5909 44.9531C35.7659 44.8875 35.919 44.8547 35.9299 44.8656C35.9409 44.8875 36.0612 45.1938 36.2034 45.5547C37.1768 48.0813 38.7299 50.3563 40.8081 52.3141C41.7049 53.1672 41.9784 53.5172 42.5909 54.5781C42.9956 55.2672 43.3784 55.8688 43.4549 55.9125C43.5315 55.9563 43.7721 56 43.9909 56C44.4393 56 44.844 55.6172 44.844 55.1906C44.844 55.0594 44.5049 54.3484 44.0784 53.6047C43.3893 52.3797 43.1924 52.1281 41.9565 50.925C39.5721 48.5953 38.1721 46.3094 37.3518 43.4328C36.8924 41.8359 36.7721 40.7422 36.5862 36.9031C36.4768 34.7266 36.3456 33.0422 36.269 32.8125C36.1924 32.6047 35.4815 31.2922 34.6721 29.9141C33.0424 27.1031 32.9112 26.6984 33.3487 25.9984C33.7971 25.2766 34.8143 25.0797 35.4706 25.5938C35.6237 25.7141 36.1487 26.5125 36.6518 27.3656C37.144 28.2297 37.6252 28.9844 37.7237 29.0609C38.2377 29.4656 39.0471 29.0172 39.0471 28.3391C39.0471 27.9125 37.5706 25.2437 36.9799 24.5766C35.4815 22.9031 32.7034 23.2969 31.7081 25.3203C31.3799 25.9766 31.369 26.0859 31.4127 26.95L31.4565 27.8687L33.0424 30.6359C34.5846 33.3594 34.6174 33.425 34.694 34.2344C34.7268 34.6828 34.7706 35.3828 34.7706 35.7875L34.7815 36.5203L33.0643 37.4937C32.1127 38.0297 31.194 38.5 31.0299 38.5438C30.5706 38.6531 29.9471 38.4344 29.5643 38.0406C29.3784 37.8438 27.7706 35.1203 25.9877 31.9922C24.2049 28.8641 22.6627 26.2391 22.5643 26.1625C22.4659 26.0969 22.1924 26.0312 21.9737 26.0312C21.5143 26.0312 21.1096 26.4141 21.1096 26.8406C21.1096 26.9609 21.4268 27.6281 21.8206 28.3172C22.2143 28.9953 22.5315 29.5641 22.5315 29.575C22.5315 29.575 21.7987 29.5859 20.9018 29.5859C19.4252 29.5859 19.2393 29.6078 18.9549 29.8156C18.3643 30.2422 18.2549 30.6359 18.2877 32.1234C18.3206 33.2609 18.3534 33.5016 18.5502 33.7641C18.9659 34.3328 19.3815 34.4531 20.8909 34.4531C23.0346 34.4531 23.4284 34.1469 23.5159 32.3969L23.5706 31.3469L24.3143 32.6594L25.0581 33.9609L25.0252 37.1328C24.9924 40.7203 24.9815 40.775 24.0627 41.6062C23.144 42.4375 23.8002 42.3828 14.0659 42.4156C4.39711 42.4484 4.63774 42.4594 3.69711 41.7484C3.4018 41.5297 3.10649 41.1469 2.89868 40.7422L2.57055 40.0969V22.05V3.99219L2.8768 3.36875C3.21586 2.66875 3.64243 2.26406 4.37524 1.925C4.85649 1.69531 4.96586 1.69531 13.7815 1.69531H22.6956L23.2752 1.95781C23.6034 2.11094 24.0299 2.42813 24.2815 2.70156C25.0143 3.54375 25.0581 3.78437 25.0252 7.49219L24.9924 10.7625L24.2815 11.1781L23.5706 11.5828L23.5159 9.31875C23.4721 7.36094 23.4284 7 23.2643 6.7375C22.8487 6.11406 23.0784 6.125 13.7706 6.125C4.41899 6.125 4.74711 6.10313 4.29868 6.75938C4.12368 7.02188 4.1018 7.30625 4.1018 9.22031V11.3969L4.40805 11.6594C4.77993 11.9766 5.12993 11.9984 5.51274 11.6922L5.79711 11.4734V9.66875V7.875H13.7815H21.7659V10.2484L21.7549 12.6328L19.7315 13.7812C17.4565 15.0609 16.8877 15.5531 16.5596 16.5484C16.3518 17.1391 16.3081 18.0906 16.4393 18.6156L16.5159 18.9219H11.1565H5.79711V16.5156C5.79711 14.2516 5.78618 14.0984 5.57836 13.8906C5.29399 13.6063 4.67055 13.5953 4.38618 13.8797C4.05805 14.2078 4.02524 14.6125 4.06899 17.3141C4.1018 19.6219 4.11274 19.7969 4.33149 20.0922C4.76899 20.6828 4.61586 20.6719 11.2768 20.6719H17.4565L18.4299 22.3891C19.5893 24.4344 19.8737 24.7734 20.3659 24.675C20.869 24.5766 21.1096 24.3141 21.1096 23.8547C21.1096 23.5484 20.7924 22.9031 19.6768 20.9781C18.9002 19.6109 18.2112 18.3312 18.1565 18.1344C18.0143 17.675 18.1893 17.0297 18.5721 16.625C19.0315 16.1219 32.2221 8.62969 32.7581 8.56406C33.3377 8.4875 33.9174 8.73906 34.2674 9.19844C34.8362 9.96406 45.4893 28.7547 45.5549 29.1266C45.6534 29.6187 45.3143 30.3953 44.8877 30.7016C44.7127 30.8219 43.9252 31.2922 43.1268 31.7516L41.6831 32.5828L41.1252 31.6094C40.819 31.0844 40.5018 30.6141 40.4034 30.5813C39.8346 30.3625 39.2221 30.6469 39.1018 31.1828C39.0362 31.4672 39.1893 31.7953 40.2502 33.6656C40.9284 34.8469 41.5627 35.875 41.6612 35.9516C41.869 36.1156 42.3831 36.1375 42.6565 35.9844C42.7659 35.9297 42.9081 35.7219 42.9737 35.525C43.0831 35.2188 43.0612 35.0984 42.8424 34.65L42.5799 34.1141L43.3565 33.6656C46.3206 31.9594 46.4737 31.85 46.9112 31.0188C47.0315 30.7781 47.1955 30.3188 47.2612 30.0016C47.4799 29.0609 47.2831 28.3062 46.4299 26.8078C45.8612 25.8016 45.7737 25.5938 46.0143 25.8234C46.1784 25.9766 47.0862 26.7422 48.0159 27.5297C48.9455 28.3172 49.9737 29.2906 50.2909 29.6844C51.7346 31.4563 52.5987 33.5016 52.8393 35.7109C52.9596 36.8484 52.9487 37.1438 52.5112 41.5078C52.2487 44.0344 52.0409 46.3203 52.0299 46.5938C52.019 47.0203 52.1284 47.2828 52.8174 48.4531C53.244 49.2078 53.6815 49.8859 53.7799 49.9625C54.0424 50.1594 54.6221 50.1266 54.9065 49.8969C55.333 49.5578 55.2346 49.0656 54.458 47.7312L53.769 46.5391L54.2502 41.7375C54.7096 37.1766 54.7206 36.8703 54.6002 35.6672C54.3268 32.9547 53.3534 30.6031 51.6581 28.525C51.0018 27.7156 50.3893 27.1797 46.0471 23.5266L43.1596 21.0875L39.4627 14.6234C37.4393 11.0797 35.6127 8.00625 35.4159 7.79844C34.5846 6.94531 33.119 6.57344 31.9268 6.93438C31.5987 7.03281 30.3299 7.68906 29.094 8.41094L26.8518 9.70156L26.7862 6.62812C26.7534 4.82344 26.6768 3.4125 26.6112 3.20469C26.1956 2.00156 25.2331 0.929688 24.0846 0.360939L23.4612 0.0546875L14.0002 0.032814C6.57368 0.0218773 4.44087 0.0437508 4.1018 0.153126ZM21.7659 31.9922V32.7031H20.8909H20.0159V31.9922V31.2812H20.8909H21.7659V31.9922ZM34.9893 40.0641C35.0659 40.8953 35.1862 41.9125 35.2737 42.3063C35.4049 42.9734 35.4049 43.05 35.2409 43.1484C34.694 43.4656 34.0924 43.3781 33.7206 42.9078C33.4034 42.5141 33.4034 42.2734 33.7643 40.4688C34.0596 38.9813 34.0596 38.9703 34.4424 38.7516C34.6612 38.6422 34.8471 38.5438 34.8471 38.5438C34.8581 38.5547 34.9237 39.2328 34.9893 40.0641ZM31.3581 40.2609C31.6971 40.1953 31.9924 40.1516 32.0034 40.1734C32.0581 40.2281 31.719 41.7375 31.5877 41.9781C31.2815 42.5688 30.4065 42.7109 29.8815 42.2734C29.4659 41.9234 29.3674 41.5188 29.5315 40.7641L29.6518 40.1734L30.1987 40.2828C30.5706 40.3594 30.9315 40.3484 31.3581 40.2609ZM20.8909 48.3984V52.5984L20.1362 52.2812C19.7096 52.0953 19.2393 51.9531 19.0862 51.9531C18.9331 51.9531 18.2987 52.1938 17.6752 52.4781L16.5596 53.0141L15.3565 52.4891C14.7002 52.1938 14.0112 51.9641 13.8252 51.9531C13.6393 51.9531 12.9502 52.1938 12.3159 52.4891L11.1456 53.025L9.89868 52.4891C9.22055 52.1938 8.52055 51.9531 8.34555 51.9531C8.18149 51.9531 7.73305 52.0953 7.36118 52.2812L6.67211 52.5984V48.3984V44.1875H13.7815H20.8909V48.3984Z" fill="#043353"/>
<path d="M28.6125 13.7266C26.9391 14.1531 25.2438 15.5094 24.511 17.0078C24.0297 17.9922 23.9422 18.7797 24.2704 19.0859C24.5875 19.3594 25.211 19.3594 25.4735 19.0859C25.5829 18.9656 25.7579 18.6375 25.8563 18.3422C26.6219 16.2531 28.9297 14.9516 31.0516 15.4109C31.7407 15.5531 32.1344 15.4219 32.3532 14.9516C32.5719 14.5031 32.3969 14.0984 31.8938 13.8469C31.336 13.5734 29.4985 13.5078 28.6125 13.7266Z" fill="#043353"/>
<path d="M29.1925 16.986C28.5144 17.2376 28.0112 17.6095 27.6831 18.0907C26.9284 19.1954 27.0925 20.147 28.055 20.147C28.5362 20.147 28.7331 19.9938 28.9519 19.447C29.1925 18.8563 29.6737 18.5938 30.4503 18.6267C31.019 18.6485 31.1065 18.6157 31.3472 18.3423C31.6753 17.9595 31.6862 17.5985 31.3581 17.2157C31.1394 16.9642 31.0081 16.9204 30.3409 16.8876C29.8706 16.8548 29.4331 16.8985 29.1925 16.986Z" fill="#043353"/>
<path d="M30.2206 19.9063C29.6846 20.1251 29.5971 20.836 30.0346 21.4704C30.4612 22.1047 31.0299 22.2251 31.5331 21.7876C32.0799 21.3063 31.3581 19.7641 30.5924 19.8079C30.5159 19.8079 30.3518 19.8516 30.2206 19.9063Z" fill="#043353"/>
<path d="M5.18437 23.4172C4.76875 23.5375 4.2875 23.9969 4.17813 24.3797C4.13437 24.5328 4.10156 25.2 4.10156 25.8672C4.10156 26.9281 4.13437 27.1141 4.35313 27.4641C4.71406 28.0656 5.21719 28.2188 6.74844 28.2188C7.79844 28.2188 8.10469 28.175 8.47656 28C9.19844 27.65 9.29688 27.3656 9.29688 25.7141V24.2922L8.95781 23.9094C8.77187 23.6906 8.44375 23.4719 8.225 23.4062C7.73281 23.275 5.65469 23.275 5.18437 23.4172ZM7.54688 25.7578V26.4688H6.67188H5.79688V25.7578V25.0469H6.67188H7.54688V25.7578Z" fill="#043353"/>
<path d="M12.0859 23.4937C11.3094 23.8547 11.2109 24.1281 11.2109 25.7578C11.2109 27.0484 11.2328 27.2125 11.4516 27.5187C11.8672 28.0984 12.2719 28.2188 13.8031 28.2188C15.3344 28.2188 15.7391 28.0875 16.1547 27.4641C16.3844 27.125 16.4062 26.9609 16.4062 25.7687C16.4062 24.3141 16.2859 23.9422 15.6734 23.5484C15.2141 23.2422 12.6984 23.2094 12.0859 23.4937ZM14.6562 25.7578V26.4687H13.7812H12.9062V25.7578V25.0469H13.7812H14.6562V25.7578Z" fill="#043353"/>
<path d="M4.97656 29.75C4.24375 30.1109 4.10156 30.4609 4.10156 31.9922C4.10156 33.5234 4.24375 33.8734 4.97656 34.2344C5.34844 34.4203 5.65469 34.4531 6.72656 34.4531C7.79844 34.4531 8.10469 34.4203 8.47656 34.2344C9.1875 33.8844 9.29688 33.6 9.29688 31.9922C9.29688 30.3844 9.1875 30.1 8.47656 29.75C7.82031 29.4328 5.61094 29.4328 4.97656 29.75ZM7.54688 31.9922V32.7031H6.67188H5.79688V31.9922V31.2812H6.67188H7.54688V31.9922Z" fill="#043353"/>
<path d="M12.0422 29.7719C11.3094 30.1547 11.1562 30.5375 11.1562 31.9703C11.1562 33.3266 11.2984 33.7532 11.8562 34.1578C12.1625 34.3766 12.3484 34.3985 13.6719 34.4313C15.3453 34.4641 15.7172 34.3657 16.1547 33.6985C16.3844 33.3594 16.4062 33.1953 16.4062 32.0032C16.4062 30.8875 16.3734 30.625 16.1875 30.3297C15.7937 29.6844 15.5312 29.586 13.9453 29.5532C12.6328 29.5203 12.4906 29.5422 12.0422 29.7719ZM14.6562 31.9922V32.7032H13.7812H12.9062V31.9922V31.2813H13.7812H14.6562V31.9922Z" fill="#043353"/>
<path d="M4.97656 35.9844C4.24375 36.3453 4.10156 36.6953 4.10156 38.2266C4.10156 39.7578 4.24375 40.1078 4.97656 40.4688C5.34844 40.6547 5.65469 40.6875 6.72656 40.6875C7.79844 40.6875 8.10469 40.6547 8.47656 40.4688C9.1875 40.1188 9.29688 39.8344 9.29688 38.2266C9.29688 36.6188 9.1875 36.3344 8.47656 35.9844C7.82031 35.6672 5.61094 35.6672 4.97656 35.9844ZM7.54688 38.2266V38.9375H6.67188H5.79688V38.2266V37.5156H6.67188H7.54688V38.2266Z" fill="#043353"/>
<path d="M12.305 35.8422C11.9221 35.9407 11.5175 36.2907 11.3206 36.7063C11.0581 37.2641 11.1237 39.5063 11.4081 39.9438C11.8237 40.5453 12.0753 40.6328 13.6721 40.6657C15.3456 40.6985 15.7175 40.6 16.155 39.9328C16.3846 39.5938 16.4065 39.4297 16.4065 38.2266C16.4065 37.0235 16.3846 36.8594 16.155 36.5203C15.7393 35.8969 15.3346 35.7657 13.8362 35.7766C13.1143 35.7875 12.4253 35.8203 12.305 35.8422ZM14.6565 38.2266V38.9375H13.7815H12.9065V38.2266V37.5157H13.7815H14.6565V38.2266Z" fill="#043353"/>
<path d="M19.3156 35.875C18.5062 36.1266 18.2656 36.6734 18.2656 38.2484C18.2656 39.5609 18.4078 39.9984 18.9547 40.4031C19.2391 40.6109 19.425 40.6328 20.8906 40.6328C22.7172 40.6328 22.9469 40.5562 23.3187 39.8016C23.5922 39.2656 23.5922 37.1875 23.3187 36.6516C22.9578 35.9188 22.6844 35.8203 21.0766 35.7984C20.2781 35.7875 19.4906 35.8203 19.3156 35.875ZM21.7656 38.2266V38.9375H20.8906H20.0156V38.2266V37.5156H20.8906H21.7656V38.2266Z" fill="#043353"/>
</g>
<defs>
<clipPath id="clip0_801_12194">
<rect width="56" height="56" fill="white"/>
</clipPath>
</defs>
</svg>
