<svg width="56" height="56" viewBox="0 0 56 56" fill="none" xmlns="http://www.w3.org/2000/svg">
<path d="M6.17969 0.153206C4.32031 0.743832 2.85469 2.34071 2.51562 4.14539C2.46094 4.46258 2.40625 5.98289 2.40625 7.5032C2.40625 10.1391 2.41719 10.2923 2.625 10.5001C2.8875 10.7626 3.57656 10.7954 3.89375 10.5657C4.09062 10.4235 4.10156 10.2157 4.15625 7.36102L4.21094 4.32039L4.51719 3.69696C4.87812 2.96414 5.50156 2.37352 6.33281 1.97977L6.94531 1.69539H19.3594H31.7734L32.5063 2.05633C33.3047 2.45008 33.8625 3.00789 34.2563 3.81727C34.4859 4.27664 34.5078 4.49539 34.5406 6.47508L34.5844 8.64071H34.0266H33.4688V6.74852C33.4688 4.64852 33.3922 4.21102 32.9 3.65321C32.2109 2.87664 32.0578 2.84383 28.9844 2.84383C25.9 2.84383 25.7469 2.87664 25.3859 3.58758C25.2766 3.80633 25.0906 4.27664 24.9812 4.6157L24.7844 5.25008H19.3594H13.9344L13.7375 4.6157C13.6281 4.27664 13.4422 3.80633 13.3328 3.58758C12.9719 2.87664 12.8187 2.84383 9.73438 2.84383C7.22969 2.84383 6.95625 2.8657 6.57344 3.05164C6.02656 3.33602 5.5125 3.93758 5.37031 4.45164C5.20625 5.03133 5.20625 50.9688 5.37031 51.5485C5.5125 52.0626 6.02656 52.6641 6.57344 52.9485C6.97813 53.1454 7.32812 53.1563 19.3594 53.1563C31.3906 53.1563 31.7406 53.1454 32.1453 52.9485C32.6922 52.6641 33.2062 52.0626 33.3484 51.5485C33.4141 51.3188 33.4688 50.4001 33.4688 49.5141C33.4688 47.9391 33.4578 47.8845 33.1953 47.6329C32.8453 47.272 32.3422 47.272 31.9922 47.6329C31.7297 47.8845 31.7188 47.9501 31.7188 49.4704C31.7188 50.936 31.6969 51.0563 31.4891 51.2532C31.2703 51.4501 30.9094 51.461 19.3594 51.461C7.80937 51.461 7.44844 51.4501 7.22969 51.2532L7 51.0454V28.0001V4.95477L7.22969 4.74696C7.4375 4.56102 7.64531 4.53914 9.65781 4.53914H11.8453L12.0969 5.30477C12.4469 6.34383 12.5781 6.56258 12.9609 6.8032C13.2672 6.98914 13.6609 7.00008 19.3594 7.00008C25.0578 7.00008 25.4516 6.98914 25.7578 6.8032C26.1406 6.56258 26.2719 6.34383 26.6219 5.30477L26.8734 4.53914H29.0609C31.9375 4.53914 31.7188 4.35321 31.7188 6.79227V8.64071L21.8531 8.66258C12.4688 8.69539 11.9547 8.70633 11.5938 8.90321C11.0578 9.18758 10.4125 9.82196 10.1391 10.336L9.89844 10.7735V22.6407V34.5079L10.1391 34.9454C10.4125 35.4595 11.0578 36.0938 11.5938 36.3782C11.9547 36.5751 12.4688 36.586 21.8531 36.6188L31.7188 36.6407V40.6985V44.7454L31.9922 45.0079C32.3422 45.3688 32.8453 45.3688 33.1953 45.0079L33.4688 44.7454V40.6876V36.6407H34.0156H34.5734L34.5406 44.1548L34.5078 51.6798L34.2563 52.1829C33.6766 53.3641 32.7469 54.0423 31.4344 54.2501C30.9203 54.3266 26.8734 54.3595 18.8125 54.3376L6.94531 54.3048L6.2125 53.9438C5.41406 53.5501 4.85625 52.9923 4.4625 52.1829L4.21094 51.6798L4.15625 32.5063L4.10156 13.322L3.83906 13.1141C3.48906 12.8298 2.99687 12.8516 2.67969 13.1798L2.40625 13.4423V32.3532C2.40625 44.5704 2.45 51.472 2.51562 51.8548C2.8 53.397 3.9375 54.8188 5.43594 55.5407L6.28906 55.9454L19.1625 55.9782C31.9812 56.0001 32.0469 56.0001 32.725 55.7704C33.9609 55.3548 34.9016 54.6001 35.5906 53.4516C36.3016 52.2485 36.3125 52.1501 36.3125 43.9798V36.6516L43.8922 36.6188C51.4172 36.586 51.4609 36.586 51.8984 36.3454C52.4125 36.072 53.0469 35.4266 53.3312 34.8907C53.5281 34.5188 53.5391 34.0048 53.5391 22.6407C53.5391 11.2766 53.5281 10.7626 53.3312 10.3907C53.0469 9.85477 52.4125 9.20945 51.8984 8.93602C51.4937 8.70633 51.2859 8.69539 48.7703 8.66258C46.2437 8.62977 46.0687 8.64071 45.8281 8.83758C45.6203 9.00164 45.5547 9.16571 45.5547 9.50477C45.5547 10.3141 45.5984 10.3251 48.5078 10.3907L51.0781 10.4454L51.4281 10.8063L51.7891 11.1563V22.6407V34.1251L51.4281 34.4751L51.0781 34.836H31.7188H12.3594L12.0094 34.486C11.6922 34.1688 11.6484 34.0485 11.6156 33.3704L11.5719 32.6048L16.3625 32.572C21 32.5391 21.1859 32.5282 21.7437 32.2985C22.6187 31.9485 23.2312 31.3798 23.625 30.5923C24.6531 28.4813 23.6906 26.0313 21.5688 25.3751C20.9125 25.1673 20.5406 25.1563 16.2312 25.1563H11.5938L11.6156 18.1563L11.6484 11.1563L12.0094 10.8063L12.3594 10.4454L27.6828 10.3907L43.0062 10.336L43.2141 10.0735C43.4984 9.72352 43.4766 9.23133 43.1484 8.91414L42.8859 8.64071H39.5938H36.3125V6.66102C36.3125 4.35321 36.1594 3.51102 35.5906 2.54852C34.9016 1.40008 33.9609 0.645393 32.725 0.229767C32.0578 8.01086e-05 31.9266 8.01086e-05 19.3375 0.0110168C9.37344 0.0110168 6.51875 0.0438309 6.17969 0.153206ZM21.175 27.1141C22.2687 27.6063 22.6187 28.9407 21.9297 29.9798C21.4047 30.7891 21.3937 30.7891 16.2203 30.822L11.5938 30.8548V28.8751V26.9063H16.1656C20.3656 26.9063 20.7594 26.9282 21.175 27.1141Z" fill="#043353"/>
<path d="M15.5531 13.125C15.3562 13.2453 15.1047 13.4969 14.9844 13.6937C14.7875 14.0219 14.7656 14.2516 14.7656 16.625C14.7656 18.9984 14.7875 19.2281 14.9844 19.5563C15.1047 19.7531 15.3562 20.0047 15.5531 20.125C15.8922 20.3328 16.1109 20.3438 19.6875 20.3438C23.2641 20.3438 23.4828 20.3328 23.8219 20.125C24.0188 20.0047 24.2703 19.7531 24.3906 19.5563C24.5875 19.2281 24.6094 18.9984 24.6094 16.625C24.6094 14.2516 24.5875 14.0219 24.3906 13.6937C24.2703 13.4969 24.0188 13.2453 23.8219 13.125C23.4828 12.9172 23.2641 12.9062 19.6875 12.9062C16.1109 12.9062 15.8922 12.9172 15.5531 13.125ZM22.8594 16.625V18.5938H19.6875H16.5156V16.625V14.6562H19.6875H22.8594V16.625Z" fill="#043353"/>
<path d="M30.3297 15.0064C30.0234 15.1596 29.8594 15.6299 29.8594 16.4064C29.8594 17.1502 30.0234 17.6861 30.2969 17.8283C30.6469 18.0142 31.1172 17.9486 31.3687 17.6861C31.5766 17.4564 31.6094 17.3142 31.6094 16.3846C31.6094 15.3783 31.5984 15.3236 31.325 15.1049C31.0078 14.8533 30.7016 14.8205 30.3297 15.0064Z" fill="#043353"/>
<path d="M34.4422 15.0829C34.2016 15.2798 34.1797 15.3673 34.1797 16.4064C34.1797 17.4454 34.2016 17.5329 34.4422 17.7298C34.7703 18.0032 35.2297 17.9923 35.5906 17.7079C35.8641 17.4892 35.875 17.4454 35.875 16.4064C35.875 15.3673 35.8641 15.3235 35.5906 15.1048C35.2297 14.8204 34.7703 14.8095 34.4422 15.0829Z" fill="#043353"/>
<path d="M37.5812 15.1048C37.3078 15.3236 37.2969 15.3783 37.2969 16.3955C37.2969 17.3689 37.3187 17.4783 37.5484 17.697C38.0188 18.1345 38.7188 17.9705 38.9266 17.3798C39.0797 16.9423 39.0797 15.8814 38.9375 15.4548C38.7297 14.8861 38.0734 14.7111 37.5812 15.1048Z" fill="#043353"/>
<path d="M43.6953 15.1484C43.4437 15.3891 43.4219 15.4984 43.4219 16.4062C43.4219 17.3141 43.4437 17.4234 43.6953 17.6641C43.8594 17.8391 44.0891 17.9375 44.2969 17.9375C44.5047 17.9375 44.7344 17.8391 44.8984 17.6641C45.15 17.4234 45.1719 17.3141 45.1719 16.4062C45.1719 15.4984 45.15 15.3891 44.8984 15.1484C44.7344 14.9734 44.5047 14.875 44.2969 14.875C44.0891 14.875 43.8594 14.9734 43.6953 15.1484Z" fill="#043353"/>
<path d="M46.6484 15.1484C46.3969 15.389 46.375 15.4984 46.375 16.45C46.375 17.4343 46.3859 17.489 46.6594 17.7078C47.0531 18.025 47.5234 18.0031 47.8625 17.664C48.1359 17.3906 48.1469 17.3359 48.1031 16.3406C48.0703 15.4 48.0484 15.2687 47.8078 15.0828C47.4578 14.7984 46.9656 14.8203 46.6484 15.1484Z" fill="#043353"/>
<path d="M33.0969 25.0907L32.8125 25.3642V28.8423C32.8125 32.6595 32.8234 32.7251 33.4578 32.8673C33.8734 32.9548 34.3984 32.6923 34.4969 32.3532C34.5297 32.211 34.5625 31.6751 34.5625 31.161V30.2204L35.3391 30.1439C36.6297 30.0235 37.2969 29.6517 37.7781 28.7767C38.3031 27.7923 38.1609 26.436 37.4281 25.6704C36.8266 25.0251 36.3891 24.8939 34.8141 24.8501C33.3922 24.8064 33.3703 24.8064 33.0969 25.0907ZM36.05 26.8298C36.4438 27.1689 36.4547 27.6939 36.0719 28.0657C35.875 28.2735 35.6453 28.361 35.1859 28.4048L34.5625 28.4704V27.5189V26.5782H35.1531C35.6234 26.5782 35.8203 26.6329 36.05 26.8298Z" fill="#043353"/>
<path d="M40.1516 25.0142C39.8891 25.2329 37.4062 31.5876 37.4062 32.047C37.4062 32.6704 38.0297 33.0532 38.6203 32.8126C38.8281 32.7251 38.9922 32.5064 39.2 32.0361L39.4734 31.3907H40.7859H42.0875L42.2844 31.9486C42.6125 32.8673 43.2031 33.1517 43.7937 32.6923C44.0125 32.5282 44.0781 32.3751 44.0781 32.0689C44.0781 31.4454 41.7484 25.3861 41.3984 25.0689C41.0484 24.7736 40.4797 24.7517 40.1516 25.0142ZM41.1031 28.7986C41.2344 29.1595 41.3438 29.4876 41.3438 29.5423C41.3438 29.597 41.0703 29.6407 40.7313 29.6407C40.3922 29.6407 40.1406 29.597 40.1625 29.5532C40.1844 29.5095 40.3156 29.1376 40.4578 28.7329C40.6109 28.3282 40.7641 28.0329 40.7969 28.0767C40.8406 28.1314 40.9719 28.4486 41.1031 28.7986Z" fill="#043353"/>
<path d="M43.6625 25.0798C43.225 25.5392 43.3343 25.9001 44.4062 27.5407L45.3906 29.061V30.5814C45.3906 31.4126 45.4234 32.211 45.4562 32.3532C45.5547 32.6923 46.0797 32.9548 46.4953 32.8673C47.064 32.736 47.1406 32.4954 47.1406 30.7126V29.1048L48.125 27.5954C49.2406 25.8782 49.35 25.4735 48.825 25.0579C48.2015 24.5657 47.8078 24.7954 46.9218 26.1735L46.2875 27.1689L45.5765 26.0642C45.1828 25.4626 44.7781 24.9376 44.6797 24.8939C44.3078 24.7517 43.8922 24.8282 43.6625 25.0798Z" fill="#043353"/>
<path d="M14.0219 40.0205C13.2234 40.2939 12.6875 40.7533 12.3047 41.508C12.0203 42.0549 11.9766 42.2736 11.9766 42.9846C11.9766 43.6955 12.0203 43.9143 12.3047 44.4611C12.6984 45.2268 13.3219 45.7518 14.1312 45.9924C14.9625 46.233 23.7562 46.233 24.5875 45.9924C25.3969 45.7518 26.0203 45.2268 26.4141 44.4611C26.6984 43.9143 26.7422 43.6955 26.7422 42.9846C26.7422 42.2736 26.6984 42.0549 26.4141 41.508C26.2063 41.1033 25.9109 40.7205 25.6156 40.5018C24.7406 39.8346 24.5328 39.8127 19.3156 39.8127C15.0391 39.8236 14.5469 39.8346 14.0219 40.0205ZM24.2703 41.7596C24.6859 41.9783 25.0469 42.558 25.0469 42.9846C25.0469 43.4111 24.6859 43.9908 24.2703 44.2096C23.9312 44.3955 23.5484 44.4064 19.3594 44.4064C14.2844 44.4064 14.2844 44.4064 13.8687 43.6299C13.6172 43.1596 13.6172 42.8096 13.8687 42.3393C14.2844 41.5627 14.2844 41.5627 19.3594 41.5627C23.5484 41.5627 23.9312 41.5736 24.2703 41.7596Z" fill="#043353"/>
</svg>
