<svg width="32" height="32" viewBox="0 0 32 32" fill="none" xmlns="http://www.w3.org/2000/svg">
<rect width="32" height="32" rx="8" fill="white"/>
<path d="M13.2754 18.2773L18.2754 13.2773C18.3626 13.1901 18.4662 13.1209 18.5801 13.0737C18.6941 13.0265 18.8162 13.0022 18.9395 13.0022C19.0628 13.0022 19.185 13.0265 19.2989 13.0737C19.4128 13.1209 19.5164 13.1901 19.6036 13.2773C19.6908 13.3645 19.76 13.468 19.8071 13.5819C19.8543 13.6959 19.8786 13.818 19.8786 13.9413C19.8786 14.0647 19.8543 14.1868 19.8071 14.3007C19.76 14.4147 19.6908 14.5182 19.6036 14.6054L14.6036 19.6054C14.4274 19.7815 14.1886 19.8805 13.9395 19.8805C13.6904 19.8805 13.4516 19.7815 13.2754 19.6054C13.0993 19.4293 13.0004 19.1904 13.0004 18.9413C13.0004 18.6923 13.0993 18.4534 13.2754 18.2773ZM23.5098 9.37102C22.6299 8.49307 21.4376 8 20.1946 8C18.9516 8 17.7593 8.49307 16.8793 9.37102L14.5262 11.7218C14.3501 11.8979 14.2512 12.1368 14.2512 12.3859C14.2512 12.5092 14.2755 12.6313 14.3226 12.7453C14.3698 12.8592 14.439 12.9627 14.5262 13.0499C14.6134 13.1371 14.717 13.2063 14.8309 13.2535C14.9448 13.3007 15.067 13.325 15.1903 13.325C15.4394 13.325 15.6782 13.226 15.8544 13.0499L18.2036 10.7015C18.7311 10.1739 19.4466 9.87739 20.1927 9.87732C20.9389 9.87725 21.6544 10.1736 22.1821 10.7011C22.7097 11.2286 23.0062 11.9442 23.0063 12.6903C23.0063 13.4364 22.71 14.152 22.1825 14.6796L19.8301 17.0273C19.7429 17.1145 19.6737 17.218 19.6266 17.3319C19.5794 17.4459 19.5551 17.568 19.5551 17.6913C19.5551 17.8147 19.5794 17.9368 19.6266 18.0507C19.6737 18.1647 19.7429 18.2682 19.8301 18.3554C19.9173 18.4426 20.0209 18.5118 20.1348 18.559C20.2487 18.6062 20.3709 18.6305 20.4942 18.6305C20.6175 18.6305 20.7396 18.6062 20.8536 18.559C20.9675 18.5118 21.071 18.4426 21.1583 18.3554L23.5083 16.007C24.3867 15.1265 24.8798 13.9334 24.8793 12.6897C24.8789 11.446 24.3849 10.2532 23.5059 9.37337L23.5098 9.37102ZM17.027 19.8304L14.6778 22.1804C14.4165 22.4416 14.1064 22.6488 13.765 22.7901C13.4237 22.9315 13.0579 23.0042 12.6884 23.0042C12.319 23.0041 11.9532 22.9313 11.6119 22.7899C11.2706 22.6485 10.9605 22.4413 10.6993 22.18C10.1717 21.6524 9.87542 20.9368 9.87549 20.1907C9.87556 19.4446 10.172 18.729 10.6997 18.2015L13.0481 15.8523C13.1353 15.7651 13.2045 15.6615 13.2517 15.5476C13.2989 15.4337 13.3232 15.3115 13.3232 15.1882C13.3232 15.0649 13.2989 14.9428 13.2517 14.8288C13.2045 14.7149 13.1353 14.6114 13.0481 14.5241C12.9609 14.4369 12.8574 14.3678 12.7434 14.3206C12.6295 14.2734 12.5074 14.2491 12.384 14.2491C12.2607 14.2491 12.1386 14.2734 12.0246 14.3206C11.9107 14.3678 11.8072 14.4369 11.72 14.5241L9.3731 16.8757C8.93774 17.3111 8.5924 17.828 8.3568 18.3969C8.12121 18.9658 7.99996 19.5755 8 20.1912C8.00007 21.4347 8.49413 22.6273 9.37349 23.5066C10.2528 24.3858 11.4455 24.8797 12.689 24.8797C13.9325 24.8796 15.1251 24.3855 16.0043 23.5062L18.3528 21.157C18.5289 20.9808 18.6279 20.742 18.6279 20.4929C18.6279 20.2438 18.5289 20.005 18.3528 19.8288C18.1767 19.6527 17.9378 19.5538 17.6887 19.5538C17.4397 19.5538 17.2008 19.6527 17.0247 19.8288L17.027 19.8304Z" fill="#043353"/>
</svg>
