<svg width="15" height="16" viewBox="0 0 15 16" fill="none" xmlns="http://www.w3.org/2000/svg">
<g clip-path="url(#clip0_1131_1120)">
<path d="M14.7656 8C14.7656 3.98633 11.5137 0.734375 7.5 0.734375C3.48633 0.734375 0.234375 3.98633 0.234375 8C0.234375 11.6264 2.89131 14.6322 6.36475 15.1777V10.1003H4.51904V8H6.36475V6.39922C6.36475 4.57842 7.44873 3.57266 9.10898 3.57266C9.9041 3.57266 10.7355 3.71445 10.7355 3.71445V5.50156H9.81914C8.9168 5.50156 8.63525 6.06172 8.63525 6.63623V8H10.6503L10.328 10.1003H8.63525V15.1777C12.1087 14.6322 14.7656 11.6264 14.7656 8Z" fill="white"/>
</g>
<defs>
<clipPath id="clip0_1131_1120">
<rect width="15" height="15" fill="white" transform="translate(0 0.5)"/>
</clipPath>
</defs>
</svg>
