<svg width="15" height="16" viewBox="0 0 15 16" fill="none" xmlns="http://www.w3.org/2000/svg">
<path d="M7.50293 4.6311C5.63965 4.6311 4.13672 6.13403 4.13672 7.99731C4.13672 9.8606 5.63965 11.3635 7.50293 11.3635C9.36621 11.3635 10.8691 9.8606 10.8691 7.99731C10.8691 6.13403 9.36621 4.6311 7.50293 4.6311ZM7.50293 10.1858C6.29883 10.1858 5.31445 9.20435 5.31445 7.99731C5.31445 6.79028 6.2959 5.80884 7.50293 5.80884C8.70996 5.80884 9.69141 6.79028 9.69141 7.99731C9.69141 9.20435 8.70703 10.1858 7.50293 10.1858ZM11.792 4.49341C11.792 4.92993 11.4404 5.27856 11.0068 5.27856C10.5703 5.27856 10.2217 4.927 10.2217 4.49341C10.2217 4.05981 10.5732 3.70825 11.0068 3.70825C11.4404 3.70825 11.792 4.05981 11.792 4.49341ZM14.0215 5.29028C13.9717 4.23853 13.7314 3.30688 12.9609 2.53931C12.1934 1.77173 11.2617 1.53149 10.21 1.47876C9.12598 1.41724 5.87695 1.41724 4.79297 1.47876C3.74414 1.52856 2.8125 1.7688 2.04199 2.53638C1.27148 3.30396 1.03418 4.2356 0.981445 5.28735C0.919922 6.37134 0.919922 9.62036 0.981445 10.7043C1.03125 11.7561 1.27148 12.6877 2.04199 13.4553C2.8125 14.2229 3.74121 14.4631 4.79297 14.5159C5.87695 14.5774 9.12598 14.5774 10.21 14.5159C11.2617 14.4661 12.1934 14.2258 12.9609 13.4553C13.7285 12.6877 13.9688 11.7561 14.0215 10.7043C14.083 9.62036 14.083 6.37427 14.0215 5.29028ZM12.6211 11.8674C12.3926 12.4417 11.9502 12.884 11.373 13.1155C10.5088 13.4583 8.45801 13.3792 7.50293 13.3792C6.54785 13.3792 4.49414 13.4553 3.63281 13.1155C3.05859 12.887 2.61621 12.4446 2.38477 11.8674C2.04199 11.0032 2.12109 8.95239 2.12109 7.99731C2.12109 7.04224 2.04492 4.98853 2.38477 4.1272C2.61328 3.55298 3.05566 3.1106 3.63281 2.87915C4.49707 2.53638 6.54785 2.61548 7.50293 2.61548C8.45801 2.61548 10.5117 2.53931 11.373 2.87915C11.9473 3.10767 12.3896 3.55005 12.6211 4.1272C12.9639 4.99146 12.8848 7.04224 12.8848 7.99731C12.8848 8.95239 12.9639 11.0061 12.6211 11.8674Z" fill="white"/>
</svg>
