<svg width="15" height="16" viewBox="0 0 15 16" fill="none" xmlns="http://www.w3.org/2000/svg">
<path d="M13.125 1.4375H1.87207C1.35645 1.4375 0.9375 1.8623 0.9375 2.38379V13.6162C0.9375 14.1377 1.35645 14.5625 1.87207 14.5625H13.125C13.6406 14.5625 14.0625 14.1377 14.0625 13.6162V2.38379C14.0625 1.8623 13.6406 1.4375 13.125 1.4375ZM4.9043 12.6875H2.95898V6.42383H4.90723V12.6875H4.9043ZM3.93164 5.56836C3.30762 5.56836 2.80371 5.06152 2.80371 4.44043C2.80371 3.81934 3.30762 3.3125 3.93164 3.3125C4.55273 3.3125 5.05957 3.81934 5.05957 4.44043C5.05957 5.06445 4.55566 5.56836 3.93164 5.56836ZM12.1963 12.6875H10.251V9.64062C10.251 8.91406 10.2363 7.97949 9.24023 7.97949C8.22656 7.97949 8.07129 8.77051 8.07129 9.58789V12.6875H6.12598V6.42383H7.99219V7.2793H8.01855C8.2793 6.78711 8.91504 6.26855 9.86133 6.26855C11.8301 6.26855 12.1963 7.56641 12.1963 9.25391V12.6875Z" fill="white"/>
</svg>
