<svg width="32" height="32" viewBox="0 0 32 32" fill="none" xmlns="http://www.w3.org/2000/svg">
<rect width="32" height="32" rx="8" fill="#1D9BF0"/>
<path d="M23.5475 11.984C23.5552 12.16 23.5552 12.328 23.5552 12.504C23.563 17.84 19.6426 24 12.4732 24C10.3587 24 8.2827 23.368 6.5 22.184C6.80869 22.224 7.11738 22.24 7.42608 22.24C9.1779 22.24 10.8834 21.632 12.2648 20.504C10.5979 20.472 9.1316 19.344 8.62226 17.696C9.20877 17.816 9.81072 17.792 10.3818 17.624C8.56824 17.256 7.26401 15.6 7.2563 13.672C7.2563 13.656 7.2563 13.64 7.2563 13.624C7.79651 13.936 8.40617 14.112 9.02356 14.128C7.31803 12.944 6.78554 10.584 7.81966 8.73595C9.80301 11.264 12.7201 12.792 15.8534 12.96C15.537 11.56 15.9691 10.088 16.9801 9.09595C18.5467 7.56795 21.0162 7.64795 22.498 9.27195C23.37 9.09595 24.2112 8.75995 24.9752 8.28795C24.682 9.22395 24.0723 10.016 23.262 10.52C24.0337 10.424 24.79 10.208 25.5 9.88795C24.9752 10.704 24.3115 11.408 23.5475 11.984Z" fill="white"/>
</svg>
