<svg width="15" height="16" viewBox="0 0 15 16" fill="none" xmlns="http://www.w3.org/2000/svg">
<path d="M1.5 1.54875C1.5 1.58938 1.97938 2.30438 2.06875 2.39375C2.09313 2.41813 2.32875 2.75938 2.59688 3.16563C2.85688 3.56375 3.10063 3.91313 3.13313 3.9375C3.1575 3.96187 3.34438 4.23 3.5475 4.54688C3.75063 4.85563 4.12438 5.40812 4.37625 5.76562C5.01 6.64313 5.01 6.64313 5.53 7.43125C5.79 7.81313 6.09875 8.25188 6.22063 8.40625L6.44 8.69063L6.2775 8.89375C6.18813 9.0075 5.91188 9.32438 5.66813 9.60875C5.41625 9.89313 5.14 10.21 5.05063 10.3319C4.96125 10.4456 4.80688 10.6163 4.7175 10.7138C4.54688 10.8844 3.98625 11.5344 3.44188 12.1844C3.2875 12.3631 3.05188 12.6394 2.90563 12.7938C2.59688 13.135 2.45063 13.3056 2.02813 13.8175C1.84938 14.0288 1.65438 14.2481 1.60563 14.305C1.42687 14.4756 1.48375 14.5 2.09313 14.5C2.64563 14.5 2.7025 14.4838 2.88125 14.2725C2.98688 14.1506 3.18188 13.9231 3.32 13.7606C3.45813 13.5981 3.75875 13.2569 3.97813 12.9969C4.20563 12.7369 4.4575 12.4444 4.54688 12.355C4.63625 12.2575 4.85563 11.9975 5.03438 11.7781C5.21313 11.5506 5.4325 11.2988 5.52188 11.2013C5.61125 11.1119 5.87125 10.8194 6.09063 10.5594C6.31813 10.2994 6.61063 9.95813 6.74875 9.79563L7.00063 9.51125L7.10625 9.71438C7.16313 9.82 7.23625 9.92563 7.26063 9.95C7.29313 9.97438 7.52875 10.3156 7.79688 10.7219C8.065 11.12 8.30063 11.4694 8.325 11.4938C8.3575 11.5181 8.77188 12.1194 9.25938 12.8344C9.74688 13.5494 10.1938 14.1831 10.2506 14.24C10.3075 14.2969 10.3563 14.3863 10.3563 14.4269C10.3563 14.4675 11.1606 14.5 12.3063 14.5C13.3788 14.5 14.2563 14.4756 14.2563 14.4513C14.2563 14.4106 13.7769 13.6956 13.6875 13.6063C13.6631 13.5819 13.4275 13.2325 13.1594 12.8344C12.8994 12.4281 12.6556 12.0869 12.6231 12.0625C12.5988 12.0381 12.4119 11.7619 12.2088 11.4531C12.0056 11.1363 11.6319 10.5919 11.38 10.2344C10.73 9.3325 10.7463 9.34875 10.1369 8.44688C9.84438 8 9.51125 7.52875 9.40563 7.40688C9.15375 7.09 9.17 6.95188 9.51125 6.57C9.67375 6.39937 10.1369 5.87125 10.535 5.4C10.9331 4.92875 11.38 4.41688 11.5263 4.2625C11.6725 4.10813 11.9325 3.79938 12.1113 3.58C12.2819 3.36063 12.5013 3.10063 12.5906 3.00313C12.8831 2.69438 13.6225 1.83313 13.7444 1.6625C13.8581 1.5 13.85 1.5 13.2488 1.5H12.6475L12.29 1.9225C12.1031 2.15813 11.8675 2.42625 11.7781 2.52375C11.6888 2.61313 11.4369 2.90563 11.2094 3.16563C10.99 3.42563 10.6731 3.79125 10.5188 3.97C10.3644 4.15688 10.2181 4.31938 10.1938 4.34375C10.1694 4.36812 9.93375 4.63625 9.66563 4.95312C9.3975 5.26188 9.11313 5.595 9.02375 5.68438C8.9425 5.77375 8.82063 5.92813 8.75563 6.02563C8.60938 6.25313 8.60125 6.245 7.95938 5.27813C7.69125 4.87188 7.43938 4.50625 7.39063 4.4575C7.35 4.40875 6.87063 3.71813 6.33438 2.93L5.35938 1.5H3.43375C2.36938 1.5 1.5 1.52438 1.5 1.54875ZM5.37563 3.29563C5.97688 4.15688 6.38313 4.73375 7.17938 5.89563C7.3825 6.18 7.56125 6.43188 7.59375 6.45625C7.62625 6.48063 7.78063 6.7 7.94313 6.95188C8.0975 7.21188 8.28438 7.48 8.3575 7.56125C8.43063 7.65063 8.8125 8.18688 9.21063 8.77188C9.60875 9.34875 9.96625 9.86063 10.0069 9.90938C10.0475 9.95 10.3644 10.4131 10.7219 10.925C11.0713 11.4369 11.38 11.8756 11.4044 11.9C11.4288 11.9244 11.5263 12.0463 11.6238 12.1844C11.7131 12.3144 11.9569 12.6638 12.1519 12.9563C12.355 13.2488 12.55 13.5331 12.5825 13.5819C12.6231 13.6631 12.4525 13.6875 11.8188 13.6875H11.0063L10.7056 13.2163C10.5431 12.9644 10.3888 12.7369 10.3644 12.7125C10.34 12.6881 10.1856 12.485 10.0313 12.2656C9.87688 12.0381 9.70625 11.8106 9.64938 11.7538C9.5925 11.6969 9.54375 11.6156 9.54375 11.575C9.54375 11.5344 9.495 11.4531 9.44625 11.3963C9.38938 11.3394 9.19438 11.0713 9.01563 10.8031C8.83688 10.535 8.67438 10.2994 8.64188 10.275C8.6175 10.2506 8.47938 10.0475 8.325 9.82812C8.17063 9.60063 8.0325 9.40563 8.00813 9.38125C7.98375 9.35688 7.74 9.0075 7.47188 8.60938C7.20375 8.20312 6.94375 7.8375 6.895 7.78063C6.84625 7.73188 6.68375 7.49625 6.52938 7.2525C6.38313 7.01688 6.23688 6.80563 6.2125 6.78125C6.18 6.75688 6.04188 6.55375 5.8875 6.33438C5.73313 6.10688 5.595 5.91188 5.57063 5.8875C5.53813 5.86312 5.37563 5.6275 5.19688 5.35938C5.01813 5.09125 4.85563 4.85563 4.83125 4.83125C4.80688 4.80688 4.5875 4.49813 4.34375 4.14062C4.10813 3.78312 3.88063 3.47438 3.85625 3.45C3.79125 3.40125 3.20625 2.48313 3.20625 2.43438C3.20625 2.41 3.55563 2.39375 3.97813 2.39375H4.74188L5.37563 3.29563Z" fill="white"/>
</svg>
