<svg width="48" height="48" viewBox="0 0 48 48" fill="none" xmlns="http://www.w3.org/2000/svg">
<rect width="48" height="48" rx="24" fill="url(#paint0_linear_439_3039)"/>
<path d="M9.44202 37.9629L11.4999 30.4902C10.2276 28.2968 9.5602 25.8128 9.56716 23.2734C9.56716 15.3163 16.0745 8.84686 24.0626 8.84686C27.942 8.84686 31.5849 10.3483 34.3172 13.0745C37.0564 15.8007 38.565 19.4263 38.5581 23.2804C38.5581 31.2375 32.0507 37.7069 24.0557 37.7069H24.0487C21.6224 37.7069 19.2377 37.098 17.1173 35.9494L9.44202 37.9629ZM17.4858 33.3409L17.9238 33.6038C19.7731 34.6971 21.8935 35.2714 24.0557 35.2783H24.0626C30.702 35.2783 36.1109 29.902 36.1109 23.2873C36.1109 20.0837 34.8595 17.0738 32.5861 14.8043C30.3127 12.5348 27.2815 11.2893 24.0626 11.2893C17.4232 11.2824 12.0144 16.6587 12.0144 23.2734C12.0144 25.536 12.647 27.7432 13.8567 29.653L14.1417 30.1096L12.9251 34.531L17.4858 33.3409Z" fill="white"/>
<path d="M9.94958 37.4579L11.9379 30.2411C10.7074 28.1308 10.0608 25.7298 10.0608 23.2804C10.0678 15.6 16.3457 9.35199 24.0627 9.35199C27.8099 9.35199 31.3208 10.805 33.9627 13.4343C36.6045 16.0636 38.0576 19.5648 38.0576 23.2873C38.0576 30.9676 31.7727 37.2157 24.0627 37.2157H24.0557C21.7128 37.2157 19.4116 36.6276 17.3676 35.5205L9.94958 37.4579Z" fill="url(#paint1_linear_439_3039)"/>
<path d="M9.44202 37.9629L11.4999 30.4902C10.2276 28.2968 9.5602 25.8128 9.56716 23.2734C9.56716 15.3163 16.0745 8.84686 24.0626 8.84686C27.942 8.84686 31.5849 10.3483 34.3172 13.0745C37.0564 15.8007 38.565 19.4263 38.5581 23.2804C38.5581 31.2375 32.0507 37.7069 24.0557 37.7069H24.0487C21.6224 37.7069 19.2377 37.098 17.1173 35.9494L9.44202 37.9629ZM17.4858 33.3409L17.9238 33.6038C19.7731 34.6971 21.8935 35.2714 24.0557 35.2783H24.0626C30.702 35.2783 36.1109 29.902 36.1109 23.2873C36.1109 20.0837 34.8595 17.0738 32.5861 14.8043C30.3127 12.5348 27.2815 11.2893 24.0626 11.2893C17.4232 11.2824 12.0144 16.6587 12.0144 23.2734C12.0144 25.536 12.647 27.7432 13.8567 29.653L14.1417 30.1096L12.9251 34.531L17.4858 33.3409Z" fill="url(#paint2_linear_439_3039)"/>
<path fill-rule="evenodd" clip-rule="evenodd" d="M20.4404 17.2399C20.1692 16.6379 19.8842 16.6241 19.627 16.6171C19.4184 16.6102 19.1751 16.6102 18.9317 16.6102C18.6884 16.6102 18.2991 16.7002 17.9654 17.06C17.6317 17.4198 16.7001 18.2916 16.7001 20.0698C16.7001 21.8412 18.0001 23.5571 18.1809 23.7993C18.3617 24.0415 20.6907 27.7986 24.3684 29.2447C27.4274 30.4487 28.0531 30.2065 28.7136 30.1442C29.374 30.0819 30.8549 29.2724 31.1608 28.4283C31.4597 27.5841 31.4597 26.8645 31.3693 26.7123C31.279 26.5601 31.0356 26.4701 30.6741 26.2902C30.3126 26.1103 28.5328 25.2385 28.1991 25.1139C27.8654 24.9963 27.6221 24.934 27.3857 25.2938C27.1424 25.6536 26.4471 26.4632 26.2386 26.7054C26.03 26.9475 25.8145 26.9752 25.453 26.7953C25.0914 26.6154 23.9235 26.2349 22.54 25.0032C21.4624 24.0484 20.7324 22.8652 20.5238 22.5054C20.3152 22.1456 20.503 21.9519 20.6837 21.772C20.8436 21.6128 21.0452 21.3499 21.226 21.1423C21.4067 20.9347 21.4693 20.7825 21.5875 20.5403C21.7057 20.2982 21.6501 20.0906 21.5597 19.9107C21.4693 19.7377 20.7602 17.9526 20.4404 17.2399Z" fill="white"/>
<defs>
<linearGradient id="paint0_linear_439_3039" x1="23.9988" y1="47.9976" x2="23.9988" y2="-0.0016794" gradientUnits="userSpaceOnUse">
<stop stop-color="#20B038"/>
<stop offset="1" stop-color="#60D66A"/>
</linearGradient>
<linearGradient id="paint1_linear_439_3039" x1="24.0028" y1="37.4565" x2="24.0028" y2="9.35101" gradientUnits="userSpaceOnUse">
<stop stop-color="#20B038"/>
<stop offset="1" stop-color="#60D66A"/>
</linearGradient>
<linearGradient id="paint2_linear_439_3039" x1="24.0029" y1="37.9602" x2="24.0029" y2="8.84686" gradientUnits="userSpaceOnUse">
<stop stop-color="#F9F9F9"/>
<stop offset="1" stop-color="white"/>
</linearGradient>
</defs>
</svg>
