<svg width="56" height="56" viewBox="0 0 56 56" fill="none" xmlns="http://www.w3.org/2000/svg">
<g clip-path="url(#clip0_1328_371)">
<path d="M26.8734 0.382812C26.0422 0.820312 25.8016 0.84219 25.1453 0.546875C23.8328 -0.0437508 22.8047 0.601562 22.6625 2.11094C22.5531 3.24844 23.1438 5.03125 24.3469 7.13125C24.7297 7.79844 25.0469 8.38906 25.0469 8.43281C25.0469 8.65156 24.7078 8.58594 24.4344 8.30156C23.975 7.83125 23.2313 7.38281 22.4219 7.09844C21.7984 6.87969 21.5141 6.85781 20.1797 6.86875C18.3969 6.89062 17.5766 6.7375 16.5266 6.17969C15.3672 5.55625 14.6563 5.74219 14.6563 6.65C14.6563 7.2625 15.2797 7.71094 16.8984 8.26875C17.7078 8.55313 17.9047 8.575 19.6547 8.59687C21.525 8.60781 21.5469 8.60781 22.225 8.94688C22.9141 9.28594 23.9203 10.1719 23.625 10.1719C23.0891 10.1719 21.3609 10.4344 20.6172 10.6203C19.3922 10.9266 17.8938 11.6922 17.0953 12.4141C16.3078 13.125 15.75 13.9453 15.75 14.4047C15.75 14.8531 16.1438 15.2031 16.6469 15.2031C16.9969 15.2031 17.0953 15.1266 17.6203 14.4703C18.375 13.5297 19.3047 12.9172 20.5844 12.4906C21.4703 12.2062 23.5813 11.8344 23.6906 11.9547C23.7234 11.9766 23.2313 12.4031 22.6188 12.9062C21.2406 14.0219 18.3531 16.8984 17.3469 18.1562C13.9344 22.4219 12.0531 26.8516 11.7031 31.3906C11.6484 32.1453 11.6375 33.0531 11.6703 33.4031L11.7359 34.0484L10.9813 33.9828C10.5656 33.9391 10.0406 33.9062 9.82188 33.9062H9.40625V33.3813C9.39531 32.3969 8.69531 31.4344 7.79844 31.1719C7.525 31.0953 6.49688 31.0625 4.85625 31.0844L2.32969 31.1172L1.88125 31.4125C1.64063 31.5766 1.29063 31.9484 1.12656 32.2328L0.820312 32.7578V42.9844V53.2109L1.06094 53.6484C1.32344 54.1516 1.65156 54.4688 2.1875 54.7531C2.52656 54.9391 2.84375 54.9609 5.14063 54.9609H7.71094L8.225 54.6547C8.82656 54.3047 9.275 53.6266 9.38438 52.9047L9.46094 52.4234L13.825 54.0422C16.2203 54.9391 18.5391 55.7484 18.9875 55.8359C19.6547 55.9781 21 56 27.2125 56H34.6391L35.7219 55.7266C36.3125 55.5734 37.1656 55.2672 37.625 55.0375C38.7078 54.4906 53.6594 45.0188 54.1188 44.5813C55.9125 42.9078 55.3656 39.8344 53.1016 38.8062C52.6859 38.6203 52.3578 38.5656 51.7344 38.5656C50.9578 38.5766 50.4 38.7297 49.0328 39.3422C48.9453 39.375 49.0109 39.1344 49.175 38.7625C49.6234 37.7344 50.0828 35.7766 50.225 34.2016C50.6953 28.9953 48.7047 23.3625 44.5922 18.2547C43.4328 16.8219 42.9734 16.4062 42.5469 16.4062C42.175 16.4062 41.8141 16.7125 41.7156 17.1172C41.6281 17.4562 41.7922 17.7078 42.9625 19.0969C45.2484 21.8094 47.0094 25.0031 47.8406 27.9453C48.3656 29.8047 48.4969 30.7672 48.4969 32.7578C48.4859 34.7484 48.3656 35.5906 47.8297 37.2422C47.5672 38.0625 46.6703 39.9547 46.3313 40.3922C46.2438 40.5125 43.9141 41.5953 41.1578 42.8094L36.1484 45.0188L36.0828 44.0016C36.0172 43.1484 35.9516 42.8531 35.6234 42.1969C35.1641 41.2344 34.65 40.6219 33.8734 40.1078C32.8563 39.4297 32.3422 39.3203 27.125 38.7188C24.4453 38.4125 21.9625 38.0844 21.6125 37.9969C20.7594 37.7781 19.8297 37.3516 18.5172 36.575C17.0516 35.7109 15.6625 35.0766 14.4813 34.7156L13.4859 34.4094L13.4203 33.4906C13.0156 26.9281 17.0625 19.6437 24.4016 13.7484L24.9047 13.3438L25.3859 13.5516C26.6547 14.1094 29.9031 14.4375 32.2766 14.2406C34.0922 14.0875 35.1859 13.8688 36.05 13.4641L36.7172 13.1578L37.1984 13.5406C37.4609 13.7594 38.0844 14.2734 38.5656 14.6781C39.3094 15.3016 39.5281 15.4219 39.8563 15.4219C40.3813 15.4219 40.6875 15.1156 40.6875 14.5797C40.6875 14.1313 40.4688 13.9016 38.6859 12.4578L37.6141 11.5938L37.5813 10.85C37.5594 10.0953 37.2859 9.38438 36.8375 8.90313C36.6297 8.67344 36.6297 8.6625 37.2203 7.7C38.5766 5.46875 39.2656 3.69688 39.2656 2.45C39.2547 0.678127 38.2703 -0.0874977 36.8047 0.546875C36.1156 0.84219 35.9078 0.831249 35.0656 0.382812C34.4203 0.0437508 34.2344 0 33.5234 0C32.8125 0 32.6375 0.0437508 32.0031 0.382812C31.5984 0.590626 31.1609 0.765625 31.0188 0.765625C30.8656 0.765625 30.3953 0.590626 29.9578 0.382812C29.2688 0.0546875 29.0391 0 28.3719 0C27.6938 0 27.5078 0.0437508 26.8734 0.382812ZM29.2688 2.04531C29.8922 2.37344 30.1656 2.45 30.8438 2.49375C31.6203 2.5375 31.7078 2.51562 32.4297 2.13281C32.8563 1.91406 33.3484 1.72813 33.5234 1.72813C33.7094 1.72813 34.1906 1.90313 34.5953 2.12188C35.4375 2.57031 36.1156 2.63594 37.0016 2.3625L37.5156 2.20938V2.51562C37.5156 3.31406 36.7281 5.09687 35.5141 7.06562L34.9125 8.03906L33.4469 8.3125C31.6859 8.62969 30.1219 8.65156 28.3391 8.36719L27.1031 8.17031L26.5781 7.37188C25.4734 5.67656 24.3906 3.2375 24.3906 2.45C24.3906 2.30781 24.4016 2.1875 24.4234 2.1875C24.4344 2.1875 24.6422 2.26406 24.8828 2.35156C25.6922 2.63594 26.4141 2.55938 27.4531 2.07812C27.9672 1.8375 28.4156 1.64062 28.4484 1.64062C28.4813 1.64062 28.8531 1.82656 29.2688 2.04531ZM27.4531 10.0187C29.3563 10.4125 31.85 10.4125 33.9938 9.99688C35.2297 9.75625 35.5031 9.84375 35.7656 10.5766C35.9078 10.9922 35.8969 11.0797 35.7328 11.4297C35.5141 11.8891 35.3281 11.9766 33.8516 12.2719C31.8172 12.6984 28.3172 12.5781 26.3375 12.0312C25.4953 11.7906 25.2109 10.85 25.7688 10.1828C26.0969 9.78906 26.2828 9.76719 27.4531 10.0187ZM7.45938 32.9984C7.63438 33.1625 7.65625 33.3922 7.65625 35.6453C7.65625 38.325 7.68906 38.5 8.26875 38.7188C8.58594 38.8391 9.15469 38.6641 9.29688 38.3906C9.3625 38.2812 9.40625 37.6141 9.40625 36.9031V35.6234L10.4672 35.7C12.6328 35.8531 14.4047 36.4 16.6797 37.6359C20.5953 39.7469 20.6172 39.7469 26.9063 40.4688C31.5656 40.9938 31.8063 41.0266 32.4516 41.3547C33.7094 41.9563 34.3438 43.0719 34.3438 44.625V45.5H30.0781C27.1469 45.5 25.7359 45.5437 25.55 45.6203C25.2109 45.7734 25.0141 46.2438 25.1125 46.6375C25.2656 47.2609 25.2 47.25 30.5594 47.25H35.4703L43.0828 43.8922C47.2719 42.0547 50.9359 40.4797 51.2313 40.3922C52.2375 40.1297 53.1016 40.6438 53.375 41.6828C53.5172 42.2188 53.3203 42.9078 52.9047 43.2797C52.5438 43.6188 37.5703 53.0688 36.7609 53.4734C36.3781 53.6703 35.6891 53.9328 35.2297 54.0641C34.4313 54.2828 34.1031 54.2938 27.9781 54.3375C23.9859 54.3594 21.1313 54.3375 20.4313 54.2609C19.1297 54.1297 19.0969 54.1187 13.5734 52.0625L9.40625 50.5094V45.9266C9.40625 41.4859 9.39531 41.3328 9.1875 41.125C8.84844 40.7859 8.17031 40.8297 7.88594 41.1906C7.65625 41.475 7.65625 41.5844 7.65625 47.1297C7.65625 50.2359 7.6125 52.8281 7.56875 52.8937C7.36094 53.2109 6.95625 53.2656 5.03125 53.2656C3.07344 53.2656 3.05156 53.2656 2.77813 52.9922L2.51563 52.7297L2.5375 42.9187C2.57031 33.3703 2.57031 33.1187 2.77813 32.9656C2.95313 32.8453 3.45625 32.8125 5.12969 32.8125C6.95625 32.8125 7.28438 32.8344 7.45938 32.9984Z" fill="#043353"/>
<path d="M30.2859 17.1609C30.0672 17.3359 30.0234 17.4891 29.9906 18.1891C29.9469 19.0203 29.9469 19.0203 29.5969 19.0969C28.1859 19.4031 26.9719 20.7484 26.6766 22.3672C26.3484 24.1609 27.1469 25.5609 29.0719 26.5563L29.9687 27.0266V30.2094V33.3922L29.4547 33.3266C29.1594 33.2828 28.5469 33.0531 28.0875 32.8125C27.125 32.3203 26.8297 32.2766 26.4906 32.5938C26.1625 32.9 26.0969 33.2719 26.2828 33.6438C26.5891 34.2344 28.5906 35.1094 29.6078 35.1094H29.9687V35.8859C29.9687 36.5969 29.9906 36.6844 30.2969 36.9906C30.5812 37.2641 30.6906 37.3078 30.9859 37.2531C31.5547 37.1438 31.7187 36.8484 31.7187 35.9188V35.1203L32.1781 34.9891C34.8578 34.2781 36.4219 31.2375 35.4594 28.6781C35.0109 27.5078 34.1141 26.7094 32.6047 26.1297L31.7187 25.7906V23.2422V20.6828L32.025 20.7703C32.4297 20.8906 33.2172 21.2953 33.3047 21.4375C33.425 21.6344 34.2125 21.5688 34.4531 21.3281C34.7922 20.9891 34.7484 20.3875 34.3328 20.0047C33.9172 19.6219 32.9984 19.1734 32.2766 19.0203L31.7187 18.9V18.1672C31.7187 17.5328 31.6859 17.3906 31.4672 17.1938C31.15 16.8984 30.625 16.8875 30.2859 17.1609ZM29.9687 22.9141V25.0578L29.4 24.6859C28.3719 24.0406 28.0984 23.0781 28.6453 22.0063C28.8969 21.5141 29.6297 20.825 29.9469 20.7813C29.9578 20.7813 29.9687 21.7438 29.9687 22.9141ZM32.9 28.2625C33.8187 28.875 34.1906 29.9578 33.8625 31.0844C33.5891 32.0578 32.7797 32.9438 31.9703 33.1953L31.7187 33.2609V30.4719V27.6828L32.0578 27.8031C32.2437 27.8688 32.6156 28.0766 32.9 28.2625Z" fill="#043353"/>
</g>
<defs>
<clipPath id="clip0_1328_371">
<rect width="56" height="56" fill="white"/>
</clipPath>
</defs>
</svg>
