<svg width="56" height="56" viewBox="0 0 56 56" fill="none" xmlns="http://www.w3.org/2000/svg">
<g clip-path="url(#clip0_1328_267)">
<path d="M27.4203 1.10472C26.7969 1.24691 26.3047 1.54222 25.1015 2.45003C24.5 2.90941 23.8547 3.31409 23.6578 3.34691C23.4172 3.39066 22.8484 3.28128 21.7984 2.9641C19.95 2.41722 19.3265 2.38441 18.4734 2.81097C17.8172 3.15003 17.3578 3.67503 16.4172 5.18441C16.089 5.69847 15.6953 6.2016 15.5531 6.30003C15.3562 6.43128 14.7765 6.51878 13.5187 6.61722C12.5015 6.69378 11.5937 6.82503 11.364 6.91253C10.3359 7.35003 9.81092 8.23597 9.40623 10.1938C9.03436 11.9657 8.88123 12.1407 7.03279 12.8516C4.53904 13.825 4.04686 14.711 4.42967 17.5547C4.69217 19.4578 4.68123 19.4797 3.18279 20.8688C1.66248 22.2797 1.36717 22.8157 1.44373 23.9532C1.49842 24.6203 1.59686 24.8938 2.23123 26.1516C2.73436 27.1578 2.95311 27.7157 2.95311 28C2.95311 28.2844 2.73436 28.8422 2.23123 29.8485C1.59686 31.0953 1.49842 31.3797 1.44373 32.025C1.38904 32.9328 1.60779 33.5344 2.27498 34.2563L2.71248 34.7375L1.80467 35.2516C0.896856 35.7657 0.295294 36.3235 0.0984186 36.8266C-0.0656439 37.2641 -0.0218939 38.3688 0.174981 38.7516C0.273419 38.9485 1.33436 40.7969 2.53748 42.875C3.92654 45.2813 4.86717 46.7907 5.12967 47.0532C5.98279 47.8735 7.04373 47.8735 8.47654 47.075C8.97967 46.7907 9.42811 46.5719 9.47186 46.5719C9.51561 46.5719 9.61404 46.7688 9.67967 46.9985C9.99686 48.0485 10.5656 48.7375 11.375 49.0875C11.5937 49.175 12.5125 49.3063 13.5187 49.3828C14.7765 49.4813 15.3562 49.5688 15.5531 49.7C15.6953 49.7985 16.089 50.3016 16.4172 50.8157C18.0797 53.4516 18.9656 53.9 21.2297 53.2C22.8812 52.686 23.3297 52.5875 23.6687 52.6532C23.8547 52.686 24.5 53.0907 25.1015 53.55C25.7031 54.0094 26.4687 54.5125 26.7969 54.6657C28.0328 55.2453 29.1594 54.95 30.8437 53.5938C32.2765 52.4453 32.3312 52.4344 34.4531 53.1016C36.9797 53.8891 37.9312 53.5063 39.375 51.1328C39.9437 50.1922 40.3594 49.7328 40.7969 49.5688C40.95 49.5141 41.6828 49.4375 42.4375 49.3938C44.1 49.2953 44.7672 49.1203 45.3469 48.6282C45.9156 48.1469 46.2875 47.3157 46.5937 45.8063C46.9656 44.0453 47.0859 43.9032 48.8578 43.1922C50.7281 42.4375 51.3734 41.8688 51.6469 40.7094C51.7562 40.2172 51.7453 39.8563 51.5812 38.511C51.3297 36.4985 51.3187 36.5203 52.8828 35.0657C54.3375 33.7203 54.6328 33.1735 54.5562 32.025C54.5015 31.3469 54.414 31.0844 53.7687 29.8157C53.2875 28.8641 53.0469 28.2516 53.0469 28C53.0469 27.7485 53.2875 27.136 53.7687 26.1844C54.414 24.9157 54.5015 24.6532 54.5562 23.975C54.6 23.286 54.5672 23.1219 54.3265 22.6188C54.1734 22.3016 53.8672 21.8641 53.6594 21.6672L53.2656 21.2953L54.1187 20.8141C55.5734 19.9828 56 19.4032 56 18.2657C56 17.4672 56.1422 17.7516 53.4406 13.0703C51.1547 9.11097 50.8047 8.64066 49.9734 8.42191C49.1859 8.20316 48.5625 8.33441 47.589 8.89222C47.1078 9.17659 46.6594 9.41722 46.5937 9.42816C46.5172 9.45003 46.3969 9.2641 46.3312 9.02347C45.9594 7.83128 45.3031 7.10941 44.3515 6.83597C44.0562 6.74847 43.1922 6.65003 42.4375 6.60628C41.6828 6.56253 40.95 6.48597 40.7969 6.43128C40.3594 6.26722 39.9437 5.80785 39.375 4.86722C37.9312 2.49378 36.9797 2.11097 34.4531 2.89847C32.3312 3.56566 32.2765 3.55472 30.8437 2.40628C29.4656 1.30159 28.3609 0.875034 27.4203 1.10472ZM28.3719 2.88753C28.5687 2.9641 29.2469 3.42347 29.8812 3.90472C31.7187 5.30472 32.4078 5.4141 34.7484 4.65941C35.4047 4.44066 36.0937 4.26566 36.2797 4.26566C36.7719 4.26566 37.1109 4.60472 37.8547 5.79691C39.1453 7.90784 39.5937 8.18128 42.0328 8.32347C43.8047 8.44378 44.1984 8.55316 44.439 9.05628C44.625 9.41722 44.8765 10.4016 44.8 10.4672C44.7672 10.5 43.6515 11.1563 42.3062 11.9328L39.8672 13.3328L39.4844 13.0375C37.2969 11.3532 34.4859 10.0735 31.7515 9.5266C29.8047 9.12191 29.2031 9.2641 29.2031 10.1063C29.2031 10.7297 29.4656 10.9266 30.5703 11.1016C32.4515 11.4078 33.9828 11.9 35.689 12.7532C36.7937 13.311 38.2047 14.2297 38.0953 14.3282C38.0515 14.3719 31.9594 17.8938 24.5656 22.1485C14.1859 28.1203 11.1015 29.8485 11.025 29.7282C10.9703 29.6516 10.9484 28.7219 10.9812 27.6172C11.0469 24.686 11.4625 22.9907 12.7422 20.3985C15.214 15.3891 20.2125 11.7907 25.7578 11.0469C26.7094 10.9266 26.9719 10.7625 27.0812 10.2266C27.125 9.98597 27.0812 9.81097 26.9062 9.59222C26.6984 9.32972 26.6 9.29691 26.0203 9.29691C24.7297 9.29691 22.0172 10.0078 20.1797 10.8282C16.789 12.3485 13.475 15.3782 11.6484 18.6266C10.9703 19.8188 10.2375 21.5469 9.90936 22.7282C9.35154 24.686 9.24217 25.4953 9.24217 27.9453C9.24217 29.2032 9.27498 30.3844 9.31873 30.5703L9.38436 30.8985L6.85779 32.3532L4.32029 33.8078L3.74061 33.1953C3.31404 32.736 3.17186 32.4953 3.17186 32.2547C3.17186 32.0797 3.48904 31.3141 3.90467 30.4828L4.64842 29.0391V28V26.961L3.90467 25.5172C3.45623 24.6203 3.17186 23.9313 3.17186 23.7125C3.17186 23.4172 3.34686 23.1985 4.47342 22.1047C5.18436 21.4047 5.87342 20.6391 5.99373 20.3875C6.35467 19.6875 6.38748 18.9766 6.17967 17.3469C6.02654 16.1547 6.01561 15.8047 6.11404 15.5532C6.26717 15.1922 6.82498 14.8532 8.12654 14.3391C9.17654 13.9235 9.69061 13.5953 10.1609 13.0594C10.6312 12.5235 10.7844 12.1516 11.1015 10.7188C11.4406 9.20941 11.6047 8.80472 12.0094 8.59691C12.2172 8.48753 12.8953 8.40003 13.9672 8.32347C16.4062 8.18128 16.8547 7.90784 18.1453 5.79691C18.889 4.60472 19.2281 4.26566 19.7203 4.26566C19.9062 4.26566 20.5953 4.44066 21.2625 4.67035C22.225 4.98753 22.6625 5.06409 23.3515 5.07503C24.4125 5.08597 24.9922 4.83441 26.25 3.82816C26.9062 3.30316 27.8031 2.73441 27.9781 2.73441C27.989 2.73441 28.164 2.80003 28.3719 2.88753ZM49.7984 10.4125C50.389 11.211 54.25 18.0469 54.25 18.2985C54.25 18.4407 54.1625 18.6375 54.064 18.725C53.9547 18.8235 46.8344 22.9469 38.2265 27.8907C29.6297 32.8344 22.5203 36.9688 22.4437 37.0563C22.3781 37.1547 22.3125 37.4172 22.3125 37.636C22.3125 37.9532 22.3781 38.0953 22.5969 38.2703C22.9469 38.5438 23.1984 38.5547 23.6578 38.3141C23.8547 38.2157 28.7 35.4375 34.4422 32.1344C41.4094 28.1203 44.9094 26.1625 44.9859 26.2391C45.1719 26.425 45.0078 30.3188 44.7453 31.4672C43.2797 38.1063 38.3031 43.1375 31.664 44.6907C30.45 44.975 30.1765 44.9969 28.0547 45.0078C25.5828 45.0078 24.6422 44.8766 22.6625 44.2313C21.6015 43.8813 19.1625 42.6782 18.3969 42.1203L17.8172 41.6938L19.1078 40.961C19.8187 40.5453 20.4531 40.1407 20.5297 40.0422C20.7265 39.7907 20.7047 39.211 20.4859 38.9485C20.0047 38.3688 20.114 38.325 13.2562 42.2625C9.75623 44.286 6.79217 45.9375 6.68279 45.9375C6.57342 45.9375 6.40936 45.85 6.32186 45.7407C5.92811 45.3032 1.74998 37.9422 1.74998 37.7016C1.74998 37.5485 1.82654 37.3625 1.92498 37.286C2.36248 36.9141 49.0765 10.0735 49.2953 10.0735C49.4484 10.0625 49.6344 10.1938 49.7984 10.4125ZM52.8281 23.7453C52.8281 23.9203 52.5 24.7297 52.0953 25.561L51.3515 27.0485V28V28.9516L52.0953 30.4391C52.5328 31.336 52.8281 32.0688 52.8281 32.2875C52.8281 32.5828 52.6531 32.8016 51.5265 33.8953C50.8156 34.5953 50.1265 35.361 50.0062 35.6125C49.6453 36.3235 49.6015 37.0344 49.8203 38.6532C49.9844 39.8563 49.9953 40.1735 49.8859 40.4469C49.7328 40.8078 49.2297 41.1141 47.8515 41.6828C46.7578 42.1313 46.2984 42.4157 45.85 42.9188C45.3797 43.4547 45.2047 43.8922 44.8765 45.3907C44.4062 47.5125 44.3844 47.5235 42.0328 47.6766C39.5937 47.8188 39.1453 48.0922 37.8547 50.2032C37.1109 51.3953 36.7719 51.7344 36.2797 51.7344C36.0937 51.7344 35.4047 51.5594 34.7375 51.3297C33.775 51.0125 33.3375 50.936 32.6484 50.925C31.5765 50.9141 30.9969 51.1657 29.75 52.1828C29.3015 52.5438 28.7219 52.9485 28.4594 53.0688C27.989 53.2766 27.989 53.2766 27.5297 53.0578C27.2781 52.9266 26.6984 52.5328 26.25 52.1719C24.9922 51.1657 24.4125 50.9141 23.3515 50.925C22.6625 50.936 22.225 51.0125 21.2625 51.3297C20.5953 51.5594 19.9062 51.7344 19.7203 51.7344C19.2281 51.7344 18.889 51.3953 18.1453 50.2032C16.8656 48.1032 16.4062 47.8188 14.0219 47.6766C11.9437 47.5453 11.7359 47.4469 11.4078 46.4844C11.2656 46.0907 11.1672 45.7078 11.189 45.6422C11.2 45.5657 12.3156 44.8657 13.6719 44.0891L16.1219 42.6672L16.625 43.0391C20.114 45.5985 23.789 46.8125 28 46.8125C33.0422 46.8125 37.5156 45.0078 41.114 41.5188C43.5203 39.1782 45.1937 36.411 46.1015 33.2282C46.7031 31.1719 46.8453 29.8375 46.7797 27.2672L46.725 25.0578L49.2078 23.625L51.6797 22.2032L52.2594 22.8047C52.6859 23.2641 52.8281 23.5047 52.8281 23.7453Z" fill="#043353"/>
<path d="M27.3656 12.7204C26.7422 13.3875 27.4203 14.4375 28.2734 14.1094C28.8859 13.8797 29.0609 13.2782 28.6453 12.7532C28.35 12.3704 27.7047 12.3594 27.3656 12.7204Z" fill="#043353"/>
<path d="M23.7781 13.0267C23.264 13.2892 23.1656 13.9783 23.5703 14.383C24.1171 14.9408 25.0468 14.5798 25.0468 13.8142C25.0468 13.1689 24.3468 12.7423 23.7781 13.0267Z" fill="#043353"/>
<path d="M31.2375 13.1359C30.625 13.6172 30.9968 14.6562 31.7734 14.6562C32.4406 14.6562 32.8453 14.0656 32.5937 13.4531C32.364 12.9062 31.7187 12.7531 31.2375 13.1359Z" fill="#043353"/>
<path d="M20.0156 14.6781C19.3813 15.3671 20.1359 16.439 21 16.0781C21.5469 15.8484 21.7 15.2031 21.3172 14.7218C21.0219 14.3499 20.3547 14.3171 20.0156 14.6781Z" fill="#043353"/>
<path d="M17.0078 17.0078C16.4609 17.5437 16.8437 18.4844 17.6094 18.4844C18.0578 18.4844 18.4844 18.0578 18.4844 17.6094C18.4844 17.1609 18.0578 16.7344 17.6094 16.7344C17.4016 16.7344 17.1719 16.8328 17.0078 17.0078Z" fill="#043353"/>
<path d="M14.6781 20.0486C14.525 20.2126 14.4375 20.4423 14.4375 20.6939C14.4375 21.6126 15.7281 21.8533 16.0781 21.0001C16.4391 20.1142 15.3234 19.3595 14.6781 20.0486Z" fill="#043353"/>
<path d="M13.3875 23.4173C13.1359 23.5485 12.9062 23.9532 12.9062 24.2704C12.9062 24.3798 13.0047 24.5985 13.1359 24.7626C13.6172 25.3642 14.6562 24.9923 14.6562 24.2048C14.6562 23.5595 13.9562 23.1329 13.3875 23.4173Z" fill="#043353"/>
<path d="M38.4453 17.4453C37.1547 18.2 36.8594 18.4625 36.8594 18.889C36.8594 19.1953 39.8234 24.4453 40.1625 24.7406C40.5562 25.0906 41.0266 24.9812 42.2516 24.2703C42.8859 23.9093 43.4875 23.5046 43.5969 23.3953C43.8812 23.0781 43.8594 22.4437 43.5422 22.1922C43.1594 21.875 42.7109 21.9406 41.8906 22.4218C41.475 22.6625 41.1141 22.8593 41.0922 22.8593C41.0594 22.8593 40.9062 22.6297 40.7531 22.3453C40.4359 21.7984 40.4359 21.8093 41.0703 21.4703C41.8688 21.0547 42.1094 20.7922 42.1094 20.3437C42.1094 19.8296 41.7812 19.4687 41.3109 19.4687C41.1359 19.4687 40.6766 19.6437 40.2828 19.8625C39.5062 20.3 39.55 20.3109 39.1672 19.5781L38.9594 19.1843L39.7141 18.7797C40.5453 18.3203 40.7969 18.0468 40.7969 17.5765C40.7969 17.1718 40.3594 16.7343 39.9547 16.7453C39.7797 16.7453 39.1125 17.0515 38.4453 17.4453Z" fill="#043353"/>
<path d="M33.9062 20.0814C33.2172 20.4642 32.5828 20.8689 32.5172 20.9673C32.2 21.3829 32.3531 21.7876 33.9172 24.5001C34.7594 25.9767 35.5359 27.2673 35.6234 27.3657C35.9625 27.7376 36.4765 27.6173 37.8109 26.8407C38.489 26.436 39.1015 26.0314 39.1562 25.922C39.3312 25.5829 39.2765 25.0579 39.0469 24.8282C38.7187 24.5001 38.2375 24.5548 37.3406 25.047L36.5422 25.4954L36.2687 25.0142C36.1156 24.7517 35.9844 24.5001 35.9844 24.4673C35.9844 24.4345 36.3015 24.2267 36.6953 24.0079C37.6687 23.461 37.8765 22.9907 37.3953 22.3782C37.0781 21.9735 36.5969 21.9954 35.7765 22.4767C35.4265 22.6845 35.0984 22.8595 35.0765 22.8595C35.0437 22.8595 34.8906 22.6298 34.7265 22.3564C34.4859 21.9407 34.4531 21.8314 34.5734 21.7548C34.6609 21.7001 35.0328 21.4814 35.4156 21.2626C36.1594 20.847 36.3672 20.5189 36.2578 19.9939C36.1703 19.6329 35.8312 19.3595 35.4375 19.3595C35.2844 19.3595 34.5953 19.6876 33.9062 20.0814Z" fill="#043353"/>
<path d="M29.4219 22.6516C28.1531 23.3735 27.8906 23.6141 27.8906 24.0516C27.8906 24.3141 28.7 25.8016 30.6031 29.061C31.2703 30.1985 31.7078 30.4282 32.3094 29.9578C32.7578 29.6078 32.6922 29.1375 32.0469 28C31.7516 27.475 31.5 27.0157 31.5 26.9828C31.5 26.95 31.7297 26.7969 32.025 26.6328C32.8016 26.1844 33.0312 25.9328 33.0312 25.5391C33.0312 25.0907 32.7797 24.7516 32.375 24.6641C32.1125 24.6094 31.8828 24.675 31.3141 24.9922C30.9203 25.211 30.5594 25.3532 30.5156 25.2985C30.4719 25.2547 30.3297 25.025 30.1984 24.8063L29.9578 24.4016L30.4828 24.1063C31.5438 23.5047 31.7188 23.3297 31.7188 22.8594C31.7188 22.3672 31.3359 21.9844 30.8547 21.9844C30.7016 21.9844 30.0562 22.2907 29.4219 22.6516Z" fill="#043353"/>
<path d="M21.8859 27.0813C20.8141 27.4641 20.0813 28.1422 19.5891 29.2031C19.3484 29.7063 19.3047 29.9578 19.3047 30.7891C19.3047 31.6313 19.3484 31.8609 19.6 32.3969C19.9828 33.2172 20.6391 33.9062 21.4047 34.3C21.9844 34.5844 22.1375 34.6172 23.1328 34.6172C24.0953 34.6172 24.2922 34.5844 24.8281 34.3219C25.6156 33.9391 26.3156 33.2391 26.6766 32.4844C26.9281 31.9594 26.9609 31.7516 26.9609 30.7344C26.9609 29.7063 26.9281 29.5312 26.6656 29.0391C26.2828 28.3063 25.5828 27.6281 24.85 27.2672C24.0844 26.8953 22.6516 26.7969 21.8859 27.0813ZM23.9859 28.8094C24.4125 28.9953 24.9922 29.5859 25.1453 30.0016C25.2109 30.1766 25.2656 30.5266 25.2656 30.7891C25.2656 31.4125 25.1125 31.7953 24.6859 32.2547C23.6141 33.3922 21.7766 33.0422 21.1641 31.5875C20.8578 30.8438 21.0219 29.9359 21.5797 29.3234C22.1266 28.7328 23.2422 28.4922 23.9859 28.8094Z" fill="#043353"/>
<path d="M16.0781 30.4063C15.6843 30.8 15.7937 31.2156 16.6906 32.7359C17.139 33.5125 17.5 34.1578 17.4781 34.1797C17.4562 34.1906 16.5156 33.775 15.389 33.2391C13.4093 32.3094 13.0375 32.1781 12.6328 32.3313C12.3812 32.4297 12.1187 32.9984 12.2062 33.2828C12.239 33.4141 12.9937 34.7703 13.8797 36.3016C15.4765 39.0797 15.6297 39.2656 16.1984 39.2656C16.5265 39.2656 16.9531 38.7844 16.9531 38.4016C16.9531 38.2047 16.6468 37.5594 16.1437 36.6734C15.6953 35.9078 15.3453 35.2625 15.3672 35.2406C15.3781 35.2297 16.2859 35.6344 17.3687 36.1484C18.4625 36.6625 19.4906 37.0781 19.6656 37.0781C19.8406 37.0781 20.114 36.9797 20.2781 36.8484C20.8359 36.4109 20.7265 36.0938 19.0203 33.1844C18.1672 31.7516 17.4015 30.4828 17.3031 30.3734C17.0734 30.1109 16.3625 30.1219 16.0781 30.4063Z" fill="#043353"/>
<path d="M41.5625 31.1718C41.3328 31.4015 41.2781 31.9265 41.4531 32.2656C41.5953 32.539 42.164 32.714 42.4812 32.5937C42.7984 32.4734 43.0937 32.0796 43.0937 31.7625C43.0937 31.6312 42.9953 31.4015 42.864 31.2375C42.5797 30.8765 41.9015 30.8328 41.5625 31.1718Z" fill="#043353"/>
<path d="M40.2281 34.6062C39.9328 34.825 39.8015 35.2844 39.9328 35.6234C40.2828 36.5531 41.5625 36.3344 41.5625 35.339C41.5625 34.6281 40.775 34.1906 40.2281 34.6062Z" fill="#043353"/>
<path d="M37.7891 37.7891C37.2531 38.3141 37.5375 39.1016 38.3031 39.2219C38.6313 39.2766 38.7516 39.2437 38.9813 39.0141C39.1781 38.8172 39.2656 38.6094 39.2656 38.3578C39.2656 37.5922 38.3359 37.2312 37.7891 37.7891Z" fill="#043353"/>
<path d="M34.7594 40.1406C34.4859 40.425 34.4422 40.5344 34.4969 40.8297C34.5844 41.2781 34.9234 41.5625 35.3937 41.5625C35.9078 41.5625 36.2031 41.2453 36.2031 40.6984C36.2031 40.3594 36.1375 40.2172 35.9187 40.0422C35.5141 39.725 35.1531 39.7578 34.7594 40.1406Z" fill="#043353"/>
<path d="M23.5703 41.6172C23.0015 42.175 23.45 43.0938 24.2922 43.0938C24.6422 43.0938 25.0469 42.6125 25.0469 42.1859C25.0469 41.4203 24.1172 41.0594 23.5703 41.6172Z" fill="#043353"/>
<path d="M31.1828 41.6282C30.8984 41.9892 30.8875 42.4485 31.1609 42.7767C31.4563 43.1376 32.2 43.1376 32.4953 42.7767C32.9656 42.197 32.5719 41.3438 31.8281 41.3438C31.5 41.3438 31.3578 41.4095 31.1828 41.6282Z" fill="#043353"/>
<path d="M27.6171 41.9017C27.0593 42.2189 26.95 42.8861 27.3765 43.2908C27.7046 43.6079 28.35 43.6189 28.6562 43.3126C28.9296 43.0392 28.9406 42.4376 28.689 42.1204C28.4484 41.847 27.9125 41.7376 27.6171 41.9017Z" fill="#043353"/>
</g>
<defs>
<clipPath id="clip0_1328_267">
<rect width="56" height="56" fill="white"/>
</clipPath>
</defs>
</svg>
