<svg width="56" height="56" viewBox="0 0 56 56" fill="none" xmlns="http://www.w3.org/2000/svg">
<g clip-path="url(#clip0_1328_481)">
<path d="M2.53749 0.142117C2.01249 0.306179 1.15937 1.11555 0.874994 1.70618C0.710931 2.05618 0.634369 2.42805 0.634369 2.88743C0.634369 3.37962 1.73906 8.37806 4.74687 21.4921C7.01093 31.3577 8.91406 39.5718 8.97968 39.7359C9.31874 40.5562 10.6094 40.3265 10.6094 39.4406C10.6094 39.2437 9.32968 33.3374 7.76562 26.3156C5.27187 15.1156 4.93281 13.4859 5.03124 13.1359C5.14062 12.7312 5.53437 12.2718 5.98281 12.0421C6.27812 11.889 8.53124 11.889 9.57031 12.0312C11.0469 12.2499 12.4687 13.1468 13.3109 14.3827C13.7266 14.9952 14.9625 18.0687 15.7609 20.4531C16.6906 23.2531 17.4672 26.5234 17.8828 29.3671C18.0359 30.4937 19.2391 41.814 19.2062 41.8577C19.1953 41.8687 18.8672 41.9124 18.4844 41.9452L17.7734 42.0218L17.2594 41.5296C16.9859 41.2562 16.4172 40.8734 16.0125 40.6765C15.2906 40.3156 15.2141 40.3046 14 40.3046C12.8078 40.3046 12.6984 40.3265 12.0094 40.6546C10.2484 41.4859 9.14374 43.4327 9.35156 45.314C9.40624 45.8827 11.2109 53.5609 11.4953 54.4687C11.6812 55.0265 12.0969 55.5296 12.5781 55.7812C13.0047 55.9999 13.1906 55.9999 29.7719 55.9781L46.5391 55.9452L47.1953 55.6281C48.4203 55.0265 49.3281 53.8452 49.5687 52.5218L49.6891 51.8765L51.0891 51.8218C52.3141 51.7781 52.5437 51.7343 53.0687 51.4827C54.2828 50.8921 55.1469 49.6999 55.3219 48.3984C55.4531 47.4359 55.2891 45.7843 54.95 44.7234C53.9875 41.6499 51.7453 39.4077 48.825 38.5984C47.2937 38.1718 46.7687 38.2265 33.3047 40.0093C22.5641 41.4312 21.0437 41.6062 20.9781 41.464C20.9453 41.3656 20.6281 38.5765 20.2891 35.2734C19.6 28.4812 19.3484 26.8187 18.4844 23.4062C17.7953 20.6827 15.9359 15.4984 15.0609 13.8359C14.6125 13.0046 13.6172 11.9327 12.7641 11.3749C12.3922 11.1343 12.0531 10.9265 11.9984 10.9046C11.9437 10.8937 12.0094 10.5656 12.1406 10.1718C12.6437 8.66243 12.5344 6.66087 11.8562 5.24993C10.6094 2.63587 8.21406 0.743679 5.42499 0.163994C4.49531 -0.021946 3.08437 -0.0328827 2.53749 0.142117ZM5.35937 1.97962C7.99531 2.70149 10.0297 4.69212 10.6094 7.09837C10.7734 7.78743 10.6969 8.82649 10.4344 9.67962L10.2484 10.2593L8.25781 10.2046C6.01562 10.1281 5.40312 10.2265 4.70312 10.7296C4.46249 10.9046 4.26562 11.0249 4.26562 10.9921C4.26562 10.9593 3.84999 9.22024 3.33593 7.12024C2.82187 5.0093 2.40624 3.11712 2.40624 2.89837C2.40624 2.58118 2.49374 2.40618 2.77812 2.12181C3.12812 1.7718 3.20468 1.74993 3.84999 1.74993C4.23281 1.74993 4.91093 1.84837 5.35937 1.97962ZM48.5625 40.3593C51.3078 41.1687 53.4078 43.9687 53.5719 47.064C53.6484 48.639 53.2875 49.4046 52.2266 49.8859C51.8219 50.0718 51.4062 50.0937 46.8891 50.0937C43.9687 50.0937 41.9016 50.1374 41.7922 50.2031C41.6828 50.2577 41.5297 50.4546 41.4531 50.6406C41.2781 51.0562 41.4531 51.5374 41.8469 51.7234C42.0328 51.7999 43.0937 51.8437 45.0187 51.8437H47.9281L47.8516 52.1937C47.7312 52.7734 47.2281 53.5062 46.7031 53.8671L46.2109 54.1952L33.6109 54.2281C21.6562 54.2499 21.0109 54.239 20.9562 54.064C20.8906 53.8124 20.4531 51.9531 20.4531 51.8874C20.4531 51.8656 24.5656 51.8437 29.5859 51.8437H38.7297L38.9922 51.5702C39.3422 51.2312 39.3531 50.6952 39.025 50.3452L38.7953 50.0937H29.4109H20.0375L19.9281 49.6234C19.3484 47.3046 18.5828 43.8265 18.6375 43.7718C18.6922 43.7281 44.4609 40.2937 46.1562 40.1187C46.8125 40.0421 47.8187 40.1515 48.5625 40.3593ZM15.2797 42.2515C15.7937 42.5249 16.4062 43.1702 16.6359 43.6843C16.7891 44.0452 19.1406 53.8671 19.1406 54.1734C19.1406 54.2171 17.8391 54.2499 16.2422 54.2499C13.5953 54.2499 13.3437 54.2281 13.2453 54.0531C13.1906 53.9546 12.6766 51.8765 12.0859 49.4484C10.9484 44.7343 10.9375 44.6468 11.3641 43.6952C11.6594 43.039 12.075 42.6015 12.7203 42.2734C13.2234 42.0218 13.3875 41.989 14.1094 42.0327C14.5797 42.0546 15.0828 42.1531 15.2797 42.2515Z" fill="#043353"/>
</g>
<defs>
<clipPath id="clip0_1328_481">
<rect width="56" height="56" fill="white"/>
</clipPath>
</defs>
</svg>
