<svg width="56" height="56" viewBox="0 0 56 56" fill="none" xmlns="http://www.w3.org/2000/svg">
<g clip-path="url(#clip0_1328_337)">
<path d="M25.8125 0.153152C22.7172 0.842216 20.1359 2.84378 18.7578 5.63284C17.9484 7.26253 17.8062 7.9844 17.7297 10.8282C17.664 13.2672 17.664 13.2891 17.3797 13.6938C16.7562 14.5688 16.7015 16.0125 17.2265 17.0625C17.7187 18.025 18.5062 18.6485 19.6219 18.9328C20.0375 19.0313 20.1359 19.1078 20.1906 19.3485C20.5953 21.1969 21.5031 22.8047 22.6953 23.7782L23.1875 24.1828V25.2438V26.3047L20.7265 27.2453L18.2656 28.1969L16.6687 26.5235C14.9844 24.7516 14.6234 24.5 13.7703 24.5C13.0484 24.5 12.6109 24.7625 11.2328 26.0532C9.79998 27.3985 9.52654 27.825 9.5156 28.6891C9.5156 29.3563 9.71248 29.7282 10.5765 30.7016L11.2765 31.4891L10.7187 32.1782C10.0187 33.0422 9.48279 34.1578 9.2531 35.2188C9.08904 35.9407 9.0781 37.1 9.09998 45.3469L9.13279 54.6438L9.43904 55.1032C9.6031 55.3547 9.93123 55.661 10.1719 55.7813C10.5875 56 10.7953 56 18.5719 56C26.1515 56 26.5562 55.9891 26.7203 55.8032C26.9719 55.5188 26.9609 54.775 26.7094 54.5453C26.5234 54.3813 26.0312 54.3594 21.8969 54.3594H17.2812V46.1235C17.2812 38.2922 17.2703 37.8657 17.0844 37.7016C16.7234 37.3735 16.264 37.3516 15.9031 37.6578L15.5859 37.9313L15.5531 46.1563L15.5312 54.3703L13.2781 54.3375C11.4297 54.3157 11.025 54.2719 10.9375 54.1407C10.7844 53.9 10.7953 36.3782 10.9484 35.6344C11.1125 34.8688 11.6047 33.8516 12.1297 33.25L12.5453 32.7688L13.9015 34.1907C18.5062 38.9594 19.0531 39.5719 19.3047 40.1844C19.4359 40.5125 19.6437 40.9282 19.7531 41.1032C19.9172 41.3657 25.539 47.3047 28.9953 50.8813C29.5422 51.4391 29.914 51.7125 30.5265 51.9969C31.2156 52.3141 31.4781 52.5219 32.2437 53.3641L33.1515 54.3594H31.3031C29.1922 54.3594 29.0937 54.4032 29.0937 55.2016C29.0937 56.0547 28.5031 56 37.4719 56H45.4562L45.9594 55.6828C46.2875 55.475 46.5281 55.2016 46.6922 54.8844C46.9109 54.4141 46.9219 54.2719 46.9219 50.0828V45.7516L46.6703 45.5219C46.2984 45.1719 45.6969 45.1938 45.4015 45.5657C45.1828 45.85 45.1719 45.9813 45.1719 49.9188C45.1719 52.2703 45.1281 54.0422 45.0625 54.1407C44.9969 54.261 44.7125 54.3157 44.1109 54.3375L43.2578 54.3703L41.8906 52.9266L40.5234 51.4719L40.4687 44.7016L40.414 37.9313L40.0969 37.6578C39.7359 37.3516 39.2765 37.3735 38.9156 37.7016C38.7297 37.8657 38.7187 38.2157 38.7187 43.7391L38.7078 49.6016L37.625 48.4532C36.75 47.5235 36.5094 47.1953 36.3781 46.7578C36.2906 46.4516 36.05 45.9813 35.8531 45.7078C35.6562 45.4235 34.0156 43.6516 32.2109 41.7703C25.8562 35.1094 25.7469 35.011 24.6531 34.6282C24.4125 34.5516 23.5265 33.7094 21.9515 32.0469L19.6 29.586L19.9937 29.4328C20.3547 29.2907 20.3984 29.2907 20.4969 29.4766C21.7328 31.5657 23.625 33.0203 25.8562 33.5782C27.0484 33.8735 28.9515 33.8735 30.1437 33.5782C32.375 33.0203 34.2781 31.5657 35.5031 29.4766C35.6015 29.2907 35.8531 29.3672 38.675 30.461C40.3484 31.1063 41.9672 31.7625 42.2734 31.9266C43.0062 32.3094 44.1765 33.5016 44.5375 34.2344C45.1172 35.4047 45.1719 35.8641 45.1719 39.2875C45.1719 41.3985 45.2156 42.5141 45.2922 42.7C45.5437 43.236 46.539 43.2797 46.8125 42.7657C46.9984 42.4266 46.9437 36.0719 46.7578 35.1641C46.4844 33.8735 45.8172 32.6813 44.8 31.6641C43.6297 30.5047 43.214 30.2969 37.4937 28.0985L32.8125 26.3047V25.1891V24.0625L33.3156 23.6032C34.3765 22.6297 35.3828 20.8141 35.6015 19.5016C35.6672 19.086 35.7 19.0422 36.0719 18.9766C37.1328 18.7797 38.0844 18.0578 38.6312 17.0407C38.85 16.636 38.8828 16.4063 38.8828 15.4766C38.8828 14.4594 38.8609 14.3391 38.5437 13.7813L38.2047 13.1797L38.139 10.9375C38.0734 8.47659 37.9094 7.5469 37.2969 6.11409C36.0281 3.11721 33.239 0.83128 30.0453 0.17503C29.05 -0.0327835 26.7094 -0.0437202 25.8125 0.153152ZM29.914 1.97972C32.4734 2.60315 34.475 4.26565 35.6015 6.70472C36.1375 7.86409 36.3125 8.6844 36.389 10.4672C36.4437 11.8453 36.4328 12.0313 36.2797 12.0313C35.9953 12.0313 35.7656 11.9 35.7656 11.736C35.7656 11.6485 35.7 11.4516 35.6125 11.2875C35.4047 10.8938 33.1297 8.43284 32.8015 8.2469C32.3094 7.97346 31.6094 8.06097 30.9094 8.48753C29.7609 9.17659 28.7656 9.63597 27.464 10.0625C25.7687 10.6313 24.5547 10.8391 22.6187 10.8719C20.8469 10.9157 20.5187 11.025 20.2453 11.6922C20.1469 11.9219 20.0156 12.0203 19.7859 12.0532L19.4687 12.1078V10.6203C19.4687 7.88597 20.2344 5.91722 21.9406 4.21096C24.0625 2.07815 26.9828 1.26878 29.914 1.97972ZM33.064 11.036L34.0156 12.0532V15.2469C34.0156 18.8782 33.939 19.4578 33.2828 20.7047C31.4453 24.2157 26.7422 25.025 23.8219 22.3344C22.9906 21.5578 22.5094 20.8141 22.1484 19.7641C21.8859 18.9547 21.875 18.8672 21.875 15.7828V12.6328L23.1109 12.611C25.7906 12.5563 28.4265 11.8453 30.8984 10.511C31.4453 10.2157 31.9375 9.97503 31.9922 9.98597C32.0578 9.9969 32.539 10.4672 33.064 11.036ZM20.125 15.5313V17.2813L19.8297 17.161C19.1625 16.9094 18.5937 16.111 18.5937 15.4547C18.5937 14.9844 19.0422 14.3063 19.5234 14.0328C19.764 13.8907 19.9937 13.7813 20.0484 13.7813C20.0922 13.7813 20.125 14.5688 20.125 15.5313ZM36.4219 14.0219C36.6187 14.1641 36.8703 14.4485 36.9797 14.6563C37.3953 15.4219 37.1437 16.4282 36.4219 16.9203C35.7765 17.3688 35.7656 17.3469 35.7656 15.4766C35.7656 13.6063 35.7765 13.5844 36.4219 14.0219ZM25.9765 25.4625C26.9828 25.736 29.2578 25.7032 30.1875 25.3969C30.5812 25.2657 30.9312 25.1563 30.9859 25.1563C31.0297 25.1563 31.0625 25.5282 31.0625 25.9766C31.0625 27.3219 31.325 27.6391 32.9219 28.2297C33.4578 28.4375 33.9062 28.6344 33.9062 28.6672C33.9062 28.7 33.6547 29.061 33.3484 29.4657C31.1609 32.3641 26.8297 32.9328 23.9094 30.7125C23.2531 30.2094 22.0937 28.9078 22.0937 28.6782C22.0937 28.6344 22.5422 28.4266 23.0781 28.2297C24.664 27.6391 24.9375 27.3 24.9375 25.911C24.9375 25.211 24.9594 25.1453 25.1344 25.211C25.2328 25.2438 25.6156 25.3641 25.9765 25.4625ZM17.9812 30.4719L21.9625 34.6391L21.4047 34.9016C20.7047 35.2297 19.8953 36.0063 19.5562 36.6953L19.2828 37.2203L15.2797 33.0313C13.0703 30.7235 11.2656 28.7547 11.2656 28.6672C11.2656 28.4157 13.5734 26.25 13.8031 26.2828C13.9015 26.2938 15.7828 28.186 17.9812 30.4719ZM24.3906 36.4438C25.0031 36.75 33.9609 46.036 34.4531 46.8672C35.164 48.0485 34.6828 49.6891 33.4469 50.3235C32.364 50.8813 31.2922 50.6516 30.3297 49.6672C27.5406 46.8453 21.3281 40.25 21.1094 39.8891C20.7156 39.2219 20.7265 38.2047 21.1312 37.5047C21.8094 36.3563 23.275 35.886 24.3906 36.4438ZM38.6094 52.0625L40.8187 54.3594H38.2594H35.7109L34.639 53.2875L33.5672 52.2157L34.1469 51.9532C34.8031 51.6688 35.864 50.6516 36.0828 50.1157C36.1703 49.9188 36.2687 49.7657 36.3125 49.7657C36.3562 49.7657 37.3953 50.7938 38.6094 52.0625Z" fill="#043353"/>
</g>
<defs>
<clipPath id="clip0_1328_337">
<rect width="56" height="56" fill="white"/>
</clipPath>
</defs>
</svg>
