<svg width="56" height="56" viewBox="0 0 56 56" fill="none" xmlns="http://www.w3.org/2000/svg">
<g clip-path="url(#clip0_1328_706)">
<path d="M27.3547 0.284433C27.2234 0.448496 27.125 0.700058 27.125 0.842245C27.125 1.35631 26.8625 2.14381 26.5125 2.69068C25.9328 3.60943 25.2 4.06881 23.9969 4.27662C23.1109 4.41881 22.75 4.69225 22.75 5.19537C22.75 5.64381 23.0891 5.99381 23.5922 6.07037C25.0031 6.27818 25.8781 6.7485 26.4578 7.61256C26.8297 8.18131 27.125 9.0235 27.125 9.55943C27.1359 10.1829 27.7266 10.5985 28.2953 10.3797C28.6781 10.2376 28.8641 9.97506 28.875 9.55943C28.875 9.0235 29.1703 8.18131 29.5422 7.61256C30.1219 6.7485 30.9969 6.27818 32.4078 6.07037C32.9109 5.99381 33.25 5.64381 33.25 5.19537C33.25 4.68131 32.8891 4.40787 32.0031 4.26568C30.8547 4.07975 30.1219 3.64225 29.5203 2.77818C29.1703 2.27506 28.875 1.38912 28.875 0.86412C28.875 0.382871 28.4922 5.81741e-05 28 5.81741e-05C27.6719 5.81741e-05 27.5297 0.0656834 27.3547 0.284433ZM28.6781 4.51725L29.3672 5.20631L28.6891 5.8735L28 6.54068L27.3219 5.8735L26.6328 5.20631L27.2891 4.52818C27.65 4.15631 27.9562 3.85006 27.9672 3.83912C27.9672 3.83912 28.2953 4.13443 28.6781 4.51725Z" fill="#043353"/>
<path d="M3.72969 11.5829C3.60938 11.7032 3.47812 12.0314 3.44531 12.3267C3.2375 13.7595 2.37344 14.6454 0.984375 14.8314C0.2625 14.9298 0 15.1704 0 15.7282C0 16.2861 0.240625 16.4939 1.05 16.6251C2.32969 16.8329 3.19375 17.6861 3.40156 18.9439C3.66406 20.5189 4.99844 20.5517 5.25 18.9876C5.46875 17.6532 6.26719 16.8439 7.62344 16.6251C8.29062 16.5157 8.50937 16.3845 8.65156 15.9907C8.80469 15.597 8.50937 15.0064 8.12656 14.9298C6.63906 14.6126 6.43125 14.5142 5.87344 13.9017C5.49062 13.4751 5.32656 13.0704 5.19531 12.2173C5.1625 11.9876 5.03125 11.7032 4.91094 11.5829C4.6375 11.3095 4.00312 11.3095 3.72969 11.5829ZM4.73594 16.1329L4.33125 16.5704L3.92656 16.1329L3.52187 15.7064L3.92656 15.2907L4.32031 14.8861L4.73594 15.3017L5.15156 15.7064L4.73594 16.1329Z" fill="#043353"/>
<path d="M51.089 11.5829C50.9687 11.7032 50.8375 11.9876 50.8047 12.2173C50.6734 13.0704 50.5094 13.4751 50.1265 13.9017C49.5687 14.5142 49.3609 14.6126 47.8734 14.9298C47.4906 15.0064 47.1953 15.597 47.3484 15.9907C47.4906 16.3845 47.7094 16.5157 48.3765 16.6251C49.7328 16.8439 50.5312 17.6532 50.75 18.9876C51.0015 20.5517 52.3359 20.5189 52.5984 18.9439C52.8062 17.6861 53.6703 16.8329 54.95 16.6251C55.7594 16.4939 56 16.2861 56 15.7282C56 15.1704 55.7375 14.9298 55.0156 14.8314C53.6265 14.6454 52.7625 13.7595 52.5547 12.3267C52.5219 12.0314 52.3906 11.7032 52.2703 11.5829C51.9969 11.3095 51.3625 11.3095 51.089 11.5829ZM52.0734 16.1329L51.6797 16.5704L51.264 16.1439L50.8594 15.7064L51.2531 15.3017L51.6578 14.8861L52.0734 15.2907L52.4781 15.6954L52.0734 16.1329Z" fill="#043353"/>
<path d="M14.0984 15.0828C13.0813 15.411 12.0969 16.2094 11.6266 17.0953C11.5281 17.2813 10.5219 20.0485 9.39532 23.2313L7.36094 29.0172L7.09844 27.9344C6.93438 27.2563 6.73751 26.7422 6.58438 26.5563L6.32188 26.25H3.82813C1.47657 26.25 1.32345 26.261 1.05001 26.4797L0.765633 26.6985V28.8641C0.765633 31.7297 0.51407 31.5 3.64219 31.5H6.00469L4.49532 33.6219C3.65313 34.7922 2.88751 35.9953 2.77813 36.2797C2.58126 36.7719 2.57032 37.2313 2.57032 43.0938V49.3828L2.88751 50.0282C3.06251 50.3891 3.44532 50.925 3.74063 51.2313L4.26563 51.7782V53.3094C4.26563 55.0375 4.37501 55.3657 5.05313 55.7813C5.39219 55.9891 5.56719 56 8.7172 55.9782L12.0203 55.9453L12.4141 55.5625C12.8953 55.1032 13.0156 54.6766 13.0156 53.4516V52.5H27.8906H42.7656V53.4516C42.7656 54.6766 42.8859 55.1032 43.3672 55.5625L43.7609 55.9453L47.0641 55.9782C50.2141 56 50.3891 55.9891 50.7281 55.7813C51.4063 55.3657 51.5156 55.0375 51.5156 53.3094V51.7782L52.0406 51.2313C52.3359 50.925 52.7188 50.3891 52.8938 50.0282L53.2109 49.3828V43.0938C53.2109 37.2313 53.2 36.7719 53.0031 36.2797C52.8938 35.9953 52.1281 34.7922 51.2859 33.6219L49.7766 31.5H52.1609C55.2672 31.5 55.0156 31.7407 55.0156 28.8532V26.6985L54.7313 26.4797C54.4578 26.261 54.3047 26.25 51.9969 26.25C50.6625 26.25 49.4813 26.2828 49.3828 26.3157C49.1313 26.4141 48.9563 26.8297 48.6719 27.9891L48.4203 29.0063L46.375 23.2313C45.2594 20.0485 44.2531 17.2813 44.1438 17.0844C43.8703 16.5485 43.2578 15.925 42.6781 15.5532C41.5625 14.8422 42.3063 14.875 27.8469 14.886C15.5422 14.886 14.6672 14.8969 14.0984 15.0828ZM41.4531 16.9203C41.7813 17.0953 42.1859 17.4016 42.35 17.6094C42.5688 17.8828 43.2688 19.7422 44.7234 23.8438L46.7906 29.6953L44.1984 29.75C42.7766 29.7828 41.5406 29.8485 41.4313 29.8922C41.125 30.0453 40.9719 30.5703 41.125 30.9532C41.2016 31.1391 41.3219 31.325 41.3875 31.3688C41.4531 31.4125 42.8859 31.4672 44.5703 31.5L47.6219 31.5547L49.35 33.961C50.3016 35.2844 51.1766 36.5641 51.2969 36.8157C51.5047 37.2422 51.5156 37.461 51.5156 42.2516V47.25H44.0781H36.6406V43.936C36.6406 41.3438 36.6078 40.4907 36.4766 39.9985C36.1375 38.7078 35.1313 37.5813 33.8297 37.0563C33.1953 36.8047 33.1844 36.8047 27.8906 36.8047C22.5969 36.8047 22.5859 36.8047 21.9516 37.0563C20.65 37.5813 19.6438 38.7078 19.3047 39.9985C19.1734 40.4907 19.1406 41.3438 19.1406 43.936V47.25H11.7031H4.26563V42.2516C4.26563 37.461 4.27657 37.2422 4.48438 36.8157C4.60469 36.5641 5.47969 35.2844 6.43126 33.961L8.15938 31.5547L23.4828 31.5C38.3578 31.4453 38.8172 31.4344 39.0359 31.2375C39.3313 30.975 39.3422 30.4063 39.0578 30.0672L38.85 29.8047L23.9203 29.75L8.99063 29.6953L11.0578 23.8438C12.5125 19.7313 13.2125 17.8828 13.4313 17.6094C13.5953 17.4016 14 17.0953 14.3281 16.9203L14.9188 16.625H27.8906H40.8625L41.4531 16.9203ZM5.49063 28.8203C5.58907 29.236 5.68751 29.6188 5.68751 29.6625C5.68751 29.7172 4.97657 29.75 4.10157 29.75H2.51563V28.875V27.9891L3.90469 28.0219L5.29376 28.0547L5.49063 28.8203ZM53.2656 28.875V29.75H51.6797C50.8047 29.75 50.0938 29.7172 50.0938 29.6844C50.0938 29.6078 50.4109 28.3391 50.4766 28.1313C50.5094 28.0328 50.8922 28 51.8984 28H53.2656V28.875ZM33.0641 38.6532C33.6 38.85 34.2016 39.3203 34.4641 39.7469C34.5734 39.9328 34.6719 40.1188 34.6719 40.1625C34.6719 40.2172 31.6203 40.25 27.8906 40.25C24.1609 40.25 21.1094 40.2172 21.1094 40.1625C21.1094 39.9657 21.5578 39.375 21.9188 39.1016C22.6844 38.5219 22.7609 38.511 27.8906 38.511C31.5875 38.511 32.7359 38.5438 33.0641 38.6532ZM34.8906 42.875V43.75H27.8906H20.8906V42.875V42H27.8906H34.8906V42.875ZM34.8906 46.375V47.25H27.8906H20.8906V46.375V45.5H27.8906H34.8906V46.375ZM51.3188 49.2407C51.2203 49.6453 50.3016 50.4657 49.8094 50.6188C49.1531 50.8157 6.62813 50.8157 5.97188 50.6188C5.47969 50.4657 4.56094 49.6453 4.46251 49.2407L4.39688 49H27.8906H51.3844L51.3188 49.2407ZM11.2656 53.375V54.25H8.64063H6.01563V53.375V52.5H8.64063H11.2656V53.375ZM49.7656 53.375V54.25H47.1406H44.5156V53.375V52.5H47.1406H49.7656V53.375Z" fill="#043353"/>
<path d="M14.6672 17.6969C14.4594 17.7953 14.1969 18.0031 14.0875 18.1562C13.8141 18.5281 10.6094 27.6063 10.6094 28.0109C10.6094 28.2078 10.7188 28.4375 10.8828 28.6016L11.1453 28.875H27.8906H44.6359L44.8984 28.6016C45.0625 28.4375 45.1719 28.2078 45.1719 28.0109C45.1719 27.6063 41.9672 18.5281 41.6938 18.1562C41.5844 18.0031 41.3219 17.7953 41.1141 17.6969C40.7641 17.5109 39.9109 17.5 27.8906 17.5C15.8703 17.5 15.0172 17.5109 14.6672 17.6969ZM41.6828 23.1547L43.0719 27.0703L35.4812 27.1031C31.3031 27.1141 24.4781 27.1141 20.3 27.1031L12.7094 27.0703L14.0984 23.1547L15.4766 19.25H27.8906H40.3047L41.6828 23.1547Z" fill="#043353"/>
<path d="M9.1875 35.9516C8.59688 36.1703 8.43281 36.9578 8.89219 37.3844C9.14375 37.6141 9.22031 37.625 12.075 37.625C13.7375 37.625 15.0828 37.5812 15.1922 37.5156C15.3016 37.4609 15.4547 37.2641 15.5313 37.0781C15.7063 36.6625 15.5313 36.1812 15.1375 35.9953C14.8531 35.875 9.51563 35.8312 9.1875 35.9516Z" fill="#043353"/>
<path d="M40.611 36.0063C40.3047 36.1594 40.1078 36.6406 40.2063 37.0125C40.3485 37.6031 40.4688 37.625 43.6953 37.625C46.6594 37.625 46.6703 37.625 46.9 37.3734C47.2172 37.0344 47.2172 36.4219 46.911 36.1375C46.7031 35.9406 46.4625 35.9297 43.761 35.9078C41.8578 35.8969 40.7641 35.9297 40.611 36.0063Z" fill="#043353"/>
<path d="M10.9594 38.6093C9.17656 38.8609 7.62344 39.8015 7.09844 40.9609C6.80313 41.6062 6.825 42.5359 7.15313 43.1812C8.26875 45.3797 12.4359 46.2218 15.2688 44.8328C17.0516 43.9578 17.7844 42.339 17.0734 40.8734C16.2859 39.2547 13.5734 38.2484 10.9594 38.6093ZM13.2672 40.414C14.2078 40.6109 15.0719 41.0703 15.3891 41.5515C15.6844 41.989 15.6406 42.2297 15.2141 42.689C13.9563 44.0562 10.4672 44.1 9.06719 42.7765C8.52031 42.2406 8.4875 41.8359 8.97969 41.3437C9.87656 40.4468 11.6375 40.064 13.2672 40.414Z" fill="#043353"/>
<path d="M42.4922 38.6204C38.8609 39.1783 37.2422 42.0111 39.3859 44.0673C41.3656 45.9595 45.8391 45.9814 47.9172 44.1111C48.8359 43.2798 49.1531 41.9783 48.6828 40.9611C48.2563 40.0314 47.0203 39.1345 45.675 38.7845C44.8875 38.5767 43.3016 38.4892 42.4922 38.6204ZM45.2922 40.5126C46.0031 40.7314 46.4078 40.9501 46.8016 41.3439C47.2937 41.8361 47.2609 42.2517 46.7141 42.7767C45.3141 44.1001 41.825 44.0564 40.5672 42.6892C40.1406 42.2298 40.0969 41.9892 40.3922 41.5517C41.1031 40.4908 43.5203 39.9767 45.2922 40.5126Z" fill="#043353"/>
</g>
<defs>
<clipPath id="clip0_1328_706">
<rect width="56" height="56" fill="white"/>
</clipPath>
</defs>
</svg>
