<svg width="56" height="56" viewBox="0 0 56 56" fill="none" xmlns="http://www.w3.org/2000/svg">
    <path d="M26.3047 0.120289C24.4235 0.579666 21.6891 1.4656 21.525 1.66248C21.0985 2.15466 21.4703 3.06248 22.1047 3.06248C22.2797 3.06248 23.461 2.76717 24.7406 2.40623C27.8688 1.50935 28.1531 1.50935 31.0188 2.3406C37.6031 4.25467 38.6203 4.58279 39.0031 4.86716C39.8453 5.51248 40.3485 6.63904 40.2063 7.54685C40.1735 7.78748 39.8781 8.56404 39.561 9.29685L38.9922 10.6094H27.9891H16.986L16.4063 9.28592C16.0125 8.41092 15.8047 7.77654 15.7719 7.38279C15.6735 6.16873 16.3735 5.06404 17.5547 4.5281C18.3969 4.15623 18.6156 3.60935 18.1453 3.01873C17.861 2.64685 17.4235 2.64685 16.6469 3.00779C15.8375 3.37967 15.3672 3.77341 14.8641 4.47342C14.2406 5.34842 13.9563 6.35466 14.0219 7.49216C14.0766 8.2906 14.1531 8.5531 14.7766 9.96404L15.4766 11.539L15.5313 19.5781L15.586 27.6172L15.8485 28.3281C16.1985 29.3015 16.5156 29.9031 17.0953 30.7015C17.6422 31.4344 18.6922 32.364 19.3703 32.7031C19.6 32.8234 19.7969 32.9547 19.7969 32.9875C19.7969 33.0203 19.3813 33.6219 18.8672 34.3328L17.9375 35.6234L14.5141 37.0672C12.6438 37.8656 10.7516 38.7297 10.336 38.9922C8.79377 39.9437 7.45939 41.5844 6.78127 43.3344C6.49689 44.0562 6.26721 45.2156 5.56721 49.4812C5.08596 52.3797 4.68127 54.9281 4.67033 55.1687C4.65939 55.4859 4.71408 55.639 4.91096 55.7922C5.18439 56.0219 5.69846 56.0656 6.01564 55.8906C6.12502 55.8359 6.63908 54.9609 7.16408 53.9547C7.68908 52.9375 8.13752 52.0953 8.15939 52.0734C8.18127 52.0515 8.32346 52.1828 8.47658 52.3687C8.73908 52.6859 9.94221 53.375 10.2375 53.375C10.336 53.375 10.3141 53.55 10.161 54.0422C9.87658 54.939 9.88752 55.3547 10.2047 55.65C10.5219 55.9562 11.1563 55.9672 11.4078 55.6937C11.5063 55.5844 11.7141 55.0594 11.8672 54.5234C12.2063 53.3531 12.6438 52.3031 13.2672 51.1437L13.7266 50.2797L14.3938 50.0937C15.2141 49.875 15.7063 49.5797 16.2969 48.9344C16.8219 48.3656 17.2266 47.5562 17.4016 46.7031C17.4781 46.375 17.5766 46.0469 17.6313 45.9703C17.8172 45.7297 19.5344 44.6469 20.5078 44.1656C25.1781 41.825 30.4391 41.7812 35.2188 44.0344C36.7172 44.7453 38.3688 45.8719 38.4563 46.2437C38.7516 47.5453 39.0578 48.2234 39.6813 48.9125C40.2281 49.525 40.9172 49.9515 41.6172 50.1047C42.175 50.225 42.2078 50.2469 42.6344 51.0125C43.1922 52.0078 43.7719 53.4078 44.1328 54.6437C44.286 55.1797 44.4938 55.6828 44.5922 55.7594C44.8985 55.989 45.4781 55.9234 45.7735 55.6172C46.1016 55.3 46.1125 55.0703 45.8281 54.1406C45.5656 53.2984 45.5766 53.375 45.7516 53.375C46.0469 53.375 47.0203 52.8281 47.3922 52.4672L47.786 52.0734L48.7375 53.8453C49.2516 54.8187 49.7547 55.7047 49.8531 55.8031C50.0391 56.0219 50.6406 56.0656 50.9797 55.8797C51.1 55.825 51.2422 55.65 51.2969 55.5187C51.4281 55.1797 49.7547 45.0187 49.361 43.7719C49.2078 43.2687 48.836 42.4594 48.5406 41.9672C47.9719 41.0047 46.911 39.8453 46.5281 39.7469C46.2438 39.6703 45.6641 39.9547 45.5656 40.1953C45.3797 40.6875 45.5 41.0156 46.1453 41.7156C46.7906 42.4375 47.5672 43.7828 47.786 44.5703C47.9281 45.0625 48.6719 49.4812 48.6719 49.7547C48.661 49.8531 48.1906 49.0109 47.6219 47.8734C46.6703 46.0031 46.5063 45.7515 45.7406 44.964C44.4172 43.6187 42.9625 42.7547 41.4094 42.3609C40.786 42.2078 40.5563 42.1969 40.0531 42.3062C39.3531 42.4484 38.9922 42.7437 38.6969 43.389L38.4891 43.8484L37.9203 43.4875C36.411 42.514 34.5078 41.7047 32.6703 41.2344L31.5 40.939L34.475 39.1562C36.1047 38.1719 37.5047 37.3734 37.5594 37.3734C37.625 37.3734 38.6313 37.7781 39.8016 38.2812C40.961 38.7844 42.0656 39.189 42.2516 39.189C42.9297 39.189 43.3563 38.2265 42.8641 37.7781C42.7438 37.6687 41.6063 37.1219 40.3375 36.5859L38.0297 35.6015L37.0781 34.289L36.1266 32.9765L36.575 32.725C38.2922 31.7515 39.6156 30.0453 40.2063 28.0547C40.3813 27.464 40.4031 26.6328 40.4578 19.414L40.5235 11.4297L41.1469 10.0625C41.9235 8.35623 42.0875 7.53592 41.9016 6.4531C41.825 6.02654 41.6172 5.39217 41.4422 5.04216C41.0922 4.34216 40.1953 3.42342 39.5281 3.08435C39.2985 2.96404 36.9578 2.23123 34.3438 1.4656L29.586 0.0656013L28.1641 0.0327911C27.3875 0.0218506 26.5453 0.0546646 26.3047 0.120289ZM38.7188 13.0156V13.7812H28H17.2813V13.0156V12.25H28H38.7188V13.0156ZM38.4453 15.9359C38.0735 16.8328 37.2641 17.5656 36.3235 17.8828C35.8641 18.0359 34.8578 18.0469 27.7703 18.025L19.7422 17.9922L19.1953 17.6969C18.561 17.3687 17.7735 16.5703 17.5438 16.0234C17.4563 15.8156 17.3906 15.6187 17.3906 15.5859C17.3906 15.5531 22.1703 15.5312 28 15.5312H38.6094L38.4453 15.9359ZM18.8453 19.5125C19.4031 19.7422 19.5453 19.7422 27.5625 19.775C33.3703 19.7969 35.8969 19.775 36.3672 19.6875C37.0125 19.5562 37.8438 19.1953 38.4235 18.7906L38.7188 18.5828V22.4984C38.7188 24.8719 38.675 26.6875 38.5985 27.0703C38.336 28.4703 37.4938 29.8484 36.3672 30.7015C35.4594 31.3906 35.0656 31.5547 31.3031 32.6922L27.9891 33.7094L24.686 32.7031C22.8703 32.1453 21.0219 31.5219 20.5735 31.314C19.0422 30.5812 17.7516 28.9406 17.4016 27.2562C17.325 26.8953 17.2813 25.1453 17.2813 22.6406V18.6047L17.7844 18.9437C18.0578 19.1297 18.5391 19.3812 18.8453 19.5125ZM23.2313 34.3C24.0735 34.6281 25.1781 35.0219 25.6922 35.164C26.3375 35.339 26.6219 35.4594 26.6 35.5578C26.5891 35.6453 26.2391 36.5094 25.8453 37.4828C25.1453 39.2 25.1125 39.2547 24.8938 39.1234C24.7625 39.0359 23.5703 38.325 22.236 37.5156L19.7969 36.0609L20.136 35.6125C20.3219 35.3719 20.7047 34.8359 20.9781 34.4312C21.2625 34.0265 21.5469 33.6875 21.6016 33.6875C21.6672 33.6875 22.4 33.9609 23.2313 34.3ZM35.2625 34.825C35.7219 35.4484 36.0938 36.0062 36.0938 36.0609C36.0828 36.1484 30.9422 39.2328 30.8547 39.189C30.8 39.1672 29.3125 35.5469 29.3125 35.4484C29.3125 35.4156 29.6953 35.2953 30.1656 35.1859C30.625 35.0765 31.7188 34.7047 32.5938 34.3547C33.4688 33.9937 34.2344 33.7094 34.311 33.6984C34.3766 33.6875 34.8031 34.2015 35.2625 34.825ZM28.7438 38.8062C29.1156 39.7469 29.4328 40.5453 29.4219 40.5781C29.4219 40.6656 26.6328 40.6219 26.5891 40.5344C26.5344 40.4469 27.9125 37.0781 28 37.0781C28.0328 37.0781 28.361 37.8547 28.7438 38.8062ZM21.4922 39.1562C22.936 40.0094 24.1828 40.775 24.2594 40.8515C24.3797 40.9609 24.325 40.9937 23.9641 41.0594C22.575 41.2781 19.5891 42.4922 18.1781 43.4109C17.8063 43.6625 17.4781 43.8594 17.4453 43.8594C17.4235 43.8594 17.3797 43.7062 17.336 43.5312C17.2266 43.039 16.6469 42.4812 16.0781 42.3281C14.3719 41.8578 11.036 43.6515 9.47189 45.8719C9.20939 46.2437 8.64064 47.239 8.19221 48.0922C7.75471 48.9453 7.37189 49.6344 7.36096 49.6125C7.33908 49.6015 7.50314 48.5406 7.71096 47.2609C8.12658 44.7781 8.35627 43.925 8.89221 42.9953C9.34064 42.1969 10.5547 40.939 11.3094 40.4797C11.6485 40.2828 13.3875 39.4844 15.1813 38.7187C17.9922 37.5047 18.4625 37.3406 18.6485 37.45C18.7688 37.5265 20.0485 38.2922 21.4922 39.1562ZM15.761 44.4281C15.9031 44.9859 15.8266 46.0031 15.586 46.714C15.2141 47.7859 14.175 48.5625 13.2891 48.4203C12.5235 48.3 10.8281 47.3265 10.8281 47.0203C10.8281 46.7687 12.4469 45.3031 13.2125 44.8437C13.9563 44.4062 15.0281 43.9906 15.4438 43.9797C15.575 43.9687 15.6735 44.1109 15.761 44.4281ZM41.4531 44.2203C42.6235 44.6359 44.1328 45.6969 44.8656 46.6156L45.2156 47.064L44.8438 47.3812C44.2969 47.8406 43.1813 48.3656 42.6235 48.4203C41.7703 48.5187 40.9281 47.9062 40.4578 46.8672C40.261 46.4297 40.2063 46.1125 40.1953 45.3359C40.1953 43.8265 40.2281 43.7937 41.4531 44.2203ZM10.686 49.2187C11.0688 49.4703 11.5063 49.7109 11.6485 49.7656L11.911 49.864L11.4625 50.75C11.0906 51.4828 10.9813 51.625 10.7516 51.625C10.0735 51.625 9.40627 50.9031 9.40627 50.1703C9.40627 49.8203 9.80002 48.7812 9.93127 48.7812C9.96408 48.7812 10.3031 48.9781 10.686 49.2187ZM46.375 49.35C46.725 50.1594 46.6375 50.6734 46.0578 51.2094C45.7516 51.5047 45.5219 51.625 45.2813 51.625C44.986 51.625 44.9203 51.5594 44.5156 50.75L44.0781 49.875L44.7016 49.5578C45.0516 49.3828 45.4563 49.1422 45.6094 49.0109C45.7625 48.8906 45.9375 48.7922 46.0031 48.7812C46.0688 48.7812 46.2438 49.0328 46.375 49.35Z" fill="#043353"/>
    <path d="M24.6313 26.8733C24.4125 26.9608 24.15 27.5624 24.2156 27.8358C24.3141 28.2186 25.1344 28.9514 25.8672 29.3124C27.65 30.1874 29.7063 29.903 31.1609 28.5905C31.6422 28.153 31.7188 28.0327 31.7188 27.6827C31.7188 26.7858 30.8328 26.5124 30.0891 27.1796C29.4547 27.7483 28.7219 28.0436 27.9453 28.0436C27.1578 28.0327 26.6984 27.8467 25.9766 27.2452C25.4516 26.8186 25.0578 26.6983 24.6313 26.8733Z" fill="#043353"/>
    <path d="M24.8281 44.2859C20.4859 45.2156 16.5922 48.1578 14.5688 52.0516C13.9125 53.3094 13.4531 54.5562 13.4531 55.0813C13.4531 55.5844 13.7703 55.8906 14.3062 55.8906C14.8203 55.8906 14.9953 55.7047 15.2578 54.9062C16.6359 50.6625 20.4859 47.1188 24.85 46.1016L25.4844 45.9594V49.4156C25.4844 51.3187 25.4297 53.4297 25.3641 54.1078C25.2328 55.3438 25.2328 55.3547 25.4953 55.6281C25.7031 55.8469 25.8344 55.8906 26.1844 55.8688C26.8297 55.8141 26.9937 55.5297 27.125 54.0859C27.2781 52.4234 27.2672 45.0844 27.1141 44.6359C26.8953 44.0234 26.4359 43.9469 24.8281 44.2859Z" fill="#043353"/>
    <path d="M29.0391 44.3515L28.7656 44.614V49.153C28.7656 54.053 28.8531 55.2343 29.2359 55.6499C29.5531 55.989 30.1109 55.978 30.4719 55.6061C30.7125 55.3765 30.7453 55.2671 30.6797 54.928C30.6359 54.7093 30.5812 52.5983 30.5484 50.2358L30.5047 45.9483L31.1937 46.1124C32.6594 46.4515 34.6172 47.3811 35.9516 48.3655C38.0078 49.8749 39.7578 52.2374 40.6328 54.6874C40.9937 55.7046 41.1578 55.8905 41.6719 55.8905C42.1422 55.8905 42.5469 55.5296 42.5469 55.114C42.5469 54.3483 41.4422 51.8983 40.4359 50.4327C39.1891 48.6171 36.8484 46.5936 34.7484 45.5436C33.3703 44.8436 30.7234 44.078 29.6953 44.078C29.4219 44.078 29.2141 44.1655 29.0391 44.3515Z" fill="#043353"/>
</svg>
