<svg width="130" height="40" viewBox="0 0 130 40" fill="none" xmlns="http://www.w3.org/2000/svg">
<path d="M56.3741 19.724C56.4229 20.336 56.3799 21.013 56.051 21.608C55.3943 22.798 54.0408 23.401 52.8106 23.642C51.7304 23.8527 50.6497 23.8567 49.5682 23.654C48.0777 23.3747 46.8223 22.659 45.8021 21.507C45.7415 21.4383 45.7154 21.377 45.7237 21.323C45.7339 21.2597 45.7724 21.1943 45.8393 21.127C46.0751 20.893 46.2998 20.6687 46.5132 20.454C46.5258 20.4413 46.5407 20.4314 46.557 20.4248C46.5733 20.4183 46.5907 20.4152 46.6081 20.4157C46.6256 20.4163 46.6428 20.4205 46.6586 20.4281C46.6745 20.4357 46.6888 20.4465 46.7006 20.46C47.4831 21.3647 48.4403 21.966 49.5721 22.264C49.7416 22.3087 49.9783 22.3417 50.2823 22.363C50.6025 22.385 50.9265 22.448 51.2363 22.433C52.3193 22.382 53.3879 22.278 54.1832 21.713C55.5941 20.711 55.3093 19.019 53.7779 18.381C53.5377 18.281 53.1901 18.2277 52.7351 18.221C52.0781 18.2117 51.4211 18.211 50.764 18.219C50.223 18.226 49.7326 18.16 49.2098 18.09C48.2529 17.962 47.1718 17.576 46.7245 16.588C46.2899 15.6273 46.331 14.698 46.8478 13.8C47.2856 13.038 48.1 12.478 48.9316 12.169C49.5166 11.9517 50.0691 11.843 50.5891 11.843C51.242 11.844 51.914 11.809 52.5277 11.937C53.7142 12.1843 54.7931 12.697 55.7643 13.475C55.7885 13.4943 55.7913 13.517 55.7729 13.543L55.1076 14.456C55.0838 14.4883 55.0499 14.5108 55.0119 14.5194C54.9739 14.528 54.9343 14.5222 54.9002 14.503C54.5331 14.298 54.1507 13.998 53.82 13.825C52.4792 13.1237 51.0671 12.979 49.5835 13.391C48.8399 13.598 48.0704 14.127 47.8199 14.89C47.5876 15.592 47.9547 16.287 48.6114 16.539C48.8427 16.627 49.2356 16.723 49.5367 16.744C50.3377 16.7987 51.1397 16.8183 51.9427 16.803C53.8267 16.768 56.1791 17.299 56.3741 19.724Z" fill="white"/>
<path d="M118.033 14.559C116.959 13.758 116.079 13.332 114.778 13.199C113.496 13.069 111.421 13.4 110.93 14.869C110.53 16.072 111.611 16.646 112.548 16.727C112.978 16.763 113.396 16.812 113.833 16.8C114.951 16.7693 115.903 16.808 116.689 16.916C116.956 16.952 117.319 17.078 117.779 17.294C118.625 17.6913 119.165 18.344 119.399 19.252C119.488 19.597 119.461 19.994 119.454 20.363C119.434 21.3 119.073 21.874 118.432 22.483C117.756 23.125 116.797 23.477 115.9 23.645C113.318 24.129 110.693 23.569 108.879 21.488C108.841 21.4446 108.821 21.3874 108.823 21.3285C108.825 21.2697 108.849 21.2138 108.889 21.173L109.57 20.491C109.587 20.4743 109.606 20.4612 109.628 20.4525C109.649 20.4438 109.672 20.4396 109.696 20.4403C109.719 20.4409 109.741 20.4464 109.763 20.4563C109.784 20.4662 109.803 20.4804 109.818 20.498C110.479 21.2373 111.259 21.7703 112.157 22.097C112.649 22.2757 113.214 22.382 113.853 22.416C114.462 22.4487 115.041 22.4233 115.588 22.34C115.895 22.2933 116.276 22.179 116.731 21.997C118.554 21.272 118.764 19.074 116.777 18.339C116.559 18.2577 116.256 18.2167 115.869 18.216C114.551 18.212 113.133 18.325 111.828 18.003C111.255 17.861 110.811 17.665 110.495 17.415C109.192 16.382 109.276 14.363 110.404 13.202C110.944 12.6473 111.581 12.2727 112.318 12.078C112.657 11.988 113.142 11.861 113.566 11.852C114.126 11.8413 114.685 11.8417 115.245 11.853C115.387 11.856 115.524 11.93 115.689 11.962C116.828 12.1853 117.879 12.686 118.842 13.464C118.873 13.4893 118.877 13.5183 118.853 13.551L118.132 14.544C118.121 14.5596 118.104 14.5699 118.085 14.5727C118.067 14.5755 118.048 14.5706 118.033 14.559Z" fill="white"/>
<path d="M14.9806 13.515L14.9729 23.5C14.9729 23.514 14.9676 23.5275 14.9581 23.5374C14.9486 23.5474 14.9357 23.553 14.9223 23.553L13.7341 23.552C13.7207 23.552 13.7078 23.5464 13.6983 23.5364C13.6888 23.5265 13.6835 23.513 13.6835 23.499L13.6892 13.519C13.6892 13.5049 13.6839 13.4914 13.6744 13.4815C13.6649 13.4715 13.652 13.466 13.6385 13.466L9.63721 13.467C9.62377 13.467 9.61089 13.4614 9.60139 13.4514C9.59189 13.4415 9.58655 13.428 9.58655 13.414L9.59706 12.119C9.59706 12.112 9.59837 12.1051 9.60092 12.0987C9.60347 12.0923 9.6072 12.0864 9.6119 12.0815C9.61661 12.0766 9.62219 12.0727 9.62834 12.07C9.63448 12.0673 9.64107 12.066 9.64772 12.066L18.9074 12.064C18.9208 12.064 18.9337 12.0695 18.9432 12.0795C18.9527 12.0894 18.958 12.1029 18.958 12.117L18.9561 13.416C18.9561 13.43 18.9508 13.4435 18.9413 13.4534C18.9318 13.4634 18.9189 13.469 18.9054 13.469L15.0313 13.462C15.0178 13.462 15.0049 13.4675 14.9954 13.4775C14.9859 13.4874 14.9806 13.5009 14.9806 13.515Z" fill="white"/>
<path d="M23.1295 18.872L23.1362 23.499C23.1362 23.5337 23.1196 23.551 23.0865 23.551L21.8563 23.555C21.8142 23.555 21.7932 23.533 21.7932 23.489L21.7941 12.148C21.7941 12.0913 21.8215 12.063 21.8763 12.063C23.537 12.0663 25.2101 12.0667 26.8957 12.064C27.4052 12.063 27.9271 12.113 28.4499 12.146C29.9602 12.242 31.3013 12.951 31.6837 14.579C31.7219 14.7423 31.7337 15.0907 31.719 15.624C31.7069 16.0473 31.662 16.391 31.5843 16.655C31.3173 17.5577 30.7536 18.1967 29.8933 18.572C29.6457 18.68 29.315 18.68 29.0388 18.841C29.0317 18.8451 29.0255 18.8505 29.0205 18.8571C29.0155 18.8637 29.0118 18.8712 29.0096 18.8793C29.0074 18.8874 29.0067 18.8958 29.0076 18.9042C29.0085 18.9126 29.011 18.9206 29.0149 18.928L31.4438 23.46C31.4489 23.4697 31.4515 23.4807 31.4514 23.4919C31.4513 23.503 31.4483 23.5139 31.4429 23.5235C31.4375 23.5331 31.4298 23.541 31.4206 23.5466C31.4113 23.5521 31.4009 23.555 31.3902 23.555L30.0329 23.547C30.0146 23.547 29.9967 23.5419 29.9811 23.5322C29.9654 23.5225 29.9526 23.5086 29.944 23.492L27.5285 18.929C27.5103 18.8942 27.4834 18.8651 27.4508 18.8449C27.4182 18.8246 27.381 18.814 27.343 18.814L23.183 18.816C23.1473 18.816 23.1295 18.8347 23.1295 18.872ZM23.1343 13.587V17.323C23.1343 17.3545 23.1463 17.3848 23.1676 17.4071C23.1889 17.4295 23.2179 17.442 23.248 17.442H28.4805C28.7385 17.442 28.9939 17.3952 29.2322 17.3044C29.4706 17.2135 29.6871 17.0803 29.8695 16.9124C30.0519 16.7445 30.1966 16.5452 30.2953 16.3259C30.394 16.1065 30.4449 15.8714 30.4449 15.634V15.276C30.4449 14.7965 30.2379 14.3366 29.8695 13.9975C29.5011 13.6585 29.0015 13.468 28.4805 13.468H23.248C23.2179 13.468 23.1889 13.4805 23.1676 13.5028C23.1463 13.5252 23.1343 13.5554 23.1343 13.587Z" fill="white"/>
<path d="M41.514 19.625H36.3216C36.314 19.625 36.3066 19.6272 36.3001 19.6315C36.2937 19.6357 36.2885 19.6418 36.2853 19.649L34.58 23.527C34.5769 23.5344 34.5718 23.5406 34.5653 23.5451C34.5589 23.5495 34.5514 23.5519 34.5437 23.552L33.171 23.549C33.1643 23.5488 33.1578 23.5469 33.152 23.5434C33.1462 23.54 33.1413 23.535 33.1378 23.529C33.1342 23.5231 33.1322 23.5163 33.1318 23.5093C33.1315 23.5023 33.1328 23.4953 33.1357 23.489L38.3271 12.089C38.3302 12.082 38.3352 12.076 38.3415 12.0717C38.3477 12.0675 38.355 12.0652 38.3624 12.065L39.6127 12.063C39.6203 12.063 39.6278 12.0652 39.6342 12.0695C39.6406 12.0737 39.6458 12.0798 39.649 12.087L44.7525 23.49C44.7554 23.4964 44.7567 23.5035 44.7563 23.5105C44.7559 23.5176 44.7538 23.5245 44.7501 23.5305C44.7465 23.5364 44.7415 23.5414 44.7356 23.5448C44.7296 23.5482 44.7229 23.55 44.7162 23.55L43.3359 23.549C43.3283 23.549 43.3208 23.5467 43.3144 23.5425C43.308 23.5382 43.3028 23.5322 43.2996 23.525L41.5503 19.649C41.547 19.6418 41.5419 19.6357 41.5355 19.6315C41.529 19.6272 41.5216 19.625 41.514 19.625ZM36.9984 18.161C36.9963 18.1658 36.9955 18.171 36.9958 18.1762C36.9961 18.1814 36.9977 18.1865 37.0003 18.1909C37.003 18.1954 37.0066 18.1991 37.011 18.2017C37.0153 18.2043 37.0201 18.2058 37.0251 18.206L40.8984 18.228C40.9036 18.228 40.9087 18.2267 40.9133 18.2241C40.9178 18.2214 40.9217 18.2177 40.9245 18.2131C40.9272 18.2084 40.9288 18.2032 40.9291 18.1977C40.9294 18.1923 40.9284 18.1869 40.9261 18.182L39.0115 13.807C39.0091 13.8014 39.0053 13.7967 39.0004 13.7933C38.9955 13.79 38.9899 13.7881 38.984 13.788C38.9782 13.7879 38.9725 13.7895 38.9675 13.7927C38.9626 13.7959 38.9586 13.8005 38.956 13.806L36.9984 18.161Z" fill="white"/>
<path d="M60.6278 13.5279L60.6355 16.8169C60.6355 16.8334 60.6417 16.8492 60.6528 16.8608C60.6639 16.8724 60.679 16.8789 60.6947 16.8789L64.5584 16.8759C64.5741 16.8759 64.5892 16.8825 64.6003 16.8941C64.6114 16.9057 64.6177 16.9215 64.6177 16.9379L64.6263 18.1889C64.6263 18.2054 64.62 18.2212 64.6089 18.2328C64.5978 18.2444 64.5827 18.2509 64.567 18.2509L60.6947 18.2479C60.679 18.2479 60.6639 18.2545 60.6528 18.2661C60.6417 18.2777 60.6355 18.2935 60.6355 18.3099L60.6259 22.1469C60.6259 22.1634 60.6321 22.1792 60.6432 22.1908C60.6544 22.2024 60.6694 22.2089 60.6852 22.2089L68.5798 22.2099C68.5955 22.2099 68.6106 22.2165 68.6217 22.2281C68.6328 22.2397 68.6391 22.2555 68.6391 22.2719L68.6429 23.4899C68.6429 23.5064 68.6366 23.5222 68.6255 23.5338C68.6144 23.5454 68.5993 23.5519 68.5836 23.5519H59.3354C59.3197 23.5519 59.3047 23.5454 59.2935 23.5338C59.2824 23.5222 59.2762 23.5064 59.2762 23.4899L59.28 12.1269C59.28 12.1105 59.2863 12.0947 59.2974 12.0831C59.3085 12.0715 59.3236 12.0649 59.3393 12.0649H68.228C68.2437 12.0649 68.2588 12.0715 68.2699 12.0831C68.281 12.0947 68.2873 12.1105 68.2873 12.1269L68.2911 13.4039C68.2911 13.4204 68.2849 13.4362 68.2738 13.4478C68.2626 13.4594 68.2476 13.4659 68.2318 13.4659H60.6871C60.6713 13.4659 60.6563 13.4725 60.6452 13.4841C60.634 13.4957 60.6278 13.5115 60.6278 13.5279Z" fill="white"/>
<path d="M78.8393 18.9039C79.6237 20.3873 80.4213 21.8623 81.2318 23.3289C81.2612 23.3823 81.2838 23.4206 81.2997 23.4439C81.3064 23.4537 81.3104 23.4651 81.3113 23.4771C81.3121 23.489 81.3098 23.501 81.3046 23.5117C81.2993 23.5223 81.2913 23.5313 81.2816 23.5375C81.2718 23.5437 81.2605 23.547 81.2491 23.5469L79.8716 23.5519C79.8429 23.5519 79.8206 23.5396 79.8047 23.5149C79.6926 23.3396 79.59 23.1623 79.4969 22.9829C78.9502 21.9263 78.3919 20.8766 77.8222 19.8339C77.654 19.5259 77.5093 19.2229 77.3882 18.9249C77.3752 18.8923 77.3532 18.8645 77.325 18.8449C77.2967 18.8253 77.2635 18.8149 77.2296 18.8149L73.0065 18.8089C72.974 18.8089 72.9577 18.8259 72.9577 18.8599L72.9663 23.4959C72.9663 23.5326 72.9488 23.5509 72.9138 23.5509L71.7533 23.5559C71.7106 23.5559 71.6893 23.5339 71.6893 23.4899L71.6912 12.1259C71.6912 12.11 71.6972 12.0948 71.708 12.0835C71.7187 12.0723 71.7333 12.0659 71.7485 12.0659C73.399 12.0653 75.0549 12.0653 76.7163 12.0659C78.541 12.0659 80.9068 12.2099 81.4813 14.4789C81.64 15.1056 81.6336 15.7616 81.4622 16.4469C81.1895 17.5389 80.571 18.2589 79.6068 18.6069C79.4415 18.6669 79.104 18.7139 78.8641 18.8279C78.8297 18.8439 78.8214 18.8693 78.8393 18.9039ZM72.9663 13.5269L72.9529 17.3589C72.9529 17.3788 72.9605 17.3979 72.9739 17.412C72.9874 17.426 73.0056 17.4339 73.0246 17.4339L78.2648 17.4529C78.526 17.4538 78.7848 17.408 79.0265 17.318C79.2681 17.228 79.4878 17.0956 79.673 16.9283C79.8583 16.7611 80.0054 16.5623 80.1061 16.3433C80.2068 16.1243 80.259 15.8894 80.2597 15.6519L80.2616 15.2859C80.2624 15.0485 80.2117 14.8132 80.1124 14.5935C80.0131 14.3738 79.8672 14.174 79.6831 14.0054C79.4989 13.8369 79.28 13.7029 79.039 13.6112C78.7979 13.5195 78.5394 13.4718 78.2782 13.4709L73.038 13.4519C73.019 13.4519 73.0008 13.4598 72.9873 13.4739C72.9739 13.488 72.9663 13.507 72.9663 13.5269Z" fill="white"/>
<path d="M93.2626 17.4962C93.2527 17.5046 93.2448 17.5153 93.2395 17.5274C93.2342 17.5395 93.2317 17.5527 93.2321 17.5659C93.2326 17.5791 93.236 17.592 93.2421 17.6036C93.2483 17.6151 93.2569 17.6249 93.2674 17.6322C93.8001 18.0129 94.1968 18.4936 94.4574 19.0742C94.576 19.3382 94.6441 19.6502 94.662 20.0102C94.6859 20.5072 94.7107 21.0562 94.5435 21.5162C94.1334 22.6442 93.3304 23.1632 92.2293 23.4012C91.9482 23.4612 91.65 23.5472 91.3652 23.5482C89.122 23.5529 86.8792 23.5546 84.6367 23.5532C84.6023 23.5532 84.5851 23.5356 84.5851 23.5002L84.5908 12.1012C84.5908 12.0928 84.594 12.0846 84.5998 12.0786C84.6055 12.0726 84.6133 12.0692 84.6214 12.0692C86.7524 12.0599 88.8866 12.0619 91.0239 12.0752C91.4292 12.0779 91.8836 12.1802 92.387 12.3822C93.2403 12.7242 93.7991 13.3219 94.0636 14.1752C94.4096 15.2922 94.1764 16.7372 93.2626 17.4962ZM85.9233 13.6012L85.9291 16.8972C85.9291 16.9362 85.9439 16.9736 85.9702 17.0012C85.9966 17.0288 86.0323 17.0442 86.0696 17.0442L90.9207 17.0352C91.4479 17.0343 91.9532 16.845 92.3255 16.5089C92.6978 16.1729 92.9066 15.7176 92.906 15.2432V15.2312C92.9057 14.9963 92.854 14.7637 92.7538 14.5467C92.6535 14.3298 92.5068 14.1328 92.3219 13.9669C92.137 13.8011 91.9176 13.6696 91.6762 13.5801C91.4347 13.4906 91.1761 13.4448 90.9149 13.4452L86.0638 13.4542C86.0266 13.4542 85.9908 13.4697 85.9645 13.4973C85.9381 13.5249 85.9233 13.5623 85.9233 13.6012ZM85.9396 18.4272L85.9338 22.1412C85.9338 22.159 85.9406 22.1761 85.9526 22.1886C85.9646 22.2012 85.9809 22.2082 85.9979 22.2082L91.1616 22.2182C91.4542 22.2188 91.744 22.1746 92.0145 22.0882C92.2849 22.0018 92.5308 21.8749 92.738 21.7147C92.9451 21.5545 93.1096 21.3642 93.2219 21.1546C93.3342 20.945 93.3922 20.7203 93.3926 20.4932V20.1032C93.3933 19.6447 93.1593 19.2045 92.742 18.8795C92.3247 18.5545 91.7582 18.3713 91.1673 18.3702L86.0036 18.3602C85.9952 18.3602 85.9869 18.362 85.9791 18.3653C85.9713 18.3687 85.9643 18.3736 85.9583 18.3799C85.9524 18.3861 85.9477 18.3935 85.9444 18.4016C85.9412 18.4097 85.9396 18.4184 85.9396 18.4272Z" fill="white"/>
<path d="M99.3783 19.65L97.6759 23.534C97.6727 23.5412 97.6676 23.5474 97.6611 23.5516C97.6547 23.5559 97.6472 23.5581 97.6396 23.558L96.266 23.547C96.2595 23.5468 96.2532 23.5449 96.2476 23.5415C96.242 23.5381 96.2373 23.5333 96.2339 23.5276C96.2305 23.5219 96.2285 23.5153 96.2281 23.5086C96.2277 23.5019 96.2289 23.4951 96.2315 23.489L101.421 12.087C101.424 12.08 101.429 12.0742 101.436 12.0701C101.442 12.0661 101.449 12.0639 101.456 12.064L102.709 12.067C102.716 12.067 102.723 12.0693 102.73 12.0736C102.736 12.0778 102.741 12.0839 102.744 12.091L107.855 23.498C107.858 23.5042 107.859 23.5112 107.859 23.5181C107.859 23.5251 107.857 23.5318 107.853 23.5377C107.85 23.5437 107.845 23.5485 107.839 23.5519C107.833 23.5552 107.826 23.557 107.82 23.557L106.434 23.548C106.426 23.548 106.419 23.5459 106.413 23.5418C106.407 23.5377 106.402 23.5319 106.398 23.525L104.64 19.648C104.637 19.641 104.632 19.6352 104.626 19.6311C104.62 19.6271 104.612 19.6249 104.605 19.625L99.4137 19.626C99.4062 19.626 99.3989 19.6283 99.3926 19.6326C99.3864 19.6368 99.3814 19.6429 99.3783 19.65ZM100.092 18.159C100.09 18.1639 100.089 18.1694 100.089 18.1749C100.09 18.1803 100.091 18.1856 100.094 18.1903C100.097 18.195 100.101 18.1988 100.105 18.2016C100.11 18.2043 100.115 18.2058 100.12 18.206L103.986 18.227C103.991 18.227 103.996 18.2256 104.001 18.2229C104.006 18.2203 104.01 18.2164 104.012 18.2117C104.015 18.207 104.017 18.2017 104.017 18.1961C104.018 18.1906 104.017 18.185 104.014 18.18L102.104 13.81C102.101 13.8042 102.097 13.7994 102.092 13.7959C102.087 13.7925 102.081 13.7907 102.075 13.7907C102.069 13.7907 102.063 13.7925 102.058 13.7959C102.053 13.7994 102.049 13.8042 102.046 13.81L100.092 18.159Z" fill="white"/>
<path d="M38.9818 31.2219L38.956 32.6768C38.9559 32.6874 38.9578 32.6978 38.9615 32.7075C38.9652 32.7173 38.9707 32.7262 38.9777 32.7337C38.9848 32.7412 38.9931 32.7472 39.0023 32.7514C39.0116 32.7555 39.0215 32.7577 39.0315 32.7578L42.1315 32.7608C42.1516 32.7608 42.1709 32.7691 42.1852 32.7839C42.1995 32.7987 42.2077 32.8188 42.2079 32.8399L42.2118 33.2229C42.2119 33.2334 42.21 33.244 42.2062 33.2538C42.2024 33.2636 42.1968 33.2725 42.1897 33.2801C42.1826 33.2876 42.1741 33.2936 42.1648 33.2977C42.1554 33.3017 42.1454 33.3039 42.1353 33.3039L38.5622 33.2999C38.5522 33.2999 38.5422 33.2978 38.5329 33.2938C38.5237 33.2897 38.5152 33.2838 38.5081 33.2764C38.501 33.269 38.4954 33.2602 38.4916 33.2505C38.4877 33.2408 38.4857 33.2304 38.4857 33.2199L38.4876 28.7529C38.4876 28.7316 38.4957 28.7113 38.51 28.6963C38.5244 28.6813 38.5438 28.6729 38.5641 28.6729L41.9728 28.6738C41.9926 28.6738 42.0116 28.6819 42.0259 28.6962C42.0401 28.7106 42.0485 28.7302 42.0493 28.7509L42.0636 29.1089C42.064 29.1195 42.0623 29.1302 42.0587 29.1402C42.0551 29.1501 42.0496 29.1593 42.0426 29.167C42.0355 29.1747 42.0271 29.1809 42.0177 29.1852C42.0084 29.1895 41.9983 29.1917 41.9881 29.1919L39.0526 29.1928C39.0424 29.1928 39.0324 29.195 39.0231 29.199C39.0137 29.2031 39.0053 29.2091 38.9982 29.2166C38.991 29.2242 38.9854 29.2331 38.9816 29.2429C38.9779 29.2528 38.976 29.2633 38.9761 29.2738L38.9847 30.5629C38.985 30.5839 38.9931 30.604 39.0074 30.6188C39.0218 30.6336 39.0411 30.6419 39.0612 30.6419L40.5705 30.6488C40.5903 30.6491 40.6092 30.6574 40.6233 30.6719C40.6374 30.6865 40.6455 30.7062 40.646 30.7268L40.6518 31.0708C40.652 31.0816 40.6502 31.0923 40.6464 31.1023C40.6426 31.1123 40.6369 31.1214 40.6297 31.1291C40.6225 31.1367 40.6139 31.1428 40.6043 31.1469C40.5948 31.151 40.5846 31.153 40.5743 31.1529L39.0593 31.1428C39.0492 31.1427 39.0393 31.1447 39.0299 31.1486C39.0206 31.1525 39.0121 31.1582 39.0049 31.1656C38.9977 31.1729 38.992 31.1817 38.988 31.1913C38.9841 31.201 38.982 31.2113 38.9818 31.2219Z" fill="white"/>
<path d="M63.6809 30.5489L65.0688 28.6939C65.0738 28.6871 65.0801 28.6816 65.0874 28.6778C65.0947 28.674 65.1027 28.672 65.1109 28.6719L65.6749 28.6729C65.685 28.6728 65.6949 28.6758 65.7035 28.6814C65.712 28.687 65.7189 28.695 65.7233 28.7045C65.7277 28.714 65.7295 28.7247 65.7283 28.7352C65.7272 28.7457 65.7232 28.7556 65.7169 28.7639L63.9093 31.1599C63.902 31.1696 63.898 31.1816 63.8979 31.1939L63.8893 33.2739C63.8893 33.2816 63.8878 33.2892 63.8849 33.2963C63.8819 33.3034 63.8777 33.3097 63.8723 33.315C63.8669 33.3202 63.8605 33.3243 63.8536 33.3268C63.8466 33.3294 63.8393 33.3305 63.8319 33.3299L63.4018 33.2969C63.3884 33.2959 63.3759 33.2897 63.3667 33.2795C63.3575 33.2693 63.3523 33.2559 63.3521 33.2419L63.3291 31.1329C63.329 31.1206 63.325 31.1086 63.3177 31.0989L61.5693 28.7679C61.5633 28.7596 61.5596 28.7498 61.5586 28.7394C61.5576 28.7291 61.5594 28.7186 61.5638 28.7093C61.5682 28.7 61.5749 28.6921 61.5833 28.6865C61.5917 28.681 61.6015 28.678 61.6114 28.6779L62.1687 28.6709C62.177 28.6708 62.1852 28.6728 62.1927 28.6766C62.2001 28.6804 62.2067 28.686 62.2117 28.6929L63.5968 30.5489C63.6018 30.5556 63.6082 30.5609 63.6155 30.5646C63.6227 30.5683 63.6307 30.5703 63.6388 30.5703C63.6469 30.5703 63.6549 30.5683 63.6622 30.5646C63.6695 30.5609 63.6759 30.5556 63.6809 30.5489Z" fill="white"/>
<path d="M85.4501 31.4559L86.3649 33.1959C86.3718 33.209 86.3753 33.2237 86.375 33.2386C86.3747 33.2535 86.3707 33.2681 86.3633 33.2808C86.356 33.2936 86.3455 33.3041 86.3331 33.3113C86.3206 33.3185 86.3065 33.3222 86.2923 33.3219L85.8487 33.3099C85.8316 33.3096 85.8149 33.3045 85.8003 33.2952C85.7857 33.2859 85.7737 33.2727 85.7656 33.2569L84.847 31.4739C84.8384 31.4573 84.8255 31.4434 84.8099 31.4337C84.7942 31.424 84.7763 31.4189 84.7581 31.4189L83.0853 31.4149C83.0771 31.4149 83.0691 31.4166 83.0615 31.4199C83.054 31.4231 83.0471 31.4279 83.0414 31.434C83.0356 31.44 83.031 31.4472 83.0279 31.4551C83.0248 31.4629 83.0232 31.4714 83.0232 31.4799L83.0241 33.2509C83.0241 33.2679 83.0178 33.2842 83.0065 33.2962C82.9952 33.3082 82.9799 33.3149 82.9639 33.3149L82.5911 33.3139C82.5756 33.3139 82.5608 33.3075 82.5499 33.2961C82.5389 33.2846 82.5328 33.2691 82.5328 33.2529L82.528 28.7769C82.528 28.7553 82.5359 28.7345 82.5502 28.7189C82.5644 28.7033 82.5839 28.694 82.6045 28.6929C83.4463 28.6496 84.2795 28.6586 85.1041 28.7199C85.5024 28.7493 85.7904 28.8193 85.9682 28.9299C86.8457 29.4759 86.6288 31.2169 85.5123 31.3339C85.4993 31.3353 85.4868 31.3399 85.4759 31.3475C85.465 31.3551 85.4561 31.3654 85.45 31.3775C85.4438 31.3896 85.4406 31.4031 85.4406 31.4167C85.4407 31.4304 85.4439 31.4439 85.4501 31.4559ZM83.027 29.2339L83.0213 30.7859C83.0213 30.7965 83.0253 30.8067 83.0324 30.8142C83.0396 30.8217 83.0493 30.8259 83.0595 30.8259L84.9971 30.8329C85.1298 30.8334 85.2614 30.813 85.3842 30.7729C85.507 30.7327 85.6186 30.6736 85.7127 30.599C85.8068 30.5243 85.8815 30.4355 85.9326 30.3377C85.9836 30.2399 86.0101 30.135 86.0103 30.0289V30.0109C86.0108 29.797 85.9049 29.5916 85.716 29.4397C85.5271 29.2878 85.2706 29.2019 85.0028 29.2009L83.0652 29.1939C83.0551 29.1939 83.0454 29.1981 83.0382 29.2056C83.031 29.2131 83.027 29.2233 83.027 29.2339Z" fill="white"/>
<path d="M52.6643 30.1421C53.7349 29.7681 55.0741 30.1151 55.3265 31.4171C55.4373 31.9871 55.163 32.7091 54.6832 33.0211C54.1966 33.3351 53.9347 33.3721 53.3334 33.3471C53.0448 33.3358 52.8033 33.2855 52.6089 33.1961C51.8901 32.8675 51.5733 32.2895 51.6587 31.4621C51.7247 30.8181 52.0889 30.3431 52.6643 30.1421ZM54.8198 31.6926C54.8201 31.5425 54.7857 31.3938 54.7187 31.255C54.6517 31.1162 54.5533 30.99 54.4292 30.8836C54.3051 30.7773 54.1578 30.6928 53.9955 30.6351C53.8332 30.5773 53.6593 30.5475 53.4835 30.5471C53.3078 30.5468 53.1337 30.5761 52.9712 30.6332C52.8088 30.6904 52.6611 30.7743 52.5367 30.8802C52.4122 30.9861 52.3135 31.1119 52.246 31.2505C52.1785 31.389 52.1436 31.5376 52.1434 31.6877C52.1431 31.8378 52.1775 31.9865 52.2445 32.1253C52.3115 32.2641 52.4099 32.3903 52.534 32.4966C52.6581 32.603 52.8055 32.6875 52.9677 32.7452C53.13 32.8029 53.304 32.8328 53.4797 32.8331C53.6554 32.8335 53.8295 32.8042 53.992 32.7471C54.1544 32.6899 54.3021 32.606 54.4265 32.5001C54.551 32.3942 54.6498 32.2684 54.7173 32.1298C54.7847 31.9913 54.8196 31.8427 54.8198 31.6926Z" fill="white"/>
<path d="M70.1685 31.6888C70.1685 32.1405 69.9705 32.5737 69.618 32.893C69.2656 33.2124 68.7876 33.3918 68.2892 33.3918C67.7908 33.3918 67.3128 33.2124 66.9604 32.893C66.6079 32.5737 66.4099 32.1405 66.4099 31.6888C66.4099 31.2372 66.6079 30.804 66.9604 30.4846C67.3128 30.1653 67.7908 29.9858 68.2892 29.9858C68.7876 29.9858 69.2656 30.1653 69.618 30.4846C69.9705 30.804 70.1685 31.2372 70.1685 31.6888ZM69.6215 31.7066C69.6238 31.5555 69.5918 31.4053 69.5272 31.2646C69.4627 31.1238 69.367 30.9954 69.2455 30.8865C69.124 30.7776 68.9791 30.6904 68.8192 30.6299C68.6592 30.5694 68.4873 30.5368 68.3132 30.534C67.9616 30.5282 67.6226 30.6439 67.3707 30.8557C67.1189 31.0674 66.9748 31.3578 66.9702 31.6631C66.968 31.8142 67 31.9644 67.0645 32.1051C67.1291 32.2459 67.2248 32.3743 67.3463 32.4832C67.4678 32.5921 67.6126 32.6793 67.7726 32.7398C67.9326 32.8002 68.1045 32.8328 68.2786 32.8357C68.6302 32.8415 68.9692 32.7258 69.221 32.514C69.4729 32.3023 69.6169 32.0119 69.6215 31.7066Z" fill="white"/>
<path d="M44.0442 31.1771L44.0423 33.1691C44.0423 33.2484 44.0044 33.2911 43.9285 33.2971L43.5653 33.3271C43.5553 33.3279 43.5452 33.3265 43.5357 33.3231C43.5262 33.3197 43.5175 33.3142 43.5102 33.307C43.5028 33.2999 43.4969 33.2912 43.4929 33.2816C43.4889 33.272 43.4869 33.2616 43.4869 33.2511L43.485 30.1521C43.485 30.1221 43.499 30.1031 43.5271 30.0951C43.8167 30.0141 43.9935 30.0631 44.1904 30.3111C44.7257 30.9864 45.2569 31.6494 45.7839 32.3001C45.7911 32.3092 45.8009 32.3158 45.8119 32.3189C45.8228 32.3219 45.8345 32.3214 45.8452 32.3172C45.8559 32.3131 45.8653 32.3056 45.8719 32.2957C45.8785 32.2858 45.8822 32.2741 45.8824 32.2621V30.1401C45.8824 30.0994 45.9015 30.0791 45.9397 30.0791L46.3937 30.0761C46.432 30.0754 46.4514 30.0951 46.4521 30.1351L46.4607 33.1751C46.4607 33.2677 46.4161 33.3164 46.3268 33.3211C46.0764 33.3351 45.8824 33.2971 45.7093 33.0801C45.204 32.4434 44.684 31.7954 44.1493 31.1361C44.0799 31.0507 44.0448 31.0644 44.0442 31.1771Z" fill="white"/>
<path d="M48.1105 32.4932C48.5215 32.8825 48.9845 32.9372 49.4994 32.6572C49.6227 32.5902 49.7059 32.4152 49.7174 32.2572C49.7652 31.5565 49.7734 30.8552 49.7422 30.1532C49.7418 30.1445 49.7431 30.1359 49.7459 30.1278C49.7487 30.1197 49.7531 30.1123 49.7587 30.106C49.7643 30.0996 49.7711 30.0945 49.7786 30.091C49.7861 30.0874 49.7942 30.0854 49.8024 30.0852L50.224 30.0772C50.2603 30.0765 50.2785 30.0948 50.2785 30.1322C50.2836 30.7168 50.2842 31.2988 50.2804 31.8782C50.2785 32.2282 50.2431 32.4855 50.1743 32.6502C50.0634 32.9168 49.8811 33.1138 49.6275 33.2412C49.3331 33.3882 49.0062 33.3302 48.6611 33.3402C48.1736 33.3552 47.7511 32.9872 47.5217 32.5622C47.4968 32.5162 47.5083 32.4848 47.5561 32.4682C47.6823 32.4255 47.7814 32.3458 47.8534 32.2292C47.8584 32.221 47.8651 32.2141 47.873 32.2091C47.881 32.2041 47.8899 32.201 47.8992 32.2002C47.9085 32.1993 47.9179 32.2007 47.9267 32.2041C47.9355 32.2076 47.9434 32.2131 47.9499 32.2202C47.9977 32.2722 48.0321 32.3325 48.0532 32.4012C48.0644 32.4366 48.0842 32.4683 48.1105 32.4932Z" fill="white"/>
<path d="M57.6454 31.2262C57.8838 30.9389 58.1189 30.6366 58.3509 30.3192C58.4497 30.1832 58.5545 30.1029 58.6654 30.0782C58.8209 30.0436 58.9757 30.0599 59.1299 30.1272C59.1675 30.1432 59.173 30.1669 59.1462 30.1982C58.7887 30.6269 58.45 31.0636 58.1301 31.5082C57.9456 31.7642 57.8577 31.8412 57.8624 32.1872C57.8675 32.5346 57.8624 32.8809 57.8471 33.2262C57.8463 33.2446 57.8392 33.2621 57.8271 33.2755C57.815 33.2889 57.7987 33.2973 57.7812 33.2992L57.4581 33.3372C57.4475 33.3383 57.4368 33.3372 57.4267 33.3338C57.4166 33.3303 57.4072 33.3248 57.3993 33.3175C57.3914 33.3101 57.3851 33.3011 57.3807 33.2911C57.3763 33.2811 57.374 33.2702 57.374 33.2592L57.3644 32.1182C57.3632 31.9738 57.3154 31.8339 57.2287 31.7212L56.0539 30.1972C56.0466 30.1875 56.042 30.1759 56.0407 30.1636C56.0393 30.1514 56.0413 30.139 56.0464 30.1278C56.0515 30.1167 56.0594 30.1072 56.0694 30.1006C56.0793 30.0939 56.0909 30.0904 56.1027 30.0902L56.6169 30.0872C56.6333 30.0872 56.6495 30.0911 56.6643 30.0986C56.679 30.106 56.6919 30.1168 56.702 30.1302L57.5288 31.2232C57.5357 31.2324 57.5444 31.2399 57.5544 31.2451C57.5644 31.2504 57.5753 31.2532 57.5865 31.2535C57.5976 31.2538 57.6087 31.2515 57.6189 31.2468C57.6291 31.2421 57.6382 31.235 57.6454 31.2262Z" fill="white"/>
<path d="M73.7769 33.2582C73.4309 33.4032 72.5782 33.3882 72.2465 33.2282C71.84 33.0322 71.6185 32.6719 71.5822 32.1472C71.5389 31.5272 71.5335 30.8552 71.566 30.1312C71.5679 30.0959 71.5857 30.0782 71.6195 30.0782L72.0525 30.0752C72.0705 30.0752 72.0878 30.0826 72.1005 30.0957C72.1132 30.1089 72.1204 30.1267 72.1204 30.1452C72.1204 30.6326 72.1204 31.1169 72.1204 31.5982C72.1194 32.2552 72.0917 32.7202 72.7914 32.8172C73.0743 32.8566 73.3372 32.8316 73.58 32.7422C73.9843 32.5942 73.9547 32.2592 73.9566 31.8152C73.9579 31.2586 73.9573 30.7012 73.9547 30.1432C73.9547 30.1026 73.9738 30.0819 74.0121 30.0812L74.468 30.0742C74.5101 30.0736 74.5311 30.0952 74.5311 30.1392C74.5317 30.6926 74.5292 31.2442 74.5235 31.7942C74.5158 32.5362 74.4441 32.9802 73.7769 33.2582Z" fill="white"/>
<path d="M76.6656 32.0479C76.6305 32.4785 76.628 32.7875 76.658 32.9749C76.6777 33.1029 76.6618 33.2045 76.6102 33.2799C76.6006 33.2939 76.5877 33.3051 76.5727 33.3123C76.5578 33.3195 76.5414 33.3224 76.5251 33.3209L76.2192 33.2959C76.1689 33.2919 76.1437 33.2635 76.1437 33.2109L76.1427 30.1489C76.1427 30.1364 76.1472 30.1244 76.1554 30.1152C76.1636 30.1061 76.1748 30.1006 76.1867 30.0999C76.766 30.0665 77.4102 30.0619 78.1195 30.0859C78.7399 30.1069 79.2818 30.3989 79.2006 31.1509C79.1528 31.5882 78.9409 31.8409 78.5649 31.9089C78.5449 31.9125 78.5261 31.9215 78.5103 31.9348C78.4944 31.9481 78.4821 31.9654 78.4744 31.9851C78.4666 32.0047 78.4638 32.0261 78.4661 32.0472C78.4684 32.0684 78.4757 32.0885 78.4875 32.1059L79.2178 33.1779C79.2234 33.1862 79.2272 33.1958 79.2286 33.2059C79.2301 33.216 79.2294 33.2262 79.2264 33.2359C79.2234 33.2455 79.2183 33.2543 79.2115 33.2614C79.2047 33.2685 79.1964 33.2738 79.1872 33.2769C78.975 33.3495 78.7877 33.3359 78.6252 33.2359C78.3499 33.0679 78.0134 32.3929 77.8184 32.0829C77.8086 32.0674 77.7955 32.0546 77.78 32.0456C77.7645 32.0365 77.7472 32.0315 77.7295 32.0309L76.721 31.9959C76.6866 31.9945 76.6681 32.0119 76.6656 32.0479ZM78.6112 30.8457C78.6112 30.8237 78.6071 30.802 78.5991 30.7817C78.5911 30.7615 78.5794 30.743 78.5646 30.7275C78.5498 30.712 78.5322 30.6996 78.5129 30.6912C78.4935 30.6828 78.4728 30.6784 78.4518 30.6784L76.7962 30.6754C76.7753 30.6753 76.7545 30.6796 76.7351 30.688C76.7157 30.6963 76.6981 30.7086 76.6833 30.7241C76.6684 30.7395 76.6566 30.7579 76.6486 30.7782C76.6405 30.7984 76.6363 30.8201 76.6363 30.8421L76.6356 31.2461C76.6356 31.268 76.6397 31.2897 76.6477 31.31C76.6557 31.3303 76.6674 31.3487 76.6822 31.3642C76.697 31.3798 76.7146 31.3921 76.7339 31.4005C76.7533 31.409 76.774 31.4133 76.795 31.4134L78.4506 31.4164C78.4715 31.4164 78.4923 31.4121 78.5117 31.4038C78.5311 31.3954 78.5487 31.3832 78.5635 31.3677C78.5784 31.3522 78.5902 31.3338 78.5982 31.3136C78.6063 31.2933 78.6104 31.2716 78.6105 31.2497L78.6112 30.8457Z" fill="white"/>
<path d="M88.2633 30.085H87.9249C87.8806 30.085 87.8446 30.1226 87.8446 30.169V33.229C87.8446 33.2754 87.8806 33.313 87.9249 33.313H88.2633C88.3077 33.313 88.3436 33.2754 88.3436 33.229V30.169C88.3436 30.1226 88.3077 30.085 88.2633 30.085Z" fill="white"/>
<path d="M89.9657 30.1329C89.9657 30.1172 89.9716 30.1021 89.9822 30.0908C89.9927 30.0796 90.0071 30.0732 90.0221 30.0729L91.6328 30.0669C91.8386 30.0661 92.0425 30.1049 92.2329 30.1811C92.4232 30.2572 92.5964 30.3693 92.7424 30.511C92.8884 30.6526 93.0045 30.8209 93.0839 31.0064C93.1633 31.1919 93.2045 31.3908 93.2052 31.5919V31.7599C93.2066 32.1659 93.043 32.5559 92.7503 32.8441C92.4576 33.1324 92.0597 33.2952 91.6443 33.2969L90.0336 33.3029C90.026 33.303 90.0184 33.3016 90.0114 33.2986C90.0043 33.2957 89.9978 33.2913 89.9924 33.2857C89.987 33.2801 89.9827 33.2734 89.9797 33.2661C89.9768 33.2588 89.9753 33.2509 89.9753 33.2429L89.9657 30.1329ZM90.5144 30.7229L90.4982 32.6669C90.498 32.6765 90.4997 32.686 90.5031 32.6949C90.5065 32.7038 90.5115 32.7119 90.5179 32.7188C90.5243 32.7257 90.5319 32.7312 90.5403 32.735C90.5488 32.7388 90.5578 32.7408 90.567 32.7409L91.6567 32.7509C91.7886 32.7521 91.9195 32.7266 92.0418 32.6758C92.1642 32.625 92.2756 32.5499 92.3697 32.4548C92.4637 32.3597 92.5387 32.2465 92.5902 32.1216C92.6417 31.9967 92.6688 31.8626 92.6699 31.7269V31.7029C92.6722 31.429 92.5685 31.1653 92.3817 30.9699C92.1949 30.7745 91.9403 30.6633 91.6739 30.6609L90.5842 30.6509C90.5658 30.6509 90.5482 30.6585 90.5352 30.6719C90.5221 30.6854 90.5147 30.7037 90.5144 30.7229Z" fill="white"/>
<path d="M94.9564 30.7191C94.9182 30.8641 94.8159 31.4241 95.1122 31.3901C95.441 31.3521 95.8186 31.3741 96.1503 31.3881C96.1904 31.3895 96.2092 31.4115 96.2067 31.4541L96.1837 31.8271C96.1828 31.8461 96.1748 31.8639 96.1615 31.8769C96.1481 31.8899 96.1304 31.8972 96.1121 31.8971L95.0061 31.8901C94.964 31.8901 94.9421 31.9121 94.9401 31.9561L94.9076 32.6801C94.9071 32.6894 94.9084 32.6987 94.9115 32.7074C94.9145 32.7161 94.9192 32.7241 94.9253 32.7308C94.9314 32.7376 94.9387 32.7429 94.9469 32.7466C94.955 32.7503 94.9638 32.7521 94.9726 32.7521L97.1186 32.7621C97.1753 32.7621 97.2034 32.7918 97.2027 32.8511L97.197 33.2351C97.1964 33.2798 97.1747 33.3021 97.132 33.3021L94.5119 33.2991C94.5026 33.2991 94.4934 33.2972 94.4848 33.2934C94.4763 33.2896 94.4685 33.2841 94.4619 33.2772C94.4553 33.2702 94.4501 33.2619 94.4466 33.2528C94.443 33.2437 94.4412 33.234 94.4412 33.2241L94.4431 30.1491C94.4431 30.1339 94.4488 30.1193 94.459 30.1085C94.4692 30.0976 94.483 30.0914 94.4976 30.0911C95.261 30.0711 96.0219 30.0675 96.7802 30.0801C96.9427 30.0828 97.045 30.1215 97.0871 30.1961C97.1406 30.2908 97.1374 30.4311 97.0775 30.6171C97.0719 30.6344 97.0613 30.6494 97.0473 30.6599C97.0332 30.6705 97.0164 30.6762 96.9991 30.6761L95.0185 30.6691C94.9854 30.6691 94.9647 30.6858 94.9564 30.7191Z" fill="white"/>
</svg>
