<svg width="130" height="60" viewBox="0 0 130 60" fill="none" xmlns="http://www.w3.org/2000/svg">
<path d="M56.3741 29.724C56.4229 30.336 56.3799 31.013 56.051 31.608C55.3943 32.798 54.0408 33.401 52.8106 33.642C51.7304 33.8527 50.6497 33.8567 49.5682 33.654C48.0777 33.3747 46.8223 32.659 45.8021 31.507C45.7415 31.4383 45.7154 31.377 45.7237 31.323C45.7339 31.2597 45.7724 31.1943 45.8393 31.127C46.0751 30.893 46.2998 30.6687 46.5132 30.454C46.5258 30.4413 46.5407 30.4314 46.557 30.4248C46.5733 30.4182 46.5907 30.4151 46.6081 30.4157C46.6256 30.4163 46.6428 30.4205 46.6586 30.4281C46.6745 30.4357 46.6888 30.4465 46.7006 30.46C47.4831 31.3647 48.4403 31.966 49.5721 32.264C49.7416 32.3087 49.9783 32.3417 50.2823 32.363C50.6025 32.385 50.9265 32.448 51.2363 32.433C52.3193 32.382 53.3879 32.278 54.1832 31.713C55.5941 30.711 55.3093 29.019 53.7779 28.381C53.5377 28.281 53.1901 28.2277 52.7351 28.221C52.0781 28.2117 51.4211 28.211 50.764 28.219C50.223 28.226 49.7326 28.16 49.2098 28.09C48.2529 27.962 47.1718 27.576 46.7245 26.588C46.2899 25.6273 46.331 24.698 46.8478 23.8C47.2856 23.038 48.1 22.478 48.9316 22.169C49.5166 21.9517 50.0691 21.843 50.5891 21.843C51.242 21.844 51.914 21.809 52.5277 21.937C53.7142 22.1843 54.7931 22.697 55.7643 23.475C55.7885 23.4943 55.7913 23.517 55.7729 23.543L55.1076 24.456C55.0838 24.4883 55.0499 24.5108 55.0119 24.5194C54.9739 24.528 54.9343 24.5222 54.9002 24.503C54.5331 24.298 54.1507 23.998 53.82 23.825C52.4792 23.1237 51.0671 22.979 49.5835 23.391C48.8399 23.598 48.0704 24.127 47.8199 24.89C47.5876 25.592 47.9547 26.287 48.6114 26.539C48.8427 26.627 49.2356 26.723 49.5367 26.744C50.3377 26.7987 51.1397 26.8183 51.9427 26.803C53.8267 26.768 56.1791 27.299 56.3741 29.724Z" fill="black"/>
<path d="M118.033 24.559C116.959 23.758 116.079 23.332 114.778 23.199C113.496 23.069 111.421 23.4 110.93 24.869C110.53 26.072 111.611 26.646 112.548 26.727C112.978 26.763 113.396 26.812 113.833 26.8C114.951 26.7693 115.903 26.808 116.689 26.916C116.956 26.952 117.319 27.078 117.779 27.294C118.625 27.6913 119.165 28.344 119.399 29.252C119.488 29.597 119.461 29.994 119.454 30.363C119.434 31.3 119.073 31.874 118.432 32.483C117.756 33.125 116.797 33.477 115.9 33.645C113.318 34.129 110.693 33.569 108.879 31.488C108.841 31.4446 108.821 31.3874 108.823 31.3285C108.825 31.2697 108.849 31.2139 108.889 31.173L109.57 30.491C109.587 30.4743 109.606 30.4612 109.628 30.4525C109.649 30.4438 109.672 30.4396 109.696 30.4403C109.719 30.4409 109.741 30.4464 109.763 30.4563C109.784 30.4662 109.803 30.4804 109.818 30.498C110.479 31.2373 111.259 31.7703 112.157 32.097C112.649 32.2757 113.214 32.382 113.853 32.416C114.462 32.4487 115.041 32.4233 115.588 32.34C115.895 32.2933 116.276 32.179 116.731 31.997C118.554 31.272 118.764 29.074 116.777 28.339C116.559 28.2577 116.256 28.2167 115.869 28.216C114.551 28.212 113.133 28.325 111.828 28.003C111.255 27.861 110.811 27.665 110.495 27.415C109.192 26.382 109.276 24.363 110.404 23.202C110.944 22.6473 111.581 22.2727 112.318 22.078C112.657 21.988 113.142 21.861 113.566 21.852C114.126 21.8413 114.685 21.8417 115.245 21.853C115.387 21.856 115.524 21.93 115.689 21.962C116.828 22.1853 117.879 22.686 118.842 23.464C118.873 23.4893 118.877 23.5183 118.853 23.551L118.132 24.544C118.121 24.5596 118.104 24.5699 118.085 24.5727C118.067 24.5755 118.048 24.5706 118.033 24.559Z" fill="black"/>
<path d="M14.9806 23.515L14.9729 33.5C14.9729 33.5141 14.9676 33.5275 14.9581 33.5375C14.9486 33.5474 14.9357 33.553 14.9223 33.553L13.7341 33.552C13.7207 33.552 13.7078 33.5464 13.6983 33.5365C13.6888 33.5265 13.6835 33.5131 13.6835 33.499L13.6892 23.519C13.6892 23.5049 13.6839 23.4915 13.6744 23.4815C13.6649 23.4716 13.652 23.466 13.6385 23.466L9.63721 23.467C9.62377 23.467 9.61089 23.4614 9.60139 23.4515C9.59189 23.4415 9.58655 23.4281 9.58655 23.414L9.59706 22.119C9.59706 22.112 9.59837 22.1051 9.60092 22.0987C9.60347 22.0923 9.6072 22.0864 9.6119 22.0815C9.61661 22.0766 9.62219 22.0727 9.62834 22.07C9.63448 22.0674 9.64107 22.066 9.64772 22.066L18.9074 22.064C18.9208 22.064 18.9337 22.0696 18.9432 22.0795C18.9527 22.0895 18.958 22.1029 18.958 22.117L18.9561 23.416C18.9561 23.4301 18.9508 23.4435 18.9413 23.4535C18.9318 23.4634 18.9189 23.469 18.9054 23.469L15.0313 23.462C15.0178 23.462 15.0049 23.4676 14.9954 23.4775C14.9859 23.4875 14.9806 23.5009 14.9806 23.515Z" fill="black"/>
<path d="M23.1295 28.872L23.1362 33.499C23.1362 33.5337 23.1196 33.551 23.0865 33.551L21.8563 33.555C21.8142 33.555 21.7932 33.533 21.7932 33.489L21.7941 22.148C21.7941 22.0913 21.8215 22.063 21.8763 22.063C23.537 22.0663 25.2101 22.0667 26.8957 22.064C27.4052 22.063 27.9271 22.113 28.4499 22.146C29.9602 22.242 31.3013 22.951 31.6837 24.579C31.7219 24.7423 31.7337 25.0907 31.719 25.624C31.7069 26.0473 31.662 26.391 31.5843 26.655C31.3173 27.5577 30.7536 28.1967 29.8933 28.572C29.6457 28.68 29.315 28.68 29.0388 28.841C29.0317 28.8451 29.0255 28.8506 29.0205 28.8571C29.0155 28.8637 29.0118 28.8712 29.0096 28.8793C29.0074 28.8874 29.0067 28.8959 29.0076 28.9042C29.0085 28.9126 29.011 28.9206 29.0149 28.928L31.4438 33.46C31.4489 33.4697 31.4515 33.4807 31.4514 33.4919C31.4513 33.503 31.4483 33.5139 31.4429 33.5235C31.4375 33.5331 31.4298 33.541 31.4206 33.5466C31.4113 33.5521 31.4009 33.555 31.3902 33.555L30.0329 33.547C30.0146 33.547 29.9967 33.5419 29.9811 33.5322C29.9654 33.5226 29.9526 33.5087 29.944 33.492L27.5285 28.929C27.5103 28.8942 27.4834 28.8651 27.4508 28.8449C27.4182 28.8247 27.381 28.814 27.343 28.814L23.183 28.816C23.1473 28.816 23.1295 28.8347 23.1295 28.872ZM23.1343 23.587V27.323C23.1343 27.3546 23.1463 27.3848 23.1676 27.4071C23.1889 27.4295 23.2179 27.442 23.248 27.442H28.4805C28.7385 27.442 28.9939 27.3952 29.2322 27.3044C29.4706 27.2135 29.6871 27.0803 29.8695 26.9124C30.0519 26.7446 30.1966 26.5452 30.2953 26.3259C30.394 26.1065 30.4449 25.8714 30.4449 25.634V25.276C30.4449 24.7965 30.2379 24.3366 29.8695 23.9976C29.5011 23.6585 29.0015 23.468 28.4805 23.468H23.248C23.2179 23.468 23.1889 23.4805 23.1676 23.5029C23.1463 23.5252 23.1343 23.5554 23.1343 23.587Z" fill="black"/>
<path d="M41.514 29.625H36.3216C36.314 29.625 36.3066 29.6272 36.3001 29.6315C36.2937 29.6357 36.2885 29.6418 36.2853 29.649L34.58 33.527C34.5769 33.5344 34.5718 33.5407 34.5653 33.5451C34.5589 33.5495 34.5514 33.5519 34.5437 33.552L33.171 33.549C33.1643 33.5488 33.1578 33.5469 33.152 33.5435C33.1462 33.54 33.1413 33.535 33.1378 33.5291C33.1342 33.5231 33.1322 33.5163 33.1318 33.5093C33.1315 33.5023 33.1328 33.4953 33.1357 33.489L38.3271 22.089C38.3302 22.082 38.3352 22.076 38.3415 22.0718C38.3477 22.0675 38.355 22.0652 38.3624 22.065L39.6127 22.063C39.6203 22.063 39.6278 22.0652 39.6342 22.0695C39.6406 22.0737 39.6458 22.0798 39.649 22.087L44.7525 33.49C44.7554 33.4964 44.7567 33.5035 44.7563 33.5106C44.7559 33.5176 44.7538 33.5245 44.7501 33.5305C44.7465 33.5365 44.7415 33.5414 44.7356 33.5448C44.7296 33.5482 44.7229 33.55 44.7162 33.55L43.3359 33.549C43.3283 33.549 43.3208 33.5468 43.3144 33.5425C43.308 33.5383 43.3028 33.5322 43.2996 33.525L41.5503 29.649C41.547 29.6418 41.5419 29.6357 41.5355 29.6315C41.529 29.6272 41.5216 29.625 41.514 29.625ZM36.9984 28.161C36.9963 28.1658 36.9955 28.171 36.9958 28.1762C36.9961 28.1814 36.9977 28.1865 37.0003 28.1909C37.003 28.1954 37.0066 28.1991 37.011 28.2017C37.0153 28.2043 37.0201 28.2058 37.0251 28.206L40.8984 28.228C40.9036 28.228 40.9087 28.2267 40.9133 28.2241C40.9178 28.2215 40.9217 28.2177 40.9245 28.2131C40.9272 28.2085 40.9288 28.2032 40.9291 28.1978C40.9294 28.1923 40.9284 28.1869 40.9261 28.182L39.0115 23.807C39.0091 23.8014 39.0053 23.7967 39.0004 23.7933C38.9955 23.79 38.9899 23.7881 38.984 23.788C38.9782 23.7879 38.9725 23.7896 38.9675 23.7927C38.9626 23.7959 38.9586 23.8005 38.956 23.806L36.9984 28.161Z" fill="black"/>
<path d="M60.6278 23.528L60.6355 26.817C60.6355 26.8334 60.6417 26.8492 60.6528 26.8608C60.6639 26.8725 60.679 26.879 60.6947 26.879L64.5584 26.876C64.5741 26.876 64.5892 26.8825 64.6003 26.8942C64.6114 26.9058 64.6177 26.9216 64.6177 26.938L64.6263 28.189C64.6263 28.2054 64.62 28.2212 64.6089 28.2328C64.5978 28.2445 64.5827 28.251 64.567 28.251L60.6947 28.248C60.679 28.248 60.6639 28.2545 60.6528 28.2662C60.6417 28.2778 60.6355 28.2936 60.6355 28.31L60.6259 32.147C60.6259 32.1634 60.6321 32.1792 60.6432 32.1908C60.6544 32.2025 60.6694 32.209 60.6852 32.209L68.5798 32.21C68.5955 32.21 68.6106 32.2165 68.6217 32.2282C68.6328 32.2398 68.6391 32.2556 68.6391 32.272L68.6429 33.49C68.6429 33.5064 68.6366 33.5222 68.6255 33.5338C68.6144 33.5455 68.5993 33.552 68.5836 33.552H59.3354C59.3197 33.552 59.3047 33.5455 59.2935 33.5338C59.2824 33.5222 59.2762 33.5064 59.2762 33.49L59.28 22.127C59.28 22.1106 59.2863 22.0948 59.2974 22.0832C59.3085 22.0715 59.3236 22.065 59.3393 22.065H68.228C68.2437 22.065 68.2588 22.0715 68.2699 22.0832C68.281 22.0948 68.2873 22.1106 68.2873 22.127L68.2911 23.404C68.2911 23.4204 68.2849 23.4362 68.2738 23.4478C68.2626 23.4595 68.2476 23.466 68.2318 23.466H60.6871C60.6713 23.466 60.6563 23.4725 60.6452 23.4842C60.634 23.4958 60.6278 23.5116 60.6278 23.528Z" fill="black"/>
<path d="M78.8393 28.904C79.6237 30.3873 80.4213 31.8623 81.2318 33.329C81.2612 33.3823 81.2838 33.4207 81.2997 33.444C81.3064 33.4537 81.3104 33.4652 81.3113 33.4772C81.3121 33.4891 81.3098 33.5011 81.3046 33.5117C81.2993 33.5224 81.2913 33.5313 81.2816 33.5376C81.2718 33.5438 81.2605 33.547 81.2491 33.547L79.8716 33.552C79.8429 33.552 79.8206 33.5397 79.8047 33.515C79.6926 33.3397 79.59 33.1623 79.4969 32.983C78.9502 31.9263 78.3919 30.8767 77.8222 29.834C77.654 29.526 77.5093 29.223 77.3882 28.925C77.3752 28.8924 77.3532 28.8645 77.325 28.845C77.2967 28.8254 77.2635 28.815 77.2296 28.815L73.0065 28.809C72.974 28.809 72.9577 28.826 72.9577 28.86L72.9663 33.496C72.9663 33.5327 72.9488 33.551 72.9138 33.551L71.7533 33.556C71.7106 33.556 71.6893 33.534 71.6893 33.49L71.6912 22.126C71.6912 22.1101 71.6972 22.0948 71.708 22.0836C71.7187 22.0723 71.7333 22.066 71.7485 22.066C73.399 22.0653 75.0549 22.0653 76.7163 22.066C78.541 22.066 80.9068 22.21 81.4813 24.479C81.64 25.1057 81.6336 25.7617 81.4622 26.447C81.1895 27.539 80.571 28.259 79.6068 28.607C79.4415 28.667 79.104 28.714 78.8641 28.828C78.8297 28.844 78.8214 28.8693 78.8393 28.904ZM72.9663 23.527L72.9529 27.359C72.9529 27.3789 72.9605 27.398 72.9739 27.412C72.9874 27.4261 73.0056 27.434 73.0246 27.434L78.2648 27.453C78.526 27.4539 78.7848 27.4081 79.0265 27.3181C79.2681 27.228 79.4878 27.0956 79.673 26.9284C79.8583 26.7612 80.0054 26.5624 80.1061 26.3434C80.2068 26.1244 80.259 25.8894 80.2597 25.652L80.2616 25.286C80.2624 25.0486 80.2117 24.8133 80.1124 24.5936C80.0131 24.3739 79.8672 24.174 79.6831 24.0055C79.4989 23.837 79.28 23.703 79.039 23.6113C78.7979 23.5196 78.5394 23.4719 78.2782 23.471L73.038 23.452C73.019 23.452 73.0008 23.4599 72.9873 23.474C72.9739 23.488 72.9663 23.5071 72.9663 23.527Z" fill="black"/>
<path d="M93.2626 27.496C93.2527 27.5044 93.2448 27.515 93.2395 27.5271C93.2342 27.5392 93.2317 27.5524 93.2321 27.5657C93.2326 27.5789 93.236 27.5918 93.2421 27.6033C93.2483 27.6148 93.2569 27.6247 93.2674 27.632C93.8001 28.0127 94.1968 28.4933 94.4574 29.074C94.576 29.338 94.6441 29.65 94.662 30.01C94.6859 30.507 94.7107 31.056 94.5435 31.516C94.1334 32.644 93.3304 33.163 92.2293 33.401C91.9482 33.461 91.65 33.547 91.3652 33.548C89.122 33.5527 86.8792 33.5543 84.6367 33.553C84.6023 33.553 84.5851 33.5353 84.5851 33.5L84.5908 22.101C84.5908 22.0925 84.594 22.0844 84.5998 22.0784C84.6055 22.0724 84.6133 22.069 84.6214 22.069C86.7524 22.0597 88.8866 22.0617 91.0239 22.075C91.4292 22.0777 91.8836 22.18 92.387 22.382C93.2403 22.724 93.7991 23.3217 94.0636 24.175C94.4096 25.292 94.1764 26.737 93.2626 27.496ZM85.9233 23.601L85.9291 26.897C85.9291 26.936 85.9439 26.9734 85.9702 27.0009C85.9966 27.0285 86.0323 27.044 86.0696 27.044L90.9207 27.035C91.4479 27.0341 91.9532 26.8448 92.3255 26.5087C92.6978 26.1727 92.9066 25.7174 92.906 25.243V25.231C92.9057 24.996 92.854 24.7634 92.7538 24.5465C92.6535 24.3296 92.5068 24.1325 92.3219 23.9667C92.137 23.8008 91.9176 23.6694 91.6762 23.5799C91.4347 23.4904 91.1761 23.4445 90.9149 23.445L86.0638 23.454C86.0266 23.454 85.9908 23.4695 85.9645 23.4971C85.9381 23.5246 85.9233 23.562 85.9233 23.601ZM85.9396 28.427L85.9338 32.141C85.9338 32.1588 85.9406 32.1758 85.9526 32.1884C85.9646 32.2009 85.9809 32.208 85.9979 32.208L91.1616 32.218C91.4542 32.2185 91.744 32.1743 92.0145 32.0879C92.2849 32.0015 92.5308 31.8746 92.738 31.7144C92.9451 31.5543 93.1096 31.3639 93.2219 31.1544C93.3342 30.9448 93.3922 30.7201 93.3926 30.493V30.103C93.3933 29.6445 93.1593 29.2043 92.742 28.8793C92.3247 28.5543 91.7582 28.3711 91.1673 28.37L86.0036 28.36C85.9952 28.36 85.9869 28.3617 85.9791 28.3651C85.9713 28.3685 85.9643 28.3734 85.9583 28.3796C85.9524 28.3858 85.9477 28.3932 85.9444 28.4014C85.9412 28.4095 85.9396 28.4182 85.9396 28.427Z" fill="black"/>
<path d="M99.3783 29.65L97.6759 33.534C97.6727 33.5413 97.6676 33.5474 97.6611 33.5517C97.6547 33.5559 97.6472 33.5581 97.6396 33.558L96.266 33.547C96.2595 33.5468 96.2532 33.5449 96.2476 33.5415C96.242 33.5382 96.2373 33.5334 96.2339 33.5276C96.2305 33.5219 96.2285 33.5154 96.2281 33.5086C96.2277 33.5019 96.2289 33.4951 96.2315 33.489L101.421 22.087C101.424 22.0801 101.429 22.0742 101.436 22.0702C101.442 22.0661 101.449 22.064 101.456 22.064L102.709 22.067C102.716 22.0671 102.723 22.0694 102.73 22.0736C102.736 22.0779 102.741 22.0839 102.744 22.091L107.855 33.498C107.858 33.5043 107.859 33.5112 107.859 33.5182C107.859 33.5251 107.857 33.5319 107.853 33.5378C107.85 33.5437 107.845 33.5486 107.839 33.5519C107.833 33.5553 107.826 33.557 107.82 33.557L106.434 33.548C106.426 33.548 106.419 33.5459 106.413 33.5418C106.407 33.5378 106.402 33.5319 106.398 33.525L104.64 29.648C104.637 29.6411 104.632 29.6352 104.626 29.6312C104.62 29.6271 104.612 29.625 104.605 29.625L99.4137 29.626C99.4062 29.6261 99.3989 29.6284 99.3926 29.6326C99.3864 29.6369 99.3814 29.6429 99.3783 29.65ZM100.092 28.159C100.09 28.164 100.089 28.1694 100.089 28.1749C100.09 28.1804 100.091 28.1857 100.094 28.1903C100.097 28.195 100.101 28.1989 100.105 28.2016C100.11 28.2043 100.115 28.2059 100.12 28.206L103.986 28.227C103.991 28.227 103.996 28.2256 104.001 28.223C104.006 28.2203 104.01 28.2164 104.012 28.2118C104.015 28.2071 104.017 28.2017 104.017 28.1961C104.018 28.1906 104.017 28.185 104.014 28.18L102.104 23.81C102.101 23.8043 102.097 23.7994 102.092 23.796C102.087 23.7926 102.081 23.7907 102.075 23.7907C102.069 23.7907 102.063 23.7926 102.058 23.796C102.053 23.7994 102.049 23.8043 102.046 23.81L100.092 28.159Z" fill="black"/>
<path d="M38.9818 41.222L38.956 42.677C38.9559 42.6875 38.9578 42.6979 38.9615 42.7077C38.9652 42.7174 38.9707 42.7263 38.9777 42.7339C38.9848 42.7414 38.9931 42.7474 39.0023 42.7515C39.0116 42.7557 39.0215 42.7579 39.0315 42.758L42.1315 42.761C42.1516 42.761 42.1709 42.7693 42.1852 42.7841C42.1995 42.7989 42.2077 42.819 42.2079 42.84L42.2118 43.223C42.2119 43.2336 42.21 43.2441 42.2062 43.2539C42.2024 43.2637 42.1968 43.2727 42.1897 43.2802C42.1826 43.2878 42.1741 43.2937 42.1648 43.2978C42.1554 43.3019 42.1454 43.304 42.1353 43.304L38.5622 43.3C38.5522 43.3 38.5422 43.2979 38.5329 43.2939C38.5237 43.2899 38.5152 43.284 38.5081 43.2766C38.501 43.2691 38.4954 43.2603 38.4916 43.2506C38.4877 43.2409 38.4857 43.2305 38.4857 43.22L38.4876 38.753C38.4876 38.7318 38.4957 38.7114 38.51 38.6964C38.5244 38.6814 38.5438 38.673 38.5641 38.673L41.9728 38.674C41.9926 38.674 42.0116 38.682 42.0259 38.6964C42.0401 38.7107 42.0485 38.7303 42.0493 38.751L42.0636 39.109C42.064 39.1197 42.0623 39.1303 42.0587 39.1403C42.0551 39.1503 42.0496 39.1594 42.0426 39.1672C42.0355 39.1749 42.0271 39.1811 42.0177 39.1853C42.0084 39.1896 41.9983 39.1919 41.9881 39.192L39.0526 39.193C39.0424 39.193 39.0324 39.1951 39.0231 39.1992C39.0137 39.2033 39.0053 39.2092 38.9982 39.2168C38.991 39.2243 38.9854 39.2333 38.9816 39.2431C38.9779 39.2529 38.976 39.2634 38.9761 39.274L38.9847 40.563C38.985 40.584 38.9931 40.6041 39.0074 40.6189C39.0218 40.6337 39.0411 40.642 39.0612 40.642L40.5705 40.649C40.5903 40.6493 40.6092 40.6575 40.6233 40.6721C40.6374 40.6866 40.6455 40.7063 40.646 40.727L40.6518 41.071C40.652 41.0818 40.6502 41.0925 40.6464 41.1025C40.6426 41.1125 40.6369 41.1216 40.6297 41.1292C40.6225 41.1369 40.6139 41.1429 40.6043 41.147C40.5948 41.1511 40.5846 41.1531 40.5743 41.153L39.0593 41.143C39.0492 41.1429 39.0393 41.1448 39.0299 41.1487C39.0206 41.1526 39.0121 41.1584 39.0049 41.1657C38.9977 41.1731 38.992 41.1818 38.988 41.1915C38.9841 41.2011 38.982 41.2115 38.9818 41.222Z" fill="black"/>
<path d="M63.6809 40.549L65.0688 38.694C65.0738 38.6872 65.0801 38.6817 65.0874 38.6779C65.0947 38.6741 65.1027 38.6721 65.1109 38.672L65.6749 38.673C65.685 38.6729 65.6949 38.6759 65.7035 38.6815C65.712 38.6871 65.7189 38.6951 65.7233 38.7046C65.7277 38.7141 65.7295 38.7248 65.7283 38.7353C65.7272 38.7458 65.7232 38.7557 65.7169 38.764L63.9093 41.16C63.902 41.1697 63.898 41.1817 63.8979 41.194L63.8893 43.274C63.8893 43.2817 63.8878 43.2893 63.8849 43.2964C63.8819 43.3035 63.8777 43.3098 63.8723 43.3151C63.8669 43.3203 63.8605 43.3244 63.8536 43.3269C63.8466 43.3295 63.8393 43.3305 63.8319 43.33L63.4018 43.297C63.3884 43.296 63.3759 43.2898 63.3667 43.2796C63.3575 43.2694 63.3523 43.256 63.3521 43.242L63.3291 41.133C63.329 41.1207 63.325 41.1087 63.3177 41.099L61.5693 38.768C61.5633 38.7597 61.5596 38.7499 61.5586 38.7395C61.5576 38.7292 61.5594 38.7187 61.5638 38.7094C61.5682 38.7001 61.5749 38.6922 61.5833 38.6866C61.5917 38.6811 61.6015 38.6781 61.6114 38.678L62.1687 38.671C62.177 38.6709 62.1852 38.6729 62.1927 38.6767C62.2001 38.6805 62.2067 38.6861 62.2117 38.693L63.5968 40.549C63.6018 40.5557 63.6082 40.561 63.6155 40.5647C63.6227 40.5684 63.6307 40.5704 63.6388 40.5704C63.6469 40.5704 63.6549 40.5684 63.6622 40.5647C63.6695 40.561 63.6759 40.5557 63.6809 40.549Z" fill="black"/>
<path d="M85.4501 41.456L86.3649 43.196C86.3718 43.2091 86.3753 43.2238 86.375 43.2387C86.3747 43.2536 86.3707 43.2682 86.3633 43.2809C86.356 43.2937 86.3455 43.3042 86.3331 43.3114C86.3206 43.3186 86.3065 43.3223 86.2923 43.322L85.8487 43.31C85.8316 43.3097 85.8149 43.3046 85.8003 43.2953C85.7857 43.286 85.7737 43.2728 85.7656 43.257L84.847 41.474C84.8384 41.4573 84.8255 41.4434 84.8099 41.4338C84.7942 41.4241 84.7763 41.419 84.7581 41.419L83.0853 41.415C83.0771 41.415 83.0691 41.4167 83.0615 41.4199C83.054 41.4232 83.0471 41.428 83.0414 41.434C83.0356 41.4401 83.031 41.4472 83.0279 41.4551C83.0248 41.463 83.0232 41.4715 83.0232 41.48L83.0241 43.251C83.0241 43.268 83.0178 43.2843 83.0065 43.2963C82.9952 43.3083 82.9799 43.315 82.9639 43.315L82.5911 43.314C82.5756 43.314 82.5608 43.3076 82.5499 43.2961C82.5389 43.2847 82.5328 43.2692 82.5328 43.253L82.528 38.777C82.528 38.7554 82.5359 38.7346 82.5502 38.719C82.5644 38.7033 82.5839 38.694 82.6045 38.693C83.4463 38.6497 84.2795 38.6587 85.1041 38.72C85.5024 38.7493 85.7904 38.8193 85.9682 38.93C86.8457 39.476 86.6288 41.217 85.5123 41.334C85.4993 41.3353 85.4868 41.34 85.4759 41.3476C85.465 41.3552 85.4561 41.3655 85.45 41.3776C85.4438 41.3897 85.4406 41.4031 85.4406 41.4168C85.4407 41.4305 85.4439 41.444 85.4501 41.456ZM83.027 39.234L83.0213 40.786C83.0213 40.7966 83.0253 40.8068 83.0324 40.8143C83.0396 40.8218 83.0493 40.826 83.0595 40.826L84.9971 40.833C85.1298 40.8335 85.2614 40.8131 85.3842 40.773C85.507 40.7328 85.6186 40.6737 85.7127 40.599C85.8068 40.5244 85.8815 40.4356 85.9326 40.3378C85.9836 40.24 86.0101 40.135 86.0103 40.029V40.011C86.0108 39.7971 85.9049 39.5917 85.716 39.4398C85.5271 39.2879 85.2706 39.202 85.0028 39.201L83.0652 39.194C83.0551 39.194 83.0454 39.1982 83.0382 39.2057C83.031 39.2132 83.027 39.2234 83.027 39.234Z" fill="black"/>
<path d="M52.6643 40.142C53.7349 39.768 55.0741 40.115 55.3265 41.417C55.4373 41.987 55.163 42.709 54.6832 43.021C54.1966 43.335 53.9347 43.372 53.3334 43.347C53.0448 43.3357 52.8033 43.2853 52.6089 43.196C51.8901 42.8673 51.5733 42.2893 51.6587 41.462C51.7247 40.818 52.0889 40.343 52.6643 40.142ZM54.8198 41.6924C54.8201 41.5423 54.7857 41.3936 54.7187 41.2548C54.6517 41.1161 54.5533 40.9899 54.4292 40.8835C54.3051 40.7771 54.1578 40.6927 53.9955 40.6349C53.8332 40.5772 53.6593 40.5473 53.4835 40.547C53.3078 40.5467 53.1337 40.5759 52.9712 40.6331C52.8088 40.6902 52.6611 40.7741 52.5367 40.8801C52.4122 40.986 52.3135 41.1118 52.246 41.2503C52.1785 41.3889 52.1436 41.5375 52.1434 41.6876C52.1431 41.8377 52.1775 41.9864 52.2445 42.1252C52.3115 42.264 52.4099 42.3901 52.534 42.4965C52.6581 42.6029 52.8055 42.6873 52.9677 42.7451C53.13 42.8028 53.304 42.8327 53.4797 42.833C53.6554 42.8333 53.8295 42.8041 53.992 42.7469C54.1544 42.6898 54.3021 42.6059 54.4265 42.5C54.551 42.394 54.6498 42.2682 54.7173 42.1297C54.7847 41.9911 54.8196 41.8425 54.8198 41.6924Z" fill="black"/>
<path d="M70.1685 41.689C70.1685 42.1407 69.9705 42.5738 69.618 42.8932C69.2656 43.2126 68.7876 43.392 68.2892 43.392C67.7908 43.392 67.3128 43.2126 66.9604 42.8932C66.6079 42.5738 66.4099 42.1407 66.4099 41.689C66.4099 41.2373 66.6079 40.8042 66.9604 40.4848C67.3128 40.1654 67.7908 39.986 68.2892 39.986C68.7876 39.986 69.2656 40.1654 69.618 40.4848C69.9705 40.8042 70.1685 41.2373 70.1685 41.689ZM69.6215 41.7068C69.6238 41.5557 69.5918 41.4054 69.5272 41.2647C69.4627 41.124 69.367 40.9955 69.2455 40.8866C69.124 40.7777 68.9791 40.6906 68.8192 40.6301C68.6592 40.5696 68.4873 40.537 68.3132 40.5341C67.9616 40.5284 67.6226 40.6441 67.3707 40.8558C67.1189 41.0676 66.9748 41.358 66.9702 41.6632C66.968 41.8143 67 41.9646 67.0645 42.1053C67.1291 42.246 67.2248 42.3745 67.3463 42.4834C67.4678 42.5923 67.6126 42.6794 67.7726 42.7399C67.9326 42.8004 68.1045 42.833 68.2786 42.8359C68.6302 42.8416 68.9692 42.7259 69.221 42.5142C69.4729 42.3024 69.6169 42.012 69.6215 41.7068Z" fill="black"/>
<path d="M44.0442 41.177L44.0423 43.169C44.0423 43.2483 44.0044 43.291 43.9285 43.297L43.5653 43.327C43.5553 43.3278 43.5452 43.3265 43.5357 43.323C43.5262 43.3196 43.5175 43.3141 43.5102 43.307C43.5028 43.2998 43.4969 43.2912 43.4929 43.2815C43.4889 43.2719 43.4869 43.2615 43.4869 43.251L43.485 40.152C43.485 40.122 43.499 40.103 43.5271 40.095C43.8167 40.014 43.9935 40.063 44.1904 40.311C44.7257 40.9863 45.2569 41.6493 45.7839 42.3C45.7911 42.3092 45.8009 42.3157 45.8119 42.3188C45.8228 42.3219 45.8345 42.3213 45.8452 42.3172C45.8559 42.313 45.8653 42.3055 45.8719 42.2956C45.8785 42.2858 45.8822 42.274 45.8824 42.262V40.14C45.8824 40.0993 45.9015 40.079 45.9397 40.079L46.3937 40.076C46.432 40.0753 46.4514 40.095 46.4521 40.135L46.4607 43.175C46.4607 43.2677 46.4161 43.3163 46.3268 43.321C46.0764 43.335 45.8824 43.297 45.7093 43.08C45.204 42.4433 44.684 41.7953 44.1493 41.136C44.0799 41.0507 44.0448 41.0643 44.0442 41.177Z" fill="black"/>
<path d="M48.1105 42.493C48.5215 42.8823 48.9845 42.937 49.4994 42.657C49.6227 42.59 49.7059 42.415 49.7174 42.257C49.7652 41.5563 49.7734 40.855 49.7422 40.153C49.7418 40.1444 49.7431 40.1358 49.7459 40.1277C49.7487 40.1196 49.7531 40.1121 49.7587 40.1058C49.7643 40.0995 49.7711 40.0944 49.7786 40.0908C49.7861 40.0872 49.7942 40.0853 49.8024 40.085L50.224 40.077C50.2603 40.0763 50.2785 40.0947 50.2785 40.132C50.2836 40.7167 50.2842 41.2987 50.2804 41.878C50.2785 42.228 50.2431 42.4853 50.1743 42.65C50.0634 42.9167 49.8811 43.1137 49.6275 43.241C49.3331 43.388 49.0062 43.33 48.6611 43.34C48.1736 43.355 47.7511 42.987 47.5217 42.562C47.4968 42.516 47.5083 42.4847 47.5561 42.468C47.6823 42.4253 47.7814 42.3457 47.8534 42.229C47.8584 42.2208 47.8651 42.214 47.873 42.209C47.881 42.2039 47.8899 42.2009 47.8992 42.2C47.9085 42.1991 47.9179 42.2005 47.9267 42.2039C47.9355 42.2074 47.9434 42.2129 47.9499 42.22C47.9977 42.272 48.0321 42.3323 48.0532 42.401C48.0644 42.4364 48.0842 42.4681 48.1105 42.493Z" fill="black"/>
<path d="M57.6454 41.226C57.8838 40.9387 58.1189 40.6363 58.3509 40.319C58.4497 40.183 58.5545 40.1027 58.6654 40.078C58.8209 40.0433 58.9757 40.0597 59.1299 40.127C59.1675 40.143 59.173 40.1667 59.1462 40.198C58.7887 40.6267 58.45 41.0633 58.1301 41.508C57.9456 41.764 57.8577 41.841 57.8624 42.187C57.8675 42.5343 57.8624 42.8807 57.8471 43.226C57.8463 43.2444 57.8392 43.2619 57.8271 43.2753C57.815 43.2887 57.7987 43.2971 57.7812 43.299L57.4581 43.337C57.4475 43.3381 57.4368 43.3369 57.4267 43.3335C57.4166 43.3301 57.4072 43.3246 57.3993 43.3172C57.3914 43.3099 57.3851 43.3009 57.3807 43.2909C57.3763 43.2809 57.374 43.27 57.374 43.259L57.3644 42.118C57.3632 41.9735 57.3154 41.8337 57.2287 41.721L56.0539 40.197C56.0466 40.1873 56.042 40.1757 56.0407 40.1634C56.0393 40.1512 56.0413 40.1387 56.0464 40.1276C56.0515 40.1165 56.0594 40.107 56.0694 40.1004C56.0793 40.0937 56.0909 40.0901 56.1027 40.09L56.6169 40.087C56.6333 40.087 56.6495 40.0909 56.6643 40.0983C56.679 40.1058 56.6919 40.1166 56.702 40.13L57.5288 41.223C57.5357 41.2322 57.5444 41.2397 57.5544 41.2449C57.5644 41.2502 57.5753 41.253 57.5865 41.2533C57.5976 41.2536 57.6087 41.2513 57.6189 41.2466C57.6291 41.2419 57.6382 41.2348 57.6454 41.226Z" fill="black"/>
<path d="M73.7769 43.258C73.4309 43.403 72.5782 43.388 72.2465 43.228C71.84 43.032 71.6185 42.6717 71.5822 42.147C71.5389 41.527 71.5335 40.855 71.566 40.131C71.5679 40.0957 71.5857 40.078 71.6195 40.078L72.0525 40.075C72.0705 40.075 72.0878 40.0824 72.1005 40.0955C72.1132 40.1086 72.1204 40.1264 72.1204 40.145C72.1204 40.6323 72.1204 41.1167 72.1204 41.598C72.1194 42.255 72.0917 42.72 72.7914 42.817C73.0743 42.8563 73.3372 42.8313 73.58 42.742C73.9843 42.594 73.9547 42.259 73.9566 41.815C73.9579 41.2583 73.9573 40.701 73.9547 40.143C73.9547 40.1023 73.9738 40.0817 74.0121 40.081L74.468 40.074C74.5101 40.0733 74.5311 40.095 74.5311 40.139C74.5317 40.6923 74.5292 41.244 74.5235 41.794C74.5158 42.536 74.4441 42.98 73.7769 43.258Z" fill="black"/>
<path d="M76.6656 42.048C76.6305 42.4787 76.628 42.7877 76.658 42.975C76.6777 43.103 76.6618 43.2047 76.6102 43.28C76.6006 43.294 76.5877 43.3052 76.5727 43.3124C76.5578 43.3196 76.5414 43.3226 76.5251 43.321L76.2192 43.296C76.1689 43.292 76.1437 43.2637 76.1437 43.211L76.1427 40.149C76.1427 40.1365 76.1472 40.1245 76.1554 40.1154C76.1636 40.1063 76.1748 40.1008 76.1867 40.1C76.766 40.0667 77.4102 40.062 78.1195 40.086C78.7399 40.107 79.2818 40.399 79.2006 41.151C79.1528 41.5883 78.9409 41.841 78.5649 41.909C78.5449 41.9127 78.5261 41.9216 78.5103 41.9349C78.4944 41.9482 78.4821 41.9655 78.4744 41.9852C78.4666 42.0048 78.4638 42.0262 78.4661 42.0474C78.4684 42.0685 78.4757 42.0887 78.4875 42.106L79.2178 43.178C79.2234 43.1863 79.2272 43.1959 79.2286 43.206C79.2301 43.2161 79.2294 43.2264 79.2264 43.236C79.2234 43.2456 79.2183 43.2544 79.2115 43.2615C79.2047 43.2686 79.1964 43.2739 79.1872 43.277C78.975 43.3497 78.7877 43.336 78.6252 43.236C78.3499 43.068 78.0134 42.393 77.8184 42.083C77.8086 42.0675 77.7955 42.0547 77.78 42.0457C77.7645 42.0366 77.7472 42.0316 77.7295 42.031L76.721 41.996C76.6866 41.9947 76.6681 42.012 76.6656 42.048ZM78.6112 40.8458C78.6112 40.8239 78.6071 40.8021 78.5991 40.7819C78.5911 40.7616 78.5794 40.7432 78.5646 40.7276C78.5498 40.7121 78.5322 40.6998 78.5129 40.6913C78.4935 40.6829 78.4728 40.6785 78.4518 40.6785L76.7962 40.6755C76.7753 40.6754 76.7545 40.6797 76.7351 40.6881C76.7157 40.6964 76.6981 40.7087 76.6833 40.7242C76.6684 40.7397 76.6566 40.7581 76.6486 40.7783C76.6405 40.7986 76.6363 40.8203 76.6363 40.8422L76.6356 41.2462C76.6356 41.2681 76.6397 41.2899 76.6477 41.3101C76.6557 41.3304 76.6674 41.3488 76.6822 41.3644C76.697 41.3799 76.7146 41.3922 76.7339 41.4007C76.7533 41.4091 76.774 41.4134 76.795 41.4135L78.4506 41.4165C78.4715 41.4165 78.4923 41.4123 78.5117 41.4039C78.5311 41.3956 78.5487 41.3833 78.5635 41.3678C78.5784 41.3523 78.5902 41.3339 78.5982 41.3137C78.6063 41.2934 78.6104 41.2717 78.6105 41.2498L78.6112 40.8458Z" fill="black"/>
<path d="M88.2633 40.085H87.9249C87.8806 40.085 87.8446 40.1226 87.8446 40.169V43.229C87.8446 43.2754 87.8806 43.313 87.9249 43.313H88.2633C88.3077 43.313 88.3436 43.2754 88.3436 43.229V40.169C88.3436 40.1226 88.3077 40.085 88.2633 40.085Z" fill="black"/>
<path d="M89.9657 40.133C89.9657 40.1173 89.9716 40.1021 89.9822 40.0909C89.9927 40.0797 90.0071 40.0733 90.0221 40.073L91.6328 40.067C91.8386 40.0662 92.0425 40.105 92.2329 40.1811C92.4232 40.2573 92.5964 40.3694 92.7424 40.5111C92.8884 40.6527 93.0045 40.821 93.0839 41.0065C93.1633 41.192 93.2045 41.3909 93.2052 41.592V41.76C93.2066 42.166 93.043 42.556 92.7503 42.8442C92.4576 43.1325 92.0597 43.2953 91.6443 43.297L90.0336 43.303C90.026 43.3031 90.0184 43.3017 90.0114 43.2987C90.0043 43.2958 89.9978 43.2914 89.9924 43.2858C89.987 43.2802 89.9827 43.2735 89.9797 43.2662C89.9768 43.2589 89.9753 43.251 89.9753 43.243L89.9657 40.133ZM90.5144 40.723L90.4982 42.667C90.498 42.6766 90.4997 42.6861 90.5031 42.695C90.5065 42.7039 90.5115 42.712 90.5179 42.7189C90.5243 42.7258 90.5319 42.7313 90.5403 42.7351C90.5488 42.7389 90.5578 42.7409 90.567 42.741L91.6567 42.751C91.7886 42.7522 91.9195 42.7267 92.0418 42.6759C92.1642 42.6251 92.2756 42.55 92.3697 42.4549C92.4637 42.3598 92.5387 42.2466 92.5902 42.1217C92.6417 41.9968 92.6688 41.8627 92.6699 41.727V41.703C92.6722 41.4291 92.5685 41.1654 92.3817 40.97C92.1949 40.7746 91.9403 40.6634 91.6739 40.661L90.5842 40.651C90.5658 40.651 90.5482 40.6586 90.5352 40.672C90.5221 40.6855 90.5147 40.7038 90.5144 40.723Z" fill="black"/>
<path d="M94.9564 40.719C94.9182 40.864 94.8159 41.424 95.1122 41.39C95.441 41.352 95.8186 41.374 96.1503 41.388C96.1904 41.3893 96.2092 41.4113 96.2067 41.454L96.1837 41.827C96.1828 41.8459 96.1748 41.8638 96.1615 41.8768C96.1481 41.8898 96.1304 41.897 96.1121 41.897L95.0061 41.89C94.964 41.89 94.9421 41.912 94.9401 41.956L94.9076 42.68C94.9071 42.6893 94.9084 42.6985 94.9115 42.7073C94.9145 42.716 94.9192 42.7239 94.9253 42.7307C94.9314 42.7374 94.9387 42.7428 94.9469 42.7465C94.955 42.7501 94.9638 42.752 94.9726 42.752L97.1186 42.762C97.1753 42.762 97.2034 42.7917 97.2027 42.851L97.197 43.235C97.1964 43.2797 97.1747 43.302 97.132 43.302L94.5119 43.299C94.5026 43.299 94.4934 43.2971 94.4848 43.2933C94.4763 43.2895 94.4685 43.284 94.4619 43.277C94.4553 43.2701 94.4501 43.2618 94.4466 43.2527C94.443 43.2436 94.4412 43.2338 94.4412 43.224L94.4431 40.149C94.4431 40.1338 94.4488 40.1192 94.459 40.1083C94.4692 40.0975 94.483 40.0913 94.4976 40.091C95.261 40.071 96.0219 40.0673 96.7802 40.08C96.9427 40.0827 97.045 40.1213 97.0871 40.196C97.1406 40.2907 97.1374 40.431 97.0775 40.617C97.0719 40.6343 97.0613 40.6492 97.0473 40.6598C97.0332 40.6704 97.0164 40.6761 96.9991 40.676L95.0185 40.669C94.9854 40.669 94.9647 40.6857 94.9564 40.719Z" fill="black"/>
</svg>
