<svg width="384" height="368" viewBox="0 0 384 368" fill="none" xmlns="http://www.w3.org/2000/svg">
<path d="M56.6865 94.5815C59.4763 118.007 65.5042 157.385 95.3089 163.506C109.795 166.48 120.624 170.707 133.695 161.679C160.273 143.322 122.41 107.808 97.6881 123.514C48.1646 154.977 50.8109 220.581 99.7194 247.91C122.341 260.55 150.398 261.449 173.441 248.907C184.267 243.015 196.678 229.606 185.228 217.221C159.747 189.659 145.507 229.699 144.694 263.95C143.385 319.092 216.412 337.269 269.502 330.9" stroke="#808080" stroke-linecap="round" stroke-dasharray="12 12"/>
<path d="M77.5 25.5C75.3127 25.5025 73.2157 26.3725 71.6691 27.9191C70.1225 29.4657 69.2525 31.5627 69.25 33.75C69.25 40.8094 76.75 46.1409 77.0697 46.3641C77.1958 46.4524 77.346 46.4998 77.5 46.4998C77.654 46.4998 77.8042 46.4524 77.9303 46.3641C78.25 46.1409 85.75 40.8094 85.75 33.75C85.7475 31.5627 84.8775 29.4657 83.3309 27.9191C81.7843 26.3725 79.6873 25.5025 77.5 25.5ZM77.5 30.75C78.0933 30.75 78.6734 30.9259 79.1667 31.2556C79.6601 31.5852 80.0446 32.0538 80.2716 32.6019C80.4987 33.1501 80.5581 33.7533 80.4424 34.3353C80.3266 34.9172 80.0409 35.4518 79.6213 35.8713C79.2018 36.2909 78.6672 36.5766 78.0853 36.6924C77.5033 36.8081 76.9001 36.7487 76.3519 36.5216C75.8038 36.2946 75.3352 35.9101 75.0056 35.4167C74.6759 34.9234 74.5 34.3433 74.5 33.75C74.5 32.9544 74.8161 32.1913 75.3787 31.6287C75.9413 31.0661 76.7044 30.75 77.5 30.75Z" fill="#043353"/>
<path d="M24.9773 75V73.8295L31.0966 64.875H24.9261V63.3636H33.2443V64.5341L27.125 73.4886H33.2955V75H24.9773ZM40.8892 71.3807V66.2727H42.5938V75H40.9233V73.4886H40.8324C40.6316 73.9545 40.3097 74.3428 39.8665 74.6534C39.4271 74.9602 38.8797 75.1136 38.2244 75.1136C37.6638 75.1136 37.1676 74.9905 36.7358 74.7443C36.3078 74.4943 35.9706 74.125 35.7244 73.6364C35.482 73.1477 35.3608 72.5436 35.3608 71.8239V66.2727H37.0597V71.6193C37.0597 72.214 37.2244 72.6875 37.554 73.0398C37.8835 73.392 38.3116 73.5682 38.8381 73.5682C39.1563 73.5682 39.4725 73.4886 39.7869 73.3295C40.1051 73.1705 40.3684 72.9299 40.5767 72.608C40.7888 72.286 40.893 71.8769 40.8892 71.3807ZM44.8764 75V66.2727H46.5185V67.6591H46.6094C46.7685 67.1894 47.0488 66.8201 47.4503 66.5511C47.8556 66.2784 48.3139 66.142 48.8253 66.142C48.9313 66.142 49.0563 66.1458 49.2003 66.1534C49.348 66.161 49.4635 66.1705 49.5469 66.1818V67.8068C49.4787 67.7879 49.3575 67.767 49.1832 67.7443C49.009 67.7178 48.8348 67.7045 48.6605 67.7045C48.259 67.7045 47.901 67.7898 47.5866 67.9602C47.276 68.1269 47.0298 68.3598 46.848 68.6591C46.6662 68.9545 46.5753 69.2917 46.5753 69.6705V75H44.8764ZM51.017 75V66.2727H52.7159V75H51.017ZM51.875 64.9261C51.5795 64.9261 51.3258 64.8277 51.1136 64.6307C50.9053 64.4299 50.8011 64.1913 50.8011 63.9148C50.8011 63.6345 50.9053 63.3958 51.1136 63.1989C51.3258 62.9981 51.5795 62.8977 51.875 62.8977C52.1705 62.8977 52.4223 62.9981 52.6307 63.1989C52.8428 63.3958 52.9489 63.6345 52.9489 63.9148C52.9489 64.1913 52.8428 64.4299 52.6307 64.6307C52.4223 64.8277 52.1705 64.9261 51.875 64.9261ZM58.6776 75.1761C57.8329 75.1761 57.1056 74.9848 56.4957 74.6023C55.8897 74.2159 55.4238 73.6837 55.098 73.0057C54.7723 72.3277 54.6094 71.5511 54.6094 70.6761C54.6094 69.7898 54.776 69.0076 55.1094 68.3295C55.4427 67.6477 55.9124 67.1155 56.5185 66.733C57.1245 66.3504 57.8385 66.1591 58.6605 66.1591C59.3234 66.1591 59.9143 66.2822 60.4332 66.5284C60.9522 66.7708 61.3707 67.1117 61.6889 67.5511C62.0109 67.9905 62.2022 68.5038 62.2628 69.0909H60.6094C60.5185 68.6818 60.3101 68.3295 59.9844 68.0341C59.6624 67.7386 59.2306 67.5909 58.6889 67.5909C58.2154 67.5909 57.8007 67.7159 57.4446 67.9659C57.0923 68.2121 56.8177 68.5644 56.6207 69.0227C56.4238 69.4773 56.3253 70.0152 56.3253 70.6364C56.3253 71.2727 56.4219 71.822 56.6151 72.2841C56.8082 72.7462 57.081 73.1042 57.4332 73.358C57.7893 73.6117 58.2079 73.7386 58.6889 73.7386C59.0109 73.7386 59.3026 73.6799 59.5639 73.5625C59.8291 73.4413 60.0507 73.2689 60.2287 73.0455C60.4105 72.822 60.5374 72.553 60.6094 72.2386H62.2628C62.2022 72.803 62.0185 73.3068 61.7116 73.75C61.4048 74.1932 60.9938 74.5417 60.4787 74.7955C59.9673 75.0492 59.367 75.1761 58.6776 75.1761ZM65.7784 69.8182V75H64.0795V63.3636H65.7557V67.6932H65.8636C66.0682 67.2235 66.3807 66.8504 66.8011 66.5739C67.2216 66.2973 67.7708 66.1591 68.4489 66.1591C69.0473 66.1591 69.5701 66.2822 70.017 66.5284C70.4678 66.7746 70.8163 67.142 71.0625 67.6307C71.3125 68.1155 71.4375 68.7216 71.4375 69.4489V75H69.7386V69.6534C69.7386 69.0133 69.5739 68.517 69.2443 68.1648C68.9148 67.8087 68.4564 67.6307 67.8693 67.6307C67.4678 67.6307 67.108 67.7159 66.7898 67.8864C66.4754 68.0568 66.2273 68.3068 66.0455 68.6364C65.8674 68.9621 65.7784 69.3561 65.7784 69.8182ZM79.0582 75H77.1946L81.3821 63.3636H83.4105L87.598 75H85.7344L82.4446 65.4773H82.3537L79.0582 75ZM79.3707 70.4432H85.4162V71.9205H79.3707V70.4432ZM89.2202 75V66.2727H90.919V75H89.2202ZM90.0781 64.9261C89.7827 64.9261 89.5289 64.8277 89.3168 64.6307C89.1084 64.4299 89.0043 64.1913 89.0043 63.9148C89.0043 63.6345 89.1084 63.3958 89.3168 63.1989C89.5289 62.9981 89.7827 62.8977 90.0781 62.8977C90.3736 62.8977 90.6255 62.9981 90.8338 63.1989C91.0459 63.3958 91.152 63.6345 91.152 63.9148C91.152 64.1913 91.0459 64.4299 90.8338 64.6307C90.6255 64.8277 90.3736 64.9261 90.0781 64.9261ZM93.2045 75V66.2727H94.8466V67.6591H94.9375C95.0966 67.1894 95.3769 66.8201 95.7784 66.5511C96.1837 66.2784 96.642 66.142 97.1534 66.142C97.2595 66.142 97.3845 66.1458 97.5284 66.1534C97.6761 66.161 97.7917 66.1705 97.875 66.1818V67.8068C97.8068 67.7879 97.6856 67.767 97.5114 67.7443C97.3371 67.7178 97.1629 67.7045 96.9886 67.7045C96.5871 67.7045 96.2292 67.7898 95.9148 67.9602C95.6042 68.1269 95.358 68.3598 95.1761 68.6591C94.9943 68.9545 94.9034 69.2917 94.9034 69.6705V75H93.2045ZM99.3452 78.2727V66.2727H101.004V67.6875H101.146C101.245 67.5057 101.387 67.2955 101.572 67.0568C101.758 66.8182 102.016 66.6098 102.345 66.4318C102.675 66.25 103.11 66.1591 103.652 66.1591C104.357 66.1591 104.985 66.3371 105.538 66.6932C106.091 67.0492 106.525 67.5625 106.839 68.233C107.158 68.9034 107.317 69.7102 107.317 70.6534C107.317 71.5966 107.16 72.4053 106.845 73.0795C106.531 73.75 106.099 74.267 105.55 74.6307C105 74.9905 104.374 75.1705 103.669 75.1705C103.139 75.1705 102.705 75.0814 102.368 74.9034C102.035 74.7254 101.773 74.517 101.584 74.2784C101.394 74.0398 101.249 73.8277 101.146 73.642H101.044V78.2727H99.3452ZM101.01 70.6364C101.01 71.25 101.099 71.7879 101.277 72.25C101.455 72.7121 101.713 73.0739 102.05 73.3352C102.387 73.5928 102.8 73.7216 103.288 73.7216C103.796 73.7216 104.22 73.5871 104.561 73.3182C104.902 73.0455 105.16 72.6761 105.334 72.2102C105.512 71.7443 105.601 71.2197 105.601 70.6364C105.601 70.0606 105.514 69.5436 105.339 69.0852C105.169 68.6269 104.911 68.2652 104.567 68C104.226 67.7348 103.8 67.6023 103.288 67.6023C102.796 67.6023 102.379 67.7292 102.038 67.983C101.701 68.2367 101.446 68.5909 101.271 69.0455C101.097 69.5 101.01 70.0303 101.01 70.6364ZM112.896 75.1761C112.078 75.1761 111.364 74.9886 110.754 74.6136C110.144 74.2386 109.671 73.714 109.334 73.0398C108.997 72.3655 108.828 71.5777 108.828 70.6761C108.828 69.7708 108.997 68.9792 109.334 68.3011C109.671 67.6231 110.144 67.0966 110.754 66.7216C111.364 66.3466 112.078 66.1591 112.896 66.1591C113.714 66.1591 114.429 66.3466 115.038 66.7216C115.648 67.0966 116.122 67.6231 116.459 68.3011C116.796 68.9792 116.964 69.7708 116.964 70.6761C116.964 71.5777 116.796 72.3655 116.459 73.0398C116.122 73.714 115.648 74.2386 115.038 74.6136C114.429 74.9886 113.714 75.1761 112.896 75.1761ZM112.902 73.75C113.432 73.75 113.872 73.6098 114.22 73.3295C114.569 73.0492 114.826 72.6761 114.993 72.2102C115.163 71.7443 115.249 71.2311 115.249 70.6705C115.249 70.1136 115.163 69.6023 114.993 69.1364C114.826 68.6667 114.569 68.2898 114.22 68.0057C113.872 67.7216 113.432 67.5795 112.902 67.5795C112.368 67.5795 111.925 67.7216 111.572 68.0057C111.224 68.2898 110.964 68.6667 110.794 69.1364C110.627 69.6023 110.544 70.1136 110.544 70.6705C110.544 71.2311 110.627 71.7443 110.794 72.2102C110.964 72.6761 111.224 73.0492 111.572 73.3295C111.925 73.6098 112.368 73.75 112.902 73.75ZM118.861 75V66.2727H120.503V67.6591H120.594C120.753 67.1894 121.033 66.8201 121.435 66.5511C121.84 66.2784 122.298 66.142 122.81 66.142C122.916 66.142 123.041 66.1458 123.185 66.1534C123.332 66.161 123.448 66.1705 123.531 66.1818V67.8068C123.463 67.7879 123.342 67.767 123.168 67.7443C122.993 67.7178 122.819 67.7045 122.645 67.7045C122.243 67.7045 121.885 67.7898 121.571 67.9602C121.26 68.1269 121.014 68.3598 120.832 68.6591C120.651 68.9545 120.56 69.2917 120.56 69.6705V75H118.861ZM129.591 66.2727V67.6364H124.824V66.2727H129.591ZM126.102 64.1818H127.801V72.4375C127.801 72.767 127.85 73.0152 127.949 73.1818C128.047 73.3447 128.174 73.4564 128.33 73.517C128.489 73.5739 128.661 73.6023 128.847 73.6023C128.983 73.6023 129.102 73.5928 129.205 73.5739C129.307 73.5549 129.386 73.5398 129.443 73.5284L129.75 74.9318C129.652 74.9697 129.511 75.0076 129.33 75.0455C129.148 75.0871 128.92 75.1098 128.648 75.1136C128.201 75.1212 127.784 75.0417 127.398 74.875C127.011 74.7083 126.699 74.4508 126.46 74.1023C126.222 73.7538 126.102 73.3163 126.102 72.7898V64.1818Z" fill="black"/>
<path d="M323 287.5C320.813 287.502 318.716 288.372 317.169 289.919C315.622 291.466 314.752 293.563 314.75 295.75C314.75 302.809 322.25 308.141 322.57 308.364C322.696 308.452 322.846 308.5 323 308.5C323.154 308.5 323.304 308.452 323.43 308.364C323.75 308.141 331.25 302.809 331.25 295.75C331.248 293.563 330.378 291.466 328.831 289.919C327.284 288.372 325.187 287.502 323 287.5ZM323 292.75C323.593 292.75 324.173 292.926 324.667 293.256C325.16 293.585 325.545 294.054 325.772 294.602C325.999 295.15 326.058 295.753 325.942 296.335C325.827 296.917 325.541 297.452 325.121 297.871C324.702 298.291 324.167 298.577 323.585 298.692C323.003 298.808 322.4 298.749 321.852 298.522C321.304 298.295 320.835 297.91 320.506 297.417C320.176 296.923 320 296.343 320 295.75C320 294.954 320.316 294.191 320.879 293.629C321.441 293.066 322.204 292.75 323 292.75Z" fill="#043353"/>
<path d="M293.625 328.42C293.564 327.883 293.314 327.466 292.875 327.17C292.436 326.871 291.883 326.722 291.216 326.722C290.739 326.722 290.326 326.797 289.977 326.949C289.629 327.097 289.358 327.301 289.165 327.562C288.975 327.82 288.881 328.114 288.881 328.443C288.881 328.72 288.945 328.958 289.074 329.159C289.206 329.36 289.379 329.528 289.591 329.665C289.807 329.797 290.038 329.909 290.284 330C290.53 330.087 290.767 330.159 290.994 330.216L292.131 330.511C292.502 330.602 292.883 330.725 293.273 330.881C293.663 331.036 294.025 331.241 294.358 331.494C294.691 331.748 294.96 332.062 295.165 332.438C295.373 332.812 295.477 333.261 295.477 333.784C295.477 334.443 295.307 335.028 294.966 335.54C294.629 336.051 294.138 336.455 293.494 336.75C292.854 337.045 292.08 337.193 291.17 337.193C290.299 337.193 289.545 337.055 288.909 336.778C288.273 336.502 287.775 336.11 287.415 335.602C287.055 335.091 286.856 334.485 286.818 333.784H288.58C288.614 334.205 288.75 334.555 288.989 334.835C289.231 335.112 289.54 335.318 289.915 335.455C290.294 335.587 290.708 335.653 291.159 335.653C291.655 335.653 292.097 335.576 292.483 335.42C292.873 335.261 293.18 335.042 293.403 334.761C293.627 334.477 293.739 334.146 293.739 333.767C293.739 333.422 293.64 333.14 293.443 332.92C293.25 332.701 292.987 332.519 292.653 332.375C292.324 332.231 291.951 332.104 291.534 331.994L290.159 331.619C289.227 331.366 288.489 330.992 287.943 330.5C287.402 330.008 287.131 329.356 287.131 328.545C287.131 327.875 287.313 327.29 287.676 326.79C288.04 326.29 288.532 325.902 289.153 325.625C289.775 325.345 290.475 325.205 291.256 325.205C292.044 325.205 292.739 325.343 293.341 325.619C293.947 325.896 294.424 326.277 294.773 326.761C295.121 327.242 295.303 327.795 295.318 328.42H293.625ZM301.513 328.273V329.636H296.746V328.273H301.513ZM298.024 326.182H299.723V334.438C299.723 334.767 299.772 335.015 299.871 335.182C299.969 335.345 300.096 335.456 300.251 335.517C300.411 335.574 300.583 335.602 300.768 335.602C300.905 335.602 301.024 335.593 301.126 335.574C301.229 335.555 301.308 335.54 301.365 335.528L301.672 336.932C301.573 336.97 301.433 337.008 301.251 337.045C301.07 337.087 300.842 337.11 300.57 337.114C300.123 337.121 299.706 337.042 299.32 336.875C298.933 336.708 298.621 336.451 298.382 336.102C298.143 335.754 298.024 335.316 298.024 334.79V326.182ZM304.511 337.108C304.201 337.108 303.934 336.998 303.71 336.778C303.487 336.555 303.375 336.286 303.375 335.972C303.375 335.661 303.487 335.396 303.71 335.176C303.934 334.953 304.201 334.841 304.511 334.841C304.822 334.841 305.089 334.953 305.312 335.176C305.536 335.396 305.648 335.661 305.648 335.972C305.648 336.18 305.595 336.371 305.489 336.545C305.386 336.716 305.25 336.852 305.08 336.955C304.909 337.057 304.72 337.108 304.511 337.108ZM312.107 325.364H314.237L317.942 334.409H318.078L321.783 325.364H323.913V337H322.243V328.58H322.135L318.703 336.983H317.317L313.885 328.574H313.777V337H312.107V325.364ZM330.006 337.176C329.188 337.176 328.473 336.989 327.864 336.614C327.254 336.239 326.78 335.714 326.443 335.04C326.106 334.366 325.938 333.578 325.938 332.676C325.938 331.771 326.106 330.979 326.443 330.301C326.78 329.623 327.254 329.097 327.864 328.722C328.473 328.347 329.188 328.159 330.006 328.159C330.824 328.159 331.538 328.347 332.148 328.722C332.758 329.097 333.231 329.623 333.568 330.301C333.905 330.979 334.074 331.771 334.074 332.676C334.074 333.578 333.905 334.366 333.568 335.04C333.231 335.714 332.758 336.239 332.148 336.614C331.538 336.989 330.824 337.176 330.006 337.176ZM330.011 335.75C330.542 335.75 330.981 335.61 331.33 335.33C331.678 335.049 331.936 334.676 332.102 334.21C332.273 333.744 332.358 333.231 332.358 332.67C332.358 332.114 332.273 331.602 332.102 331.136C331.936 330.667 331.678 330.29 331.33 330.006C330.981 329.722 330.542 329.58 330.011 329.58C329.477 329.58 329.034 329.722 328.682 330.006C328.333 330.29 328.074 330.667 327.903 331.136C327.737 331.602 327.653 332.114 327.653 332.67C327.653 333.231 327.737 333.744 327.903 334.21C328.074 334.676 328.333 335.049 328.682 335.33C329.034 335.61 329.477 335.75 330.011 335.75ZM335.97 337V328.273H337.612V329.659H337.703C337.862 329.189 338.143 328.82 338.544 328.551C338.949 328.278 339.408 328.142 339.919 328.142C340.025 328.142 340.15 328.146 340.294 328.153C340.442 328.161 340.557 328.17 340.641 328.182V329.807C340.572 329.788 340.451 329.767 340.277 329.744C340.103 329.718 339.929 329.705 339.754 329.705C339.353 329.705 338.995 329.79 338.68 329.96C338.37 330.127 338.124 330.36 337.942 330.659C337.76 330.955 337.669 331.292 337.669 331.67V337H335.97ZM342.111 337V328.273H343.81V337H342.111ZM342.969 326.926C342.673 326.926 342.42 326.828 342.207 326.631C341.999 326.43 341.895 326.191 341.895 325.915C341.895 325.634 341.999 325.396 342.207 325.199C342.42 324.998 342.673 324.898 342.969 324.898C343.264 324.898 343.516 324.998 343.724 325.199C343.937 325.396 344.043 325.634 344.043 325.915C344.043 326.191 343.937 326.43 343.724 326.631C343.516 326.828 343.264 326.926 342.969 326.926ZM350.169 328.273V329.636H345.402V328.273H350.169ZM346.68 326.182H348.379V334.438C348.379 334.767 348.429 335.015 348.527 335.182C348.625 335.345 348.752 335.456 348.908 335.517C349.067 335.574 349.239 335.602 349.425 335.602C349.561 335.602 349.68 335.593 349.783 335.574C349.885 335.555 349.964 335.54 350.021 335.528L350.328 336.932C350.23 336.97 350.089 337.008 349.908 337.045C349.726 337.087 349.499 337.11 349.226 337.114C348.779 337.121 348.362 337.042 347.976 336.875C347.589 336.708 347.277 336.451 347.038 336.102C346.8 335.754 346.68 335.316 346.68 334.79V326.182ZM351.866 337V335.835L356.594 329.83V329.75H352.02V328.273H358.713V329.511L354.168 335.443V335.523H358.872V337H351.866Z" fill="black"/>
<path d="M223.131 309.554L219.653 308.677L215.729 302.102C215.596 301.876 215.418 301.679 215.208 301.522C214.997 301.365 214.757 301.251 214.502 301.188L200.878 297.748C200.56 297.669 200.226 297.669 199.908 297.748C199.589 297.828 199.295 297.985 199.051 298.205L194.097 302.684C193.951 302.817 193.847 302.989 193.798 303.181L192.33 308.998C192.2 309.513 192.28 310.057 192.551 310.513C192.823 310.968 193.265 311.297 193.779 311.427L195.84 311.947C195.843 312.835 196.141 313.697 196.688 314.397C197.235 315.097 197.999 315.595 198.861 315.812C199.722 316.029 200.631 315.954 201.444 315.598C202.258 315.241 202.93 314.624 203.354 313.844L211.353 315.863C211.356 316.752 211.654 317.613 212.201 318.313C212.748 319.013 213.513 319.511 214.374 319.728C215.235 319.946 216.144 319.87 216.958 319.514C217.771 319.158 218.443 318.541 218.867 317.76L220.928 318.281C221.442 318.41 221.987 318.331 222.442 318.059C222.898 317.787 223.226 317.345 223.356 316.831L224.58 311.983C224.71 311.469 224.63 310.924 224.358 310.468C224.086 310.013 223.645 309.684 223.131 309.554ZM200.389 299.688L214.013 303.127L216.912 307.984L196.831 302.915L200.389 299.688ZM199.352 313.865C198.968 313.768 198.622 313.56 198.357 313.266C198.092 312.973 197.92 312.607 197.863 312.216C197.805 311.824 197.865 311.425 198.035 311.068C198.205 310.71 198.477 310.411 198.817 310.209C199.156 310.006 199.548 309.908 199.943 309.929C200.338 309.949 200.719 310.086 201.036 310.322C201.353 310.558 201.593 310.883 201.726 311.256C201.858 311.628 201.878 312.032 201.781 312.416C201.651 312.93 201.322 313.371 200.867 313.643C200.411 313.915 199.866 313.995 199.352 313.865ZM214.865 317.781C214.482 317.685 214.136 317.476 213.87 317.183C213.605 316.889 213.433 316.524 213.376 316.132C213.319 315.741 213.379 315.341 213.548 314.984C213.718 314.627 213.99 314.328 214.33 314.125C214.669 313.922 215.062 313.825 215.457 313.845C215.852 313.865 216.232 314.002 216.549 314.238C216.867 314.474 217.107 314.799 217.239 315.172C217.372 315.545 217.391 315.948 217.294 316.332C217.164 316.846 216.835 317.288 216.38 317.56C215.924 317.832 215.38 317.911 214.865 317.781Z" fill="#043353"/>
</svg>
